<svg width="24" height="24" viewBox="0 0 24 24" fill="none" xmlns="http://www.w3.org/2000/svg">
<g clip-path="url(#clip0_1_2256)">
<path d="M24 12C24 18.6274 18.6274 24 12 24C5.37262 24 0 18.6274 0 12C0 12.0029 12 0.0013125 12 0C18.6274 0 24 5.37262 24 12Z" fill="#0052B4"/>
<path d="M11.9679 11.9999H12C12 11.9891 12 11.9786 12 11.9678C11.9893 11.9785 11.9786 11.9892 11.9679 11.9999Z" fill="#F0F0F0"/>
<path d="M12 6.26086C12 4.14938 12 2.76586 12 0H11.998C5.37145 0.001125 0 5.37323 0 12H6.26086V8.47448L9.78638 12H11.9679C11.9786 11.9893 11.9893 11.9786 12 11.9679C12 11.1594 12 10.4381 12 9.78647L8.47444 6.26086H12Z" fill="#F0F0F0"/>
<path d="M6.07101 1.56543C4.19419 2.63413 2.63386 4.19441 1.5652 6.07124V12.0002H4.69565V4.69598V4.69588H12C12 3.70855 12 2.76796 12 1.56543H6.07101Z" fill="#D80027"/>
<path d="M12 10.5247L7.73649 6.26123H6.26086V6.26132L11.9999 12.0003H12C12 12.0003 12 10.9828 12 10.5247V10.5247Z" fill="#D80027"/>
<path d="M20.294 13.7564C20.6391 13.2816 20.8695 12.7019 20.8695 11.9998V6.78241C20.4335 7.10998 19.8916 7.30413 19.3043 7.30413C18.4509 7.30413 17.6933 6.8943 17.2174 6.26074C16.7414 6.8943 15.9838 7.30413 15.1304 7.30413C14.5431 7.30413 14.0012 7.10993 13.5652 6.78251V11.9998C13.5652 12.7019 13.7957 13.2816 14.1407 13.7564H20.294Z" fill="#F3F3F3"/>
<path d="M19.2087 11.0324C19.3748 10.6271 19.504 10.0347 19.504 9.73995C19.504 9.26628 18.8865 8.88232 18.8865 8.88232C18.8865 8.88232 18.2689 9.26628 18.2689 9.73995C18.2689 10.0348 18.3982 10.6272 18.5642 11.0324L18.2077 11.8373C18.4172 11.9225 18.6463 11.9698 18.8865 11.9698C19.1267 11.9698 19.3557 11.9224 19.5653 11.8373L19.2087 11.0324Z" fill="#FF9811"/>
<path d="M16.795 8.42598C16.3612 8.48477 15.7835 8.66922 15.5282 8.81659C15.118 9.05345 15.0942 9.78016 15.0942 9.78016C15.0942 9.78016 15.7356 10.123 16.1457 9.88614C16.4011 9.73872 16.8494 9.33072 17.1172 8.98422L17.9926 8.89047C17.9617 8.6665 17.888 8.44445 17.768 8.23647C17.6478 8.02848 17.4924 7.85373 17.3138 7.71484L16.795 8.42598Z" fill="#FF9811"/>
<path d="M15.7449 11.8192C16.0127 12.1655 16.4612 12.5735 16.7166 12.721C17.1268 12.9578 17.7681 12.6151 17.7681 12.6151C17.7681 12.6151 17.7442 11.8883 17.3341 11.6514C17.0786 11.504 16.5011 11.3197 16.0671 11.261L15.5483 10.5498C15.3698 10.6886 15.2144 10.8635 15.0942 11.0713C14.9742 11.2794 14.9007 11.5013 14.8696 11.7254L15.7449 11.8192Z" fill="#FF9811"/>
<path d="M14.0117 13.5654C14.9861 15.1289 17.2174 15.6523 17.2174 15.6523C17.2174 15.6523 19.4487 15.1289 20.4232 13.5654H14.0117Z" fill="#338AF3"/>
</g>
<defs>
<clipPath id="clip0_1_2256">
<rect width="24" height="24" fill="white"/>
</clipPath>
</defs>
</svg>
