<svg width="24" height="24" viewBox="0 0 24 24" fill="none" xmlns="http://www.w3.org/2000/svg">
<g clip-path="url(#clip0_1_2251)">
<path d="M12 24C18.6274 24 24 18.6274 24 12C24 5.37258 18.6274 0 12 0C5.37258 0 0 5.37258 0 12C0 18.6274 5.37258 24 12 24Z" fill="#D80027"/>
<path d="M18.7826 8.90651H14.4361C14.7044 8.62554 14.8695 8.24515 14.8695 7.82595C14.8695 6.96152 14.1688 6.26074 13.3043 6.26074C12.7598 6.26074 12.2804 6.53899 12 6.96091C11.7196 6.53899 11.2402 6.26074 10.6957 6.26074C9.83123 6.26074 9.13045 6.96152 9.13045 7.82595C9.13045 8.24515 9.29559 8.62559 9.56391 8.90651H5.21742C5.21742 10.0591 6.22134 10.9934 7.37386 10.9934H7.3043C7.3043 12.1461 8.23866 13.0804 9.39131 13.0804C9.39131 13.4538 9.4897 13.8037 9.66145 14.1067L7.93036 15.8379L9.25852 17.1659L11.1425 15.282C11.2163 15.309 11.2927 15.3307 11.3715 15.3455L10.233 17.9159L12 19.8259L13.767 17.9158L12.6285 15.3454C12.7074 15.3306 12.7837 15.309 12.8575 15.2819L14.7415 17.1658L16.0696 15.8377L14.3385 14.1066C14.5103 13.8036 14.6087 13.4536 14.6087 13.0803C15.7613 13.0803 16.6957 12.146 16.6957 10.9933H16.6261C17.7787 10.9934 18.7826 10.0591 18.7826 8.90651V8.90651Z" fill="black"/>
</g>
<defs>
<clipPath id="clip0_1_2251">
<rect width="24" height="24" fill="white"/>
</clipPath>
</defs>
</svg>
