<svg width="24" height="24" viewBox="0 0 24 24" fill="none" xmlns="http://www.w3.org/2000/svg">
<g clip-path="url(#clip0_1_2278)">
<path d="M24 11.9999C24 10.532 23.736 9.1259 23.2536 7.82596L12 7.3042L0.746391 7.82592C0.264 9.1259 0 10.532 0 11.9999C0 13.4677 0.264 14.8738 0.746391 16.1737L12 16.6955L23.2536 16.1738C23.736 14.8738 24 13.4677 24 11.9999Z" fill="#FFDA44"/>
<path d="M12 23.9999C17.1596 23.9999 21.5581 20.7434 23.2536 16.1738H0.746391C2.44191 20.7434 6.84042 23.9999 12 23.9999Z" fill="#6DA544"/>
<path d="M0.746391 7.82611H23.2537C21.5581 3.2565 17.1596 0 12 0C6.84042 0 2.44191 3.2565 0.746391 7.82611V7.82611Z" fill="#D80027"/>
</g>
<defs>
<clipPath id="clip0_1_2278">
<rect width="24" height="24" fill="white"/>
</clipPath>
</defs>
</svg>
