<svg width="24" height="24" viewBox="0 0 24 24" fill="none" xmlns="http://www.w3.org/2000/svg">
<g clip-path="url(#clip0_1_2302)">
<path d="M12 24C18.6274 24 24 18.6274 24 12C24 5.37258 18.6274 0 12 0C5.37258 0 0 5.37258 0 12C0 18.6274 5.37258 24 12 24Z" fill="#6DA544"/>
<path d="M18.4211 17.2178L18.7504 17.9063L19.494 17.7345L19.161 18.4212L19.759 18.8954L19.0145 19.0632L19.0166 19.8265L18.4211 19.349L17.8257 19.8265L17.8278 19.0632L17.0833 18.8954L17.6812 18.4212L17.3482 17.7345L18.0918 17.9063L18.4211 17.2178Z" fill="#FFDA44"/>
<path d="M15.3577 9.91309L15.6871 10.6016L16.4307 10.4297L16.0977 11.1166L16.6957 11.5907L15.9511 11.7586L15.9532 12.5218L15.3577 12.0443L14.7623 12.5218L14.7644 11.7586L14.0199 11.5907L14.6179 11.1166L14.2848 10.4297L15.0285 10.6016L15.3577 9.91309Z" fill="#FFDA44"/>
<path d="M18.4211 5.73926L18.7504 6.4278L19.494 6.25587L19.1611 6.94268L19.759 7.41691L19.0145 7.58468L19.0165 8.34795L18.4211 7.87043L17.8257 8.34795L17.8278 7.58468L17.0833 7.41691L17.6813 6.94268L17.3483 6.25587L18.0918 6.4278L18.4211 5.73926Z" fill="#FFDA44"/>
<path d="M21.0969 8.86963L21.4262 9.55818L22.1699 9.38629L21.8368 10.0731L22.4348 10.5473L21.6903 10.7151L21.6923 11.4784L21.0969 11.0008L20.5015 11.4784L20.5035 10.7151L19.759 10.5473L20.357 10.0731L20.024 9.38629L20.7676 9.55818L21.0969 8.86963Z" fill="#FFDA44"/>
<path d="M19.1835 12.522L19.4426 13.3192H20.2808L19.6027 13.8118L19.8617 14.6089L19.1835 14.1163L18.5055 14.6089L18.7645 13.8118L18.0864 13.3192H18.9246L19.1835 12.522Z" fill="#FFDA44"/>
<path d="M13.3043 15.3914C11.4314 15.3914 9.91298 13.873 9.91298 12.0001C9.91298 10.1272 11.4313 8.6088 13.3043 8.6088C13.8883 8.6088 14.4378 8.7565 14.9175 9.01642C14.165 8.28039 13.1358 7.82617 11.9999 7.82617C9.69478 7.82617 7.82606 9.69489 7.82606 12.0001C7.82606 14.3052 9.69478 16.174 11.9999 16.174C13.1358 16.174 14.165 15.7197 14.9175 14.9837C14.4378 15.2437 13.8883 15.3914 13.3043 15.3914V15.3914Z" fill="#FFDA44"/>
<path d="M7.54622 4.69583C7.18528 4.0722 6.51145 3.65234 5.73914 3.65234C4.96683 3.65234 4.293 4.0722 3.93206 4.69583H7.54622Z" fill="#FFDA44"/>
<path d="M7.55316 4.70801L5.73914 6.52202L3.92512 4.70801C3.75173 5.01227 3.65222 5.36416 3.65222 5.73945C3.65222 6.89205 4.58658 7.82641 5.73919 7.82641C6.8918 7.82641 7.82615 6.8921 7.82615 5.73945C7.82611 5.36416 7.72655 5.01227 7.55316 4.70801V4.70801Z" fill="#FFDA44"/>
<path d="M5.21738 6V7.76034C5.38411 7.80323 5.55895 7.82606 5.7391 7.82606C5.91924 7.82606 6.09408 7.80319 6.26081 7.76034V6H5.21738Z" fill="#A2001D"/>
</g>
<defs>
<clipPath id="clip0_1_2302">
<rect width="24" height="24" fill="white"/>
</clipPath>
</defs>
</svg>
