<svg width="24" height="24" viewBox="0 0 24 24" fill="none" xmlns="http://www.w3.org/2000/svg">
<g clip-path="url(#clip0_1_2296)">
<path d="M12 24C18.6274 24 24 18.6274 24 12C24 5.37258 18.6274 0 12 0C5.37258 0 0 5.37258 0 12C0 18.6274 5.37258 24 12 24Z" fill="#F0F0F0"/>
<path d="M22.541 6.26072C20.9903 3.41874 18.3239 1.27332 15.1305 0.412598L14.6088 6.26072H22.541Z" fill="#0052B4"/>
<path d="M1.45911 6.26072H9.39129L8.86958 0.412598C5.67612 1.27332 3.00978 3.41879 1.45911 6.26072V6.26072Z" fill="#0052B4"/>
<path d="M14.6087 12V17.7391H22.5409C23.4711 16.0342 24 14.0789 24 12H14.6087Z" fill="#6DA544"/>
<path d="M9.39131 12H0C0 14.0789 0.528891 16.0342 1.45908 17.7391H9.39127V12H9.39131Z" fill="#6DA544"/>
<path d="M1.45911 17.7393C3.00978 20.5812 5.67612 22.7267 8.86958 23.5874L9.39129 18.4729L1.45911 17.7393Z" fill="#FFDA44"/>
<path d="M15.1305 23.5874C18.3239 22.7267 20.9903 20.5812 22.541 17.7393L14.6088 18.4728L15.1305 23.5874Z" fill="#FFDA44"/>
<path d="M14.6087 18.4728L22.5409 17.7393H14.6087V18.4728Z" fill="#FFDA44"/>
<path d="M9.39134 17.7393H1.45911L9.39134 18.4728V17.7393Z" fill="#FFDA44"/>
<path d="M12 0C10.9169 0 9.86772 0.144375 8.86957 0.413391V23.5867C9.86772 23.8556 10.9169 24 12 24C13.0832 24 14.1323 23.8556 15.1305 23.5866V0.413391C14.1323 0.144375 13.0832 0 12 0V0Z" fill="#D80027"/>
<path d="M6.45457 2.60889L6.77828 3.60531H7.82608L6.97849 4.22115L7.30225 5.21757L6.45457 4.60178L5.60693 5.21757L5.93078 4.22115L5.08319 3.60531H6.13089L6.45457 2.60889Z" fill="#FFDA44"/>
</g>
<defs>
<clipPath id="clip0_1_2296">
<rect width="24" height="24" fill="white"/>
</clipPath>
</defs>
</svg>
