<svg width="24" height="24" viewBox="0 0 24 24" fill="none" xmlns="http://www.w3.org/2000/svg">
<g clip-path="url(#clip0_1_2366)">
<path d="M12 24C13.4678 24 14.8739 23.736 16.1739 23.2536L16.6956 12L16.1739 0.746391C14.8739 0.264047 13.4678 0 12 0C10.5321 0 9.12602 0.264047 7.82609 0.746391L7.30432 12L7.82604 23.2536C9.12602 23.736 10.5321 24 12 24Z" fill="#F0F0F0"/>
<path d="M0 12.0002C0 17.1598 3.2565 21.5583 7.82611 23.2538V0.746582C3.2565 2.4421 0 6.84061 0 12.0002Z" fill="#FF9811"/>
<path d="M16.1739 0.746582V23.2538C20.7435 21.5583 24 17.1598 24 12.0002C24 6.84061 20.7435 2.4421 16.1739 0.746582V0.746582Z" fill="#6DA544"/>
</g>
<defs>
<clipPath id="clip0_1_2366">
<rect width="24" height="24" fill="white"/>
</clipPath>
</defs>
</svg>
