<svg width="24" height="24" viewBox="0 0 24 24" fill="none" xmlns="http://www.w3.org/2000/svg">
<g clip-path="url(#clip0_1_2305)">
<path d="M24 12C24 18.6274 18.6274 24 12 24C5.37262 24 0 18.6274 0 12C0 12.0029 12 0.0013125 12 0C18.6274 0 24 5.37262 24 12Z" fill="#0052B4"/>
<path d="M11.9679 11.9999H12C12 11.9891 12 11.9786 12 11.9678C11.9893 11.9785 11.9786 11.9892 11.9679 11.9999Z" fill="#F0F0F0"/>
<path d="M12 6.26086C12 4.14938 12 2.76586 12 0H11.998C5.37145 0.001125 0 5.37323 0 12H6.26086V8.47448L9.78638 12H11.9679C11.9786 11.9893 11.9893 11.9786 12 11.9679C12 11.1594 12 10.4381 12 9.78647L8.47444 6.26086H12Z" fill="#F0F0F0"/>
<path d="M6.07101 1.56543C4.19419 2.63413 2.63386 4.19441 1.5652 6.07124V12.0002H4.69565V4.69598V4.69588H12C12 3.70855 12 2.76796 12 1.56543H6.07101Z" fill="#D80027"/>
<path d="M12 10.5247L7.73648 6.26123H6.26086V6.26132L11.9999 12.0003H12C12 12.0003 12 10.9828 12 10.5247V10.5247Z" fill="#D80027"/>
<path d="M16.1739 12L16.396 12.6832H17.1143L16.5332 13.1055L16.7552 13.7888L16.1739 13.3665L15.5927 13.7888L15.8147 13.1055L15.2335 12.6832H15.9519L16.1739 12Z" fill="#F0F0F0"/>
<path d="M13.2225 13.2224L13.8626 13.5485L14.3707 13.0405L14.2583 13.7501L14.8984 14.0763L14.1888 14.1886L14.0764 14.8983L13.7502 14.2581L13.0407 14.3705L13.5488 13.8625L13.2225 13.2224Z" fill="#F0F0F0"/>
<path d="M12 16.1737L12.6832 15.9517L12.6833 15.2334L13.1055 15.8145L13.7888 15.5925L13.3665 16.1737L13.7888 16.755L13.1055 16.533L12.6833 17.1142V16.3958L12 16.1737Z" fill="#F0F0F0"/>
<path d="M13.2225 19.125L13.5487 18.4849L13.0407 17.977L13.7503 18.0893L14.0764 17.4492L14.1888 18.1588L14.8984 18.2711L14.2583 18.5973L14.3707 19.307L13.8626 18.7988L13.2225 19.125Z" fill="#F0F0F0"/>
<path d="M16.1739 20.3479L15.9519 19.6646H15.2335L15.8147 19.2423L15.5927 18.5591L16.1739 18.9813L16.7552 18.5591L16.5332 19.2423L17.1143 19.6646H16.396L16.1739 20.3479Z" fill="#F0F0F0"/>
<path d="M19.1253 19.125L18.4852 18.799L17.9772 19.307L18.0896 18.5973L17.4495 18.2712L18.159 18.1588L18.2715 17.4492L18.5976 18.0893L19.3072 17.977L18.7991 18.485L19.1253 19.125Z" fill="#F0F0F0"/>
<path d="M20.3478 16.1737L19.6645 16.3958V17.1142L19.2423 16.533L18.559 16.755L18.9813 16.1737L18.559 15.5925L19.2423 15.8145L19.6645 15.2334V15.9517L20.3478 16.1737Z" fill="#F0F0F0"/>
<path d="M19.1253 13.2224L18.7992 13.8625L19.3072 14.3705L18.5976 14.2581L18.2715 14.8982L18.159 14.1885L17.4495 14.0762L18.0896 13.7501L17.9772 13.0405L18.4852 13.5485L19.1253 13.2224Z" fill="#F0F0F0"/>
</g>
<defs>
<clipPath id="clip0_1_2305">
<rect width="24" height="24" fill="white"/>
</clipPath>
</defs>
</svg>
