<svg width="24" height="24" viewBox="0 0 24 24" fill="none" xmlns="http://www.w3.org/2000/svg">
<g clip-path="url(#clip0_246_5334)">
<path d="M0 12C0 13.4679 0.264047 14.8739 0.746391 16.1739L12 17.2174L23.2536 16.1739C23.736 14.8739 24 13.4679 24 12C24 10.5322 23.736 9.12612 23.2536 7.82614L12 6.78265L0.746391 7.82614C0.264047 9.12612 0 10.5322 0 12H0Z" fill="#FFDA44"/>
<path d="M23.2538 7.82611C21.5583 3.25655 17.1598 0 12.0002 0C6.84061 0 2.4421 3.25655 0.746582 7.82611H23.2538Z" fill="#D80027"/>
<path d="M0.746582 16.1739C2.4421 20.7435 6.84061 24 12.0002 24C17.1598 24 21.5583 20.7435 23.2538 16.1739H0.746582Z" fill="#D80027"/>
</g>
<defs>
<clipPath id="clip0_246_5334">
<rect width="24" height="24" fill="white"/>
</clipPath>
</defs>
</svg>
