<svg width="24" height="24" viewBox="0 0 24 24" fill="none" xmlns="http://www.w3.org/2000/svg">
<g clip-path="url(#clip0_1_2350)">
<path d="M12 24C18.6274 24 24 18.6274 24 12C24 5.37258 18.6274 0 12 0C5.37258 0 0 5.37258 0 12C0 18.6274 5.37258 24 12 24Z" fill="#F0F0F0"/>
<path d="M12 0C9.87837 0 7.88581 0.551344 6.15649 1.51744V22.4826C7.88585 23.4487 9.87837 24 12 24C18.6274 24 24 18.6274 24 12C24 5.37262 18.6274 0 12 0Z" fill="#6DA544"/>
<path d="M6.19184 1.49756C5.43692 1.91592 4.73201 2.41317 4.088 2.97848C4.15311 2.92139 4.21887 2.86495 4.28515 2.80926L13.4757 11.9999L4.28511 21.1905C4.21878 21.1348 4.15306 21.0783 4.08795 21.0212C4.73197 21.5865 5.43692 22.0837 6.1918 22.5022L24 11.9999L6.19184 1.49756Z" fill="#F0F0F0"/>
<path d="M5.17831 2.12744C4.81235 2.38085 4.46088 2.65352 4.12596 2.94494L12 12.0002L4.12592 21.0554C4.46084 21.3468 4.81231 21.6195 5.17826 21.8729L21.9459 12.0002L5.17831 2.12744Z" fill="#FFDA44"/>
<path d="M4.2851 2.80957C4.01833 3.03373 3.7609 3.26871 3.51471 3.51485L10.9565 12.0002L3.51471 20.4855C3.7609 20.7317 4.01829 20.9667 4.2851 21.1908L13.4757 12.0002L4.2851 2.80957Z" fill="black"/>
<path d="M3.51471 3.51465C-1.17157 8.20093 -1.17157 15.7989 3.51471 20.4853C5.45126 18.5487 7.31374 16.6862 12 12L3.51471 3.51465Z" fill="#D80027"/>
</g>
<defs>
<clipPath id="clip0_1_2350">
<rect width="24" height="24" fill="white"/>
</clipPath>
</defs>
</svg>
