<svg width="24" height="24" viewBox="0 0 24 24" fill="none" xmlns="http://www.w3.org/2000/svg">
<g clip-path="url(#clip0_1_2352)">
<path d="M24 12C24 18.6274 18.6274 24 12 24C5.37262 24 0 18.6274 0 12C0 5.37262 12 0 12 0C12 0 24 5.37262 24 12Z" fill="#A2001D"/>
<path d="M0 12C0 5.37262 5.37262 0 12 0C18.6274 0 24 5.37262 24 12" fill="#0052B4"/>
<path d="M16.1739 15.1305L12 14.6088L7.82611 15.1305V8.86963H16.1739V15.1305Z" fill="#F0F0F0"/>
<path d="M12 14.6085C13.1526 14.6085 14.087 13.6741 14.087 12.5215C14.087 11.3689 13.1526 10.4346 12 10.4346C10.8474 10.4346 9.91302 11.3689 9.91302 12.5215C9.91302 13.6741 10.8474 14.6085 12 14.6085Z" fill="#0052B4"/>
<path d="M12 13.565C12.5763 13.565 13.0435 13.0978 13.0435 12.5215C13.0435 11.9452 12.5763 11.478 12 11.478C11.4237 11.478 10.9565 11.9452 10.9565 12.5215C10.9565 13.0978 11.4237 13.565 12 13.565Z" fill="#A2001D"/>
<path d="M10.4348 9.91309H13.5652L12 11.4783L10.4348 9.91309Z" fill="#6DA544"/>
<path d="M11.4783 10.9565H12.5218V14.087H11.4783V10.9565Z" fill="#FFDA44"/>
<path d="M13.6695 13.7739H10.3304L7.82611 15.1305H16.1739L13.6695 13.7739Z" fill="#6DA544"/>
</g>
<defs>
<clipPath id="clip0_1_2352">
<rect width="24" height="24" fill="white"/>
</clipPath>
</defs>
</svg>
