<svg width="24" height="24" viewBox="0 0 24 24" fill="none" xmlns="http://www.w3.org/2000/svg">
<g clip-path="url(#clip0_1_2363)">
<path d="M12 24C18.6274 24 24 18.6274 24 12C24 5.37258 18.6274 0 12 0C5.37258 0 0 5.37258 0 12C0 18.6274 5.37258 24 12 24Z" fill="#D80027"/>
<path d="M16.4431 8.04441L15.595 11.0712L13.0501 10.6013L11.412 7.22461L6.98672 8.79497L6.63773 7.81153L5.47992 7.66889L6.35231 10.1274L9.39773 9.34861L10.2632 11.7875L8.15793 14.8944L11.7306 17.9416L11.0535 18.7355L11.5088 19.8096L13.2018 17.8247L11.0046 15.5768L12.684 13.6079L16.4273 13.8776L17.28 9.25992L18.3061 9.44944L19.0087 8.51803L16.4431 8.04441Z" fill="#F0F0F0"/>
</g>
<defs>
<clipPath id="clip0_1_2363">
<rect width="24" height="24" fill="white"/>
</clipPath>
</defs>
</svg>
