<svg width="24" height="24" viewBox="0 0 24 24" fill="none" xmlns="http://www.w3.org/2000/svg">
<g clip-path="url(#clip0_1_2361)">
<path d="M12 24C18.6274 24 24 18.6274 24 12C24 5.37258 18.6274 0 12 0C5.37258 0 0 5.37258 0 12C0 18.6274 5.37258 24 12 24Z" fill="#F0F0F0"/>
<path d="M12 0C6.84043 0 2.44191 3.2565 0.746399 7.82611H23.2537C21.5581 3.2565 17.1596 0 12 0V0Z" fill="#A2001D"/>
<path d="M12 23.9999C17.1596 23.9999 21.5581 20.7434 23.2536 16.1738H0.746399C2.44191 20.7434 6.84043 23.9999 12 23.9999Z" fill="black"/>
<path d="M9.13045 11.2175C9.12389 11.2175 9.11747 11.2179 9.1109 11.218V11.2175H6.81698C6.93328 10.7681 7.341 10.4348 7.82611 10.4348V8.86963C6.38765 8.86963 5.21742 10.0399 5.21742 11.4783V12.7566V12.7827H9.1109H9.13045C9.27431 12.7827 9.39131 12.8998 9.39131 13.0436V13.5653H4.17389V15.1305H10.9565V13.0435C10.9565 12.0366 10.1373 11.2175 9.13045 11.2175V11.2175Z" fill="#496E2D"/>
<path d="M13.0435 13.5653V8.86963H11.4783V15.1305H14.087V13.5653H13.0435Z" fill="#496E2D"/>
<path d="M18.2608 13.5653V8.86963H16.6956V13.5653H16.1739V12.0001H14.6087V15.1306H19.3043V13.5653H18.2608Z" fill="#496E2D"/>
</g>
<defs>
<clipPath id="clip0_1_2361">
<rect width="24" height="24" fill="white"/>
</clipPath>
</defs>
</svg>
