<svg width="24" height="24" viewBox="0 0 24 24" fill="none" xmlns="http://www.w3.org/2000/svg">
<g clip-path="url(#clip0_1_2290)">
<path d="M0 11.9999C0 14.0788 0.528891 16.0342 1.45908 17.739L12 18.7825L22.5409 17.739C23.4711 16.0342 24 14.0788 24 11.9999C24 9.921 23.4711 7.96566 22.5409 6.26077L12 5.21729L1.45908 6.26077C0.528891 7.96566 0 9.921 0 11.9999H0Z" fill="#D80027"/>
<path d="M1.45911 6.26086H22.5409C20.5057 2.53073 16.5485 0 12 0C7.45151 0 3.49437 2.53073 1.45911 6.26086V6.26086Z" fill="#0052B4"/>
<path d="M12 24.0001C16.5485 24.0001 20.5057 21.4694 22.5409 17.7393H1.45911C3.49437 21.4694 7.45151 24.0001 12 24.0001Z" fill="#0052B4"/>
<path d="M16.1739 14.3481V12.7829H15.1305V10.6959L14.087 9.6524L13.0435 10.6959V8.60891L12 7.56543L10.9565 8.60891V10.6959L9.91306 9.6524L8.86958 10.6959V12.7829H7.82614V14.3481H6.78265V15.9133H17.2174V14.3481H16.1739Z" fill="#F0F0F0"/>
</g>
<defs>
<clipPath id="clip0_1_2290">
<rect width="24" height="24" fill="white"/>
</clipPath>
</defs>
</svg>
