<svg width="24" height="24" viewBox="0 0 24 24" fill="none" xmlns="http://www.w3.org/2000/svg">
<g clip-path="url(#clip0_246_4646)">
<path d="M12 24C18.6274 24 24 18.6274 24 12C24 5.37258 18.6274 0 12 0C5.37258 0 0 5.37258 0 12C0 18.6274 5.37258 24 12 24Z" fill="#F0F0F0"/>
<path d="M12.0002 0C7.24267 0 3.13192 2.76867 1.19092 6.78263H22.8094C20.8685 2.76867 16.7577 0 12.0002 0Z" fill="#D80027"/>
<path d="M12.0002 24C16.7577 24 20.8685 21.2313 22.8095 17.2174H1.19092C3.13192 21.2313 7.24267 24 12.0002 24Z" fill="#D80027"/>
<path d="M15.1305 14.087L12.0001 8.34784L8.86963 14.087H11.2175V15.6522H12.7827V14.087H15.1305Z" fill="#6DA544"/>
</g>
<defs>
<clipPath id="clip0_246_4646">
<rect width="24" height="24" fill="white"/>
</clipPath>
</defs>
</svg>
