<svg width="24" height="24" viewBox="0 0 24 24" fill="none" xmlns="http://www.w3.org/2000/svg">
<g clip-path="url(#clip0_246_4744)">
<path d="M12 24C18.6274 24 24 18.6274 24 12C24 9.98611 23.5031 8.08847 22.6265 6.42188L11.9859 12.0141L17.5781 1.37353C15.9115 0.496875 14.0139 0 12 0C5.37262 0 0 5.37262 0 12C0 15.3137 1.34316 18.3137 3.51469 20.4853C5.68627 22.6569 8.68627 24 12 24Z" fill="#0052B4"/>
<path d="M22.6136 6.43496C22.0643 5.38946 21.3502 4.40785 20.4711 3.52876C19.592 2.64967 18.6105 1.93553 17.5649 1.38629L3.50049 20.4993L22.6136 6.43496Z" fill="#F0F0F0"/>
<path d="M3.50049 20.4993L22.6136 6.43495C22.0643 5.38945 21.3502 4.40784 20.4711 3.52875L3.50049 20.4993Z" fill="#FF9811"/>
<path d="M10.4208 7.03697L8.95534 7.72631L9.73576 9.14569L8.14436 8.84123L7.9427 10.4489L6.8342 9.26644L5.7257 10.4489L5.52414 8.84123L3.93273 9.14559L4.71306 7.72626L3.24756 7.03697L4.71311 6.34758L3.93273 4.9283L5.52404 5.23266L5.72575 3.62503L6.8342 4.80745L7.9427 3.62503L8.14436 5.23266L9.73581 4.9283L8.95539 6.34762L10.4208 7.03697Z" fill="#F0F0F0"/>
</g>
<defs>
<clipPath id="clip0_246_4744">
<rect width="24" height="24" fill="white"/>
</clipPath>
</defs>
</svg>
