<svg width="24" height="24" viewBox="0 0 24 24" fill="none" xmlns="http://www.w3.org/2000/svg">
<g clip-path="url(#clip0_246_4859)">
<path d="M23.2536 16.1739C23.736 14.874 24 13.4678 24 12C24 10.5322 23.736 9.12605 23.2536 7.82611L12 6.78262L0.746391 7.82611C0.264047 9.12605 0 10.5322 0 12C0 13.4678 0.264047 14.874 0.746391 16.1739L12 17.2174L23.2536 16.1739Z" fill="#6DA544"/>
<path d="M23.2538 7.82611C21.5583 3.2565 17.1598 0 12.0002 0C6.84061 0 2.4421 3.2565 0.746582 7.82611H23.2538Z" fill="#FFDA44"/>
<path d="M12.0002 24C17.1598 24 21.5583 20.7435 23.2538 16.1739H0.746582C2.4421 20.7435 6.84061 24 12.0002 24Z" fill="#D80027"/>
<path d="M20.2287 10.1525H13.9424L11.9999 4.17389L10.0573 10.1525H3.771L8.8567 13.8474L6.91411 19.8261L11.9999 16.1739L17.0856 19.8261L15.1431 13.8474L20.2287 10.1525Z" fill="#F0F0F0"/>
</g>
<defs>
<clipPath id="clip0_246_4859">
<rect width="24" height="24" fill="white"/>
</clipPath>
</defs>
</svg>
