<svg width="24" height="24" viewBox="0 0 24 24" fill="none" xmlns="http://www.w3.org/2000/svg">
<g clip-path="url(#clip0_246_4716)">
<path d="M0 12C0 13.4679 0.264047 14.8739 0.746391 16.1739L12 16.6957L23.2536 16.1739C23.736 14.8739 24 13.4679 24 12C24 10.5322 23.736 9.1261 23.2536 7.82612L12 7.30435L0.746391 7.82607C0.264047 9.1261 0 10.5322 0 12H0Z" fill="#D80027"/>
<path d="M12.0002 0C6.84061 0 2.4421 3.2565 0.746582 7.82611H23.2538C21.5583 3.2565 17.1598 0 12.0002 0Z" fill="black"/>
<path d="M23.2538 16.1739H0.746582C2.4421 20.7435 6.84061 24 12.0002 24C17.1598 24 21.5583 20.7435 23.2538 16.1739Z" fill="#496E2D"/>
<path d="M15.5869 5.73915L14.1214 5.0498L14.9018 3.63048L13.3104 3.93493L13.1087 2.32721L12.0002 3.50963L10.8918 2.32721L10.6901 3.93493L9.0987 3.63048L9.87912 5.0498L8.41357 5.73915H15.5869Z" fill="#D80027"/>
</g>
<defs>
<clipPath id="clip0_246_4716">
<rect width="24" height="24" fill="white"/>
</clipPath>
</defs>
</svg>
