<svg width="24" height="24" viewBox="0 0 24 24" fill="none" xmlns="http://www.w3.org/2000/svg">
<g clip-path="url(#clip0_246_4721)">
<path d="M12 24C18.6274 24 24 18.6274 24 12C24 5.37258 18.6274 0 12 0C5.37258 0 0 5.37258 0 12C0 18.6274 5.37258 24 12 24Z" fill="#F0F0F0"/>
<path d="M11.4785 12H24.0002C24.0002 10.9169 23.8559 9.86769 23.5868 8.86954H11.4785V12Z" fill="#D80027"/>
<path d="M11.4785 5.73913H22.239C21.5044 4.54044 20.5652 3.48092 19.4701 2.60867H11.4785V5.73913Z" fill="#D80027"/>
<path d="M12.0001 24C14.8243 24 17.4201 23.0239 19.47 21.3913H4.53027C6.58016 23.0239 9.17596 24 12.0001 24Z" fill="#D80027"/>
<path d="M1.76146 18.2609H22.2389C22.8286 17.2986 23.2859 16.2467 23.5868 15.1304H0.413574C0.714371 16.2467 1.17173 17.2986 1.76146 18.2609Z" fill="#D80027"/>
<path d="M12 12C12 5.37262 12 4.59131 12 0C5.37262 0 0 5.37262 0 12H12Z" fill="#0052B4"/>
<path d="M7.97952 10.2717C6.34068 10.2717 5.01214 8.94314 5.01214 7.30435C5.01214 5.66555 6.34072 4.33697 7.97952 4.33697C8.4905 4.33697 8.9713 4.46621 9.39107 4.69364C8.73257 4.04972 7.832 3.65222 6.83821 3.65222C4.82122 3.65222 3.18604 5.28736 3.18604 7.30439C3.18604 9.32142 4.82122 10.9566 6.83821 10.9566C7.832 10.9566 8.73257 10.5591 9.39107 9.91514C8.9713 10.1425 8.49055 10.2717 7.97952 10.2717Z" fill="#FFDA44"/>
<path d="M8.81549 5.21738L9.34232 6.31903L10.5321 6.04416L9.99927 7.14286L10.9561 7.90163L9.7648 8.17017L9.76813 9.39131L8.81549 8.62735L7.8628 9.39131L7.86609 8.17017L6.6748 7.90163L7.63162 7.14286L7.09879 6.04416L8.28862 6.31903L8.81549 5.21738Z" fill="#FFDA44"/>
</g>
<defs>
<clipPath id="clip0_246_4721">
<rect width="24" height="24" fill="white"/>
</clipPath>
</defs>
</svg>
