<svg width="24" height="24" viewBox="0 0 24 24" fill="none" xmlns="http://www.w3.org/2000/svg">
<g clip-path="url(#clip0_246_4850)">
<path d="M12 24C18.6274 24 24 18.6274 24 12C24 5.37258 18.6274 0 12 0C5.37258 0 0 5.37258 0 12C0 18.6274 5.37258 24 12 24Z" fill="#F0F0F0"/>
<path d="M6.48617 16.6956L3.51514 20.4849C5.68657 22.6566 8.68625 24 12 24C16.9608 24 21.2177 20.9893 23.0452 16.6956H6.48617Z" fill="#FFDA44"/>
<path d="M23.0639 7.3478C21.2466 3.03103 16.9776 0 12 0C8.68625 0 5.68657 1.34339 3.51514 3.51511L6.52029 7.3478H23.0639Z" fill="#496E2D"/>
<path d="M2.60889 8.82608V15.1304H23.5869C23.856 14.1324 24.0002 13.0831 24.0002 12C24.0002 10.9011 23.8522 9.83708 23.5755 8.82608H2.60889Z" fill="black"/>
<path d="M3.51471 3.51468C-1.17157 8.20096 -1.17157 15.799 3.51471 20.4853C5.45126 18.5488 7.31374 16.6863 12 12L3.51471 3.51468Z" fill="#A2001D"/>
<path d="M4.85695 8.86954L5.6339 11.2609H8.14855L6.11427 12.739L6.89118 15.1304L4.85695 13.6524L2.82262 15.1304L3.59971 12.739L1.56543 11.2609H4.0799L4.85695 8.86954Z" fill="#FFDA44"/>
<path d="M2.58301 12H7.13101V14.087H2.58301V12Z" fill="#F0F0F0"/>
<path d="M7.99203 9.60744L7.25418 8.86954L4.85661 11.2671L2.45905 8.86954L1.72119 9.60744L4.12086 12.0029L1.72119 14.4026L2.45905 15.1304L4.85661 12.7372L7.25418 15.1304L7.99203 14.4026L5.59236 12.0029L7.99203 9.60744Z" fill="black"/>
</g>
<defs>
<clipPath id="clip0_246_4850">
<rect width="24" height="24" fill="white"/>
</clipPath>
</defs>
</svg>
