<svg width="24" height="24" viewBox="0 0 24 24" fill="none" xmlns="http://www.w3.org/2000/svg">
<g clip-path="url(#clip0_246_4904)">
<path d="M24 12C24 18.6274 18.6274 24 12 24C5.37262 24 0 18.6274 0 12C0 12.0029 12 0.0013125 12 0C18.6274 0 24 5.37262 24 12Z" fill="#0052B4"/>
<path d="M11.9678 12H11.9999C11.9999 11.9892 11.9999 11.9787 11.9999 11.9679C11.9892 11.9786 11.9785 11.9893 11.9678 12Z" fill="#F0F0F0"/>
<path d="M12 6.26086C12 4.14937 12 2.76586 12 0H11.998C5.3715 0.001125 0 5.37323 0 12H6.26086V8.47448L9.78642 12H11.9679C11.9786 11.9893 11.9894 11.9786 12 11.9679C12 11.1594 12 10.4381 12 9.78647L8.47444 6.26086H12Z" fill="#F0F0F0"/>
<path d="M6.07124 1.56522C4.19441 2.63392 2.63413 4.1942 1.56543 6.07103V12H4.69588V4.69576V4.69567H12.0002C12.0002 3.70834 12.0002 2.76775 12.0002 1.56522H6.07124Z" fill="#D80027"/>
<path d="M12.0003 10.5243L7.7369 6.26093C7.7369 6.26093 6.26123 6.26102 6.26123 6.26093V6.26102L12.0003 12H12.0003C12.0003 12 12.0003 10.9825 12.0003 10.5243Z" fill="#D80027"/>
<path d="M20.7813 8.90433L21.0403 9.70148H21.8785L21.2004 10.1941L21.4594 10.9912L20.7813 10.4986L20.1032 10.9912L20.3622 10.1941L19.6841 9.70148H20.5223L20.7813 8.90433Z" fill="#D80027"/>
<path d="M17.7849 14.6434L18.1735 15.8392H19.4307L18.4135 16.5782L18.8021 17.7739L17.7849 17.0349L16.7678 17.7739L17.1563 16.5782L16.1392 15.8392H17.3964L17.7849 14.6434Z" fill="#D80027"/>
<path d="M17.8983 5.25217L18.2221 6.24868H19.2698L18.4221 6.86439L18.7459 7.86085L17.8983 7.24496L17.0507 7.86085L17.3744 6.86439L16.5269 6.24868H17.5745L17.8983 5.25217Z" fill="#D80027"/>
<path d="M15.0154 8.86957L15.4039 10.0653H16.6612L15.644 10.8043L16.0326 12L15.0154 11.261L13.9982 12L14.3868 10.8043L13.3696 10.0653H14.6269L15.0154 8.86957Z" fill="#D80027"/>
</g>
<defs>
<clipPath id="clip0_246_4904">
<rect width="24" height="24" fill="white"/>
</clipPath>
</defs>
</svg>
