<svg width="24" height="24" viewBox="0 0 24 24" fill="none" xmlns="http://www.w3.org/2000/svg">
<g clip-path="url(#clip0_246_5114)">
<path d="M16.174 0.746344C14.8739 0.264047 13.4679 6.23894e-09 12.0001 6.23894e-09C10.5322 -4.68688e-05 9.12618 0.264047 7.8262 0.746344L6.78271 12L7.8262 23.2536C9.12614 23.736 10.5322 24 12.0001 24C13.4679 24 14.874 23.736 16.174 23.2536L17.2174 12L16.174 0.746344Z" fill="#FFDA44"/>
<path d="M23.9999 12C23.9999 6.84048 20.7434 2.44187 16.1738 0.746399V23.2537C20.7434 21.5581 23.9999 17.1596 23.9999 12Z" fill="#D80027"/>
<path d="M0 11.9999C0 17.1596 3.2565 21.558 7.82602 23.2536L7.82606 0.746429C3.2565 2.4419 0 6.84037 0 11.9999H0Z" fill="#0052B4"/>
</g>
<defs>
<clipPath id="clip0_246_5114">
<rect width="24" height="24" fill="white"/>
</clipPath>
</defs>
</svg>
