<svg width="24" height="24" viewBox="0 0 24 24" fill="none" xmlns="http://www.w3.org/2000/svg">
<g clip-path="url(#clip0_247_6263)">
<path d="M1.19072 6.78262C0.427875 8.36025 0 10.1302 0 12C0 13.8698 0.427875 15.6397 1.19072 17.2174L12 18.2609L22.8093 17.2174C23.5721 15.6397 24 13.8698 24 12C24 10.1302 23.5721 8.36025 22.8093 6.78262L12 5.73914L1.19072 6.78262Z" fill="#F0F0F0"/>
<path d="M1.19116 17.2173C3.13212 21.2313 7.24254 24 12 24C16.7575 24 20.868 21.2313 22.8089 17.2173H1.19116Z" fill="#6DA544"/>
<path d="M1.19116 6.78263H22.8089C20.868 2.76872 16.7575 0 12 0C7.24254 0 3.13212 2.76872 1.19116 6.78263Z" fill="#D80027"/>
<path d="M9.91309 15.1305H14.087V13.3565L13.2522 13.7739L12.0001 12.5217L10.7479 13.7739L9.91309 13.3565V15.1305Z" fill="#FFDA44"/>
<path d="M7.52504 13.0435L7.71934 13.6413H8.34793L7.83934 14.0108L8.03363 14.6087L7.52504 14.2392L7.01645 14.6087L7.21074 14.0108L6.70215 13.6413H7.33074L7.52504 13.0435Z" fill="#FFDA44"/>
<path d="M8.12733 10.9565L8.32163 11.5544H8.95022L8.44163 11.9239L8.63588 12.5217L8.12733 12.1523L7.61874 12.5217L7.81304 11.9239L7.30444 11.5544H7.93304L8.12733 10.9565Z" fill="#FFDA44"/>
<path d="M9.84926 9.3913L10.0436 9.98914H10.6721L10.1636 10.3587L10.3578 10.9565L9.84926 10.587L9.34071 10.9565L9.53496 10.3587L9.02637 9.98914H9.65501L9.84926 9.3913Z" fill="#FFDA44"/>
<path d="M16.4752 13.0435L16.2809 13.6413H15.6523L16.1609 14.0108L15.9666 14.6087L16.4752 14.2392L16.9838 14.6087L16.7895 14.0108L17.2981 13.6413H16.6695L16.4752 13.0435Z" fill="#FFDA44"/>
<path d="M15.8729 10.9565L15.6786 11.5544H15.05L15.5586 11.9239L15.3643 12.5217L15.8729 12.1523L16.3815 12.5217L16.1872 11.9239L16.6958 11.5544H16.0672L15.8729 10.9565Z" fill="#FFDA44"/>
<path d="M14.151 9.3913L13.9567 9.98914H13.3281L13.8366 10.3587L13.6424 10.9565L14.151 10.587L14.6595 10.9565L14.4653 10.3587L14.9738 9.98914H14.3452L14.151 9.3913Z" fill="#FFDA44"/>
<path d="M12.0001 8.60864L12.1944 9.20649H12.823L12.3144 9.576L12.5087 10.1738L12.0001 9.80438L11.4915 10.1738L11.6858 9.576L11.1772 9.20649H11.8058L12.0001 8.60864Z" fill="#FFDA44"/>
</g>
<defs>
<clipPath id="clip0_247_6263">
<rect width="24" height="24" fill="white"/>
</clipPath>
</defs>
</svg>
