<svg width="24" height="24" viewBox="0 0 24 24" fill="none" xmlns="http://www.w3.org/2000/svg">
<g clip-path="url(#clip0_246_5360)">
<path d="M17.739 1.45908C16.0342 0.528891 14.0788 0 11.9999 0C9.921 0 7.96566 0.528891 6.26077 1.45908L5.21729 12L6.26077 22.5409C7.96566 23.4711 9.921 24 11.9999 24C14.0788 24 16.0342 23.4711 17.739 22.5409L18.7825 12L17.739 1.45908Z" fill="#FFDA44"/>
<path d="M6.26086 22.5408V1.45905C2.53073 3.49436 0 7.4515 0 12C0 16.5485 2.53073 20.5057 6.26086 22.5408Z" fill="#338AF3"/>
<path d="M24.0001 12C24.0001 7.4515 21.4694 3.49436 17.7393 1.45905V22.5408C21.4694 20.5057 24.0001 16.5485 24.0001 12Z" fill="#6DA544"/>
<path d="M9.39122 15.1305L7.3042 12L9.39117 8.86957L11.4782 12L9.39122 15.1305Z" fill="#6DA544"/>
<path d="M14.6085 15.1305L12.5215 12L14.6085 8.86957L16.6954 12L14.6085 15.1305Z" fill="#6DA544"/>
<path d="M12.0001 19.3044L9.91309 16.1739L12.0001 13.0435L14.087 16.1739L12.0001 19.3044Z" fill="#6DA544"/>
</g>
<defs>
<clipPath id="clip0_246_5360">
<rect width="24" height="24" fill="white"/>
</clipPath>
</defs>
</svg>
