<svg width="24" height="24" viewBox="0 0 24 24" fill="none" xmlns="http://www.w3.org/2000/svg">
<g clip-path="url(#clip0_246_3913)">
<path d="M24 12C24 18.6274 18.6274 24 12 24C5.37262 24 0 18.6274 0 12C0 12.0029 12 0.0013125 12 0C18.6274 0 24 5.37262 24 12Z" fill="#0052B4"/>
<path d="M11.9678 12H11.9999C11.9999 11.9892 11.9999 11.9787 11.9999 11.9679C11.9892 11.9786 11.9785 11.9893 11.9678 12Z" fill="#F0F0F0"/>
<path d="M12 6.26086C12 4.14937 12 2.76586 12 0H11.998C5.37145 0.001125 0 5.37323 0 12H6.26086V8.47448L9.78638 12H11.9679C11.9786 11.9893 11.9893 11.9786 12 11.9679C12 11.1594 12 10.4381 12 9.78647L8.47444 6.26086H12Z" fill="#F0F0F0"/>
<path d="M6.07124 1.5652C4.19441 2.6339 2.63409 4.19419 1.56543 6.07101V12H4.69588V4.69575V4.69565H12.0002C12.0002 3.70833 12.0002 2.76773 12.0002 1.5652H6.07124Z" fill="#D80027"/>
<path d="M17.2175 12L13.9741 15.2434C14.582 16.4158 15.8058 17.2174 17.2175 17.2174C18.6293 17.2174 19.8531 16.4158 20.461 15.2434L17.2175 12Z" fill="#FFDA44"/>
<path d="M11.9999 10.5243L7.73637 6.26091H6.26074V6.261L11.9998 12H11.9999C11.9999 12 11.9999 10.9825 11.9999 10.5243Z" fill="#D80027"/>
<path d="M13.5654 6.26086V11.9999V12C13.5655 14.7956 17.2176 15.6522 17.2176 15.6522C17.2176 15.6522 20.8697 14.7956 20.8698 12V11.9999V6.26086H13.5654Z" fill="#6DA544"/>
<path d="M16.4346 8.86954H17.9998V13.0434H16.4346V8.86954Z" fill="#F0F0F0"/>
<path d="M17.2172 9.65217C17.6494 9.65217 17.9998 9.30178 17.9998 8.86955C17.9998 8.43731 17.6494 8.08692 17.2172 8.08692C16.785 8.08692 16.4346 8.43731 16.4346 8.86955C16.4346 9.30178 16.785 9.65217 17.2172 9.65217Z" fill="#A2001D"/>
<path d="M14.6089 7.30434H15.6524V8.34783H14.6089V7.30434Z" fill="#FFDA44"/>
<path d="M14.6089 9.65217H15.6524V10.6957H14.6089V9.65217Z" fill="#FFDA44"/>
<path d="M14.6089 12H15.6524V13.0435H14.6089V12Z" fill="#FFDA44"/>
<path d="M18.7827 7.30434H19.8262V8.34783H18.7827V7.30434Z" fill="#FFDA44"/>
<path d="M18.7827 9.65217H19.8262V10.6957H18.7827V9.65217Z" fill="#FFDA44"/>
<path d="M18.7827 12H19.8262V13.0435H18.7827V12Z" fill="#FFDA44"/>
</g>
<defs>
<clipPath id="clip0_246_3913">
<rect width="24" height="24" fill="white"/>
</clipPath>
</defs>
</svg>
