<svg width="24" height="24" viewBox="0 0 24 24" fill="none" xmlns="http://www.w3.org/2000/svg">
<g clip-path="url(#clip0_2_1410)">
<path d="M18.2021 15.6026L5.31372 23.2558L22.0018 22.1233L23.2871 5.29614L18.2021 15.6026Z" fill="url(#paint0_linear_2_1410)"/>
<path d="M22.029 22.1118L20.5948 12.212L16.6879 17.3709L22.029 22.1118Z" fill="url(#paint1_linear_2_1410)"/>
<path d="M22.0485 22.1119L11.5403 21.2871L5.36963 23.2343L22.0485 22.1119Z" fill="url(#paint2_linear_2_1410)"/>
<path d="M5.38448 23.2365L8.00966 14.6365L2.23279 15.8717L5.38448 23.2365Z" fill="url(#paint3_linear_2_1410)"/>
<path d="M16.6868 17.3995L14.2714 7.93823L7.35901 14.4179L16.6868 17.3995Z" fill="url(#paint4_linear_2_1410)"/>
<path d="M22.7391 8.07137L16.2049 2.73474L14.3854 8.61718L22.7391 8.07137Z" fill="url(#paint5_linear_2_1410)"/>
<path d="M19.6833 0.831967L15.8401 2.95578L13.4158 0.803467L19.6833 0.831967Z" fill="url(#paint6_linear_2_1410)"/>
<path d="M0.712891 18.7564L2.32277 15.8203L1.02039 12.3225L0.712891 18.7564Z" fill="url(#paint7_linear_2_1410)"/>
<path d="M0.93396 12.212L2.24402 15.9285L7.93746 14.6512L14.4375 8.61033L16.2718 2.78377L13.3838 0.744141L8.47315 2.58202C6.9259 4.02108 3.92384 6.86827 3.81565 6.92189C3.70821 6.97645 1.83283 10.521 0.93396 12.212Z" fill="white"/>
<path d="M5.53484 5.53519C8.88771 2.21081 13.2105 0.246377 14.8695 1.92019C16.5276 3.59381 14.7694 7.66144 11.4161 10.9849C8.0629 14.3083 3.79371 16.3809 2.13621 14.7071C0.477024 13.0346 2.18159 8.85881 5.53484 5.53519Z" fill="url(#paint8_linear_2_1410)"/>
<path d="M5.3844 23.233L7.98877 14.6057L16.6391 17.3845C13.5116 20.3173 10.0329 22.7966 5.3844 23.233Z" fill="url(#paint9_linear_2_1410)"/>
<path d="M14.4491 8.59326L16.6698 17.3891C19.2825 14.6422 21.6272 11.6889 22.7754 8.03601L14.4491 8.59326Z" fill="url(#paint10_linear_2_1410)"/>
<path d="M22.7528 8.08073C23.6415 5.39855 23.8465 1.55104 19.6558 0.83667L16.2173 2.73604L22.7528 8.08073Z" fill="url(#paint11_linear_2_1410)"/>
<path d="M0.712891 18.7177C0.835891 23.1442 4.02958 23.21 5.39008 23.249L2.24777 15.9103L0.712891 18.7177Z" fill="#9E1209"/>
<path d="M14.4615 8.60695C16.4693 9.84089 20.5152 12.3191 20.5971 12.3646C20.7246 12.4365 22.3416 9.63802 22.7085 8.05664L14.4615 8.60695Z" fill="url(#paint12_radial_2_1410)"/>
<path d="M7.98547 14.6057L11.4673 21.3235C13.5261 20.2069 15.1384 18.8464 16.615 17.3891L7.98547 14.6057Z" fill="url(#paint13_radial_2_1410)"/>
<path d="M2.23391 15.9196L1.7406 21.7941C2.67135 23.0656 3.95198 23.1762 5.2956 23.077C4.3236 20.6582 2.38223 15.8215 2.23391 15.9196Z" fill="url(#paint14_linear_2_1410)"/>
<path d="M16.197 2.7506L23.1141 3.72128C22.7449 2.15697 21.6113 1.14747 19.6791 0.831909L16.197 2.7506Z" fill="url(#paint15_linear_2_1410)"/>
</g>
<defs>
<linearGradient id="paint0_linear_2_1410" x1="20.5462" y1="25.3031" x2="15.7841" y2="16.8953" gradientUnits="userSpaceOnUse">
<stop stop-color="#FB7655"/>
<stop offset="0.41" stop-color="#E42B1E"/>
<stop offset="0.99" stop-color="#990000"/>
<stop offset="1" stop-color="#990000"/>
</linearGradient>
<linearGradient id="paint1_linear_2_1410" x1="22.9183" y1="18.24" x2="16.7809" y2="14.1215" gradientUnits="userSpaceOnUse">
<stop stop-color="#871101"/>
<stop offset="0.99" stop-color="#911209"/>
<stop offset="1" stop-color="#911209"/>
</linearGradient>
<linearGradient id="paint2_linear_2_1410" x1="18.0079" y1="25.5582" x2="11.8706" y2="21.4397" gradientUnits="userSpaceOnUse">
<stop stop-color="#871101"/>
<stop offset="0.99" stop-color="#911209"/>
<stop offset="1" stop-color="#911209"/>
</linearGradient>
<linearGradient id="paint3_linear_2_1410" x1="5.12198" y1="15.2584" x2="6.07335" y2="21.4418" gradientUnits="userSpaceOnUse">
<stop stop-color="white"/>
<stop offset="0.23" stop-color="#E57252"/>
<stop offset="0.46" stop-color="#DE3B20"/>
<stop offset="0.99" stop-color="#A60003"/>
<stop offset="1" stop-color="#A60003"/>
</linearGradient>
<linearGradient id="paint4_linear_2_1410" x1="11.6661" y1="9.48511" x2="12.0167" y2="15.7956" gradientUnits="userSpaceOnUse">
<stop stop-color="white"/>
<stop offset="0.23" stop-color="#E4714E"/>
<stop offset="0.56" stop-color="#BE1A0D"/>
<stop offset="0.99" stop-color="#A80D00"/>
<stop offset="1" stop-color="#A80D00"/>
</linearGradient>
<linearGradient id="paint5_linear_2_1410" x1="17.4733" y1="3.65199" x2="18.5229" y2="8.17487" gradientUnits="userSpaceOnUse">
<stop stop-color="white"/>
<stop offset="0.18" stop-color="#E46342"/>
<stop offset="0.4" stop-color="#C82410"/>
<stop offset="0.99" stop-color="#A80D00"/>
<stop offset="1" stop-color="#A80D00"/>
</linearGradient>
<linearGradient id="paint6_linear_2_1410" x1="14.2687" y1="2.05915" x2="18.791" y2="-0.201908" gradientUnits="userSpaceOnUse">
<stop stop-color="white"/>
<stop offset="0.54" stop-color="#C81F11"/>
<stop offset="0.99" stop-color="#BF0905"/>
<stop offset="1" stop-color="#BF0905"/>
</linearGradient>
<linearGradient id="paint7_linear_2_1410" x1="1.15764" y1="13.6823" x2="1.53002" y2="17.4088" gradientUnits="userSpaceOnUse">
<stop stop-color="white"/>
<stop offset="0.31" stop-color="#DE4024"/>
<stop offset="0.99" stop-color="#BF190B"/>
<stop offset="1" stop-color="#BF190B"/>
</linearGradient>
<linearGradient id="paint8_linear_2_1410" x1="-1.40135" y1="18.4161" x2="16.096" y2="0.42394" gradientUnits="userSpaceOnUse">
<stop stop-color="#BD0012"/>
<stop offset="0.07" stop-color="white"/>
<stop offset="0.17" stop-color="white"/>
<stop offset="0.27" stop-color="#C82F1C"/>
<stop offset="0.33" stop-color="#820C01"/>
<stop offset="0.46" stop-color="#A31601"/>
<stop offset="0.72" stop-color="#B31301"/>
<stop offset="0.99" stop-color="#E82609"/>
<stop offset="1" stop-color="#E82609"/>
</linearGradient>
<linearGradient id="paint9_linear_2_1410" x1="12.0013" y1="20.2309" x2="6.73084" y2="18.9302" gradientUnits="userSpaceOnUse">
<stop stop-color="#8C0C01"/>
<stop offset="0.54" stop-color="#990C00"/>
<stop offset="0.99" stop-color="#A80D0E"/>
<stop offset="1" stop-color="#A80D0E"/>
</linearGradient>
<linearGradient id="paint10_linear_2_1410" x1="21.0534" y1="13.9055" x2="16.3713" y2="9.70926" gradientUnits="userSpaceOnUse">
<stop stop-color="#7E110B"/>
<stop offset="0.99" stop-color="#9E0C00"/>
<stop offset="1" stop-color="#9E0C00"/>
</linearGradient>
<linearGradient id="paint11_linear_2_1410" x1="22.7736" y1="6.20611" x2="20.4415" y2="3.71273" gradientUnits="userSpaceOnUse">
<stop stop-color="#79130D"/>
<stop offset="0.99" stop-color="#9E120B"/>
<stop offset="1" stop-color="#9E120B"/>
</linearGradient>
<radialGradient id="paint12_radial_2_1410" cx="0" cy="0" r="1" gradientUnits="userSpaceOnUse" gradientTransform="translate(17.1006 9.78952) scale(5.73769)">
<stop stop-color="#A80D00"/>
<stop offset="0.99" stop-color="#7E0E08"/>
<stop offset="1" stop-color="#7E0E08"/>
</radialGradient>
<radialGradient id="paint13_radial_2_1410" cx="0" cy="0" r="1" gradientUnits="userSpaceOnUse" gradientTransform="translate(9.15472 17.3503) scale(7.62731)">
<stop stop-color="#A30C00"/>
<stop offset="0.99" stop-color="#800E08"/>
<stop offset="1" stop-color="#800E08"/>
</radialGradient>
<linearGradient id="paint14_linear_2_1410" x1="3.75173" y1="23.2285" x2="1.85122" y2="16.7802" gradientUnits="userSpaceOnUse">
<stop stop-color="#8B2114"/>
<stop offset="0.43" stop-color="#9E100A"/>
<stop offset="0.99" stop-color="#B3100C"/>
<stop offset="1" stop-color="#B3100C"/>
</linearGradient>
<linearGradient id="paint15_linear_2_1410" x1="18.3323" y1="1.86072" x2="22.593" y2="3.74153" gradientUnits="userSpaceOnUse">
<stop stop-color="#B31000"/>
<stop offset="0.44" stop-color="#910F08"/>
<stop offset="0.99" stop-color="#791C12"/>
<stop offset="1" stop-color="#791C12"/>
</linearGradient>
<clipPath id="clip0_2_1410">
<rect width="24" height="24" fill="white"/>
</clipPath>
</defs>
</svg>
