<svg width="24" height="24" viewBox="0 0 24 24" fill="none" xmlns="http://www.w3.org/2000/svg">
<path fill-rule="evenodd" clip-rule="evenodd" d="M12 18.8213C5.37262 18.8213 0 15.2232 0 10.7845C0 6.34599 5.37262 2.74768 12 2.74768C18.6274 2.74768 24 6.34581 24 10.7845C24 15.223 18.6274 18.8213 12 18.8213ZM13.8368 5.88999C8.79937 5.88999 4.71562 8.34981 4.71562 11.3843C4.71562 14.4186 8.79937 16.8786 13.8368 16.8786C18.8741 16.8786 22.5917 15.1967 22.5917 11.3843C22.5917 7.57299 18.8741 5.88999 13.8368 5.88999Z" fill="url(#paint0_linear_2_1407)"/>
<path fill-rule="evenodd" clip-rule="evenodd" d="M18.2754 15.1936C18.2754 15.1936 19.0018 15.4128 19.4237 15.6264C19.5699 15.7005 19.8234 15.8482 20.0061 16.0425C20.1133 16.156 20.203 16.2849 20.2723 16.425L23.1347 21.2512L18.5083 21.2531L16.3451 17.1907C16.3451 17.1907 15.9021 16.4295 15.6294 16.2088C15.402 16.0246 15.3051 15.9592 15.0802 15.9592H13.9811L13.9819 21.2503L9.88818 21.252V7.73621H18.1089C18.1089 7.73621 21.8533 7.80371 21.8533 11.366C21.8533 14.9283 18.2754 15.1936 18.2754 15.1936ZM16.4947 10.668L14.0164 10.6663L14.0152 12.9646L16.4947 12.9637C16.4947 12.9637 17.643 12.9601 17.643 11.7946C17.643 10.6059 16.4947 10.668 16.4947 10.668Z" fill="url(#paint1_linear_2_1407)"/>
<defs>
<linearGradient id="paint0_linear_2_1407" x1="0.000135372" y1="2.74591" x2="14.8636" y2="24.9385" gradientUnits="userSpaceOnUse">
<stop stop-color="#CBCED0"/>
<stop offset="1" stop-color="#84838B"/>
</linearGradient>
<linearGradient id="paint1_linear_2_1407" x1="9.88818" y1="7.73612" x2="23.4023" y2="20.9796" gradientUnits="userSpaceOnUse">
<stop stop-color="#276DC3"/>
<stop offset="1" stop-color="#165CAA"/>
</linearGradient>
</defs>
</svg>
