<svg width="24" height="24" viewBox="0 0 24 24" fill="none" xmlns="http://www.w3.org/2000/svg">
<path d="M7.82505 9.50005L10.725 12.4C10.925 12.6 11.0209 12.8334 11.0125 13.1C11.0042 13.3667 10.9084 13.6 10.725 13.8C10.525 14 10.2917 14.1042 10.025 14.1125C9.75838 14.1209 9.52505 14.025 9.32505 13.825L4.70005 9.20005C4.60005 9.10005 4.52922 8.99172 4.48755 8.87505C4.44588 8.75838 4.42505 8.63338 4.42505 8.50005C4.42505 8.36672 4.44588 8.24172 4.48755 8.12505C4.52922 8.00838 4.60005 7.90005 4.70005 7.80005L9.27505 3.22505C9.47505 3.02505 9.71255 2.92505 9.98755 2.92505C10.2625 2.92505 10.5 3.02505 10.7 3.22505C10.9 3.42505 11 3.65838 11 3.92505C11 4.19172 10.9 4.42505 10.7 4.62505L7.82505 7.50005H17C17.55 7.50005 18.0209 7.69588 18.4125 8.08755C18.8042 8.47922 19 8.95005 19 9.50005V18.5C19 18.7834 18.9042 19.0209 18.7125 19.2125C18.5209 19.4042 18.2834 19.5 18 19.5C17.7167 19.5 17.4792 19.4042 17.2875 19.2125C17.0959 19.0209 17 18.7834 17 18.5V9.50005H7.82505Z" fill="#000933"/>
</svg>
