<svg width="24" height="24" viewBox="0 0 24 24" fill="none" xmlns="http://www.w3.org/2000/svg">
<path d="M4 20C3.45 20 2.97917 19.8042 2.5875 19.4125C2.19583 19.0208 2 18.55 2 18V6C2 5.45 2.19583 4.97917 2.5875 4.5875C2.97917 4.19583 3.45 4 4 4H20C20.55 4 21.0208 4.19583 21.4125 4.5875C21.8042 4.97917 22 5.45 22 6V18C22 18.55 21.8042 19.0208 21.4125 19.4125C21.0208 19.8042 20.55 20 20 20H4ZM4 18H20V6H4V18ZM7.5 17H16.5C16.9167 17 17.2708 16.8542 17.5625 16.5625C17.8542 16.2708 18 15.9167 18 15.5C18 15.0833 17.8542 14.7292 17.5625 14.4375C17.2708 14.1458 16.9167 14 16.5 14H7.5C7.08333 14 6.72917 14.1458 6.4375 14.4375C6.14583 14.7292 6 15.0833 6 15.5C6 15.9167 6.14583 16.2708 6.4375 16.5625C6.72917 16.8542 7.08333 17 7.5 17Z" fill="#000933"/>
</svg>
