<svg width="24" height="25" viewBox="0 0 24 25" fill="none" xmlns="http://www.w3.org/2000/svg">
<path d="M5 21.5C4.45 21.5 3.97917 21.3042 3.5875 20.9125C3.19583 20.5208 3 20.05 3 19.5V7C3 6.76667 3.0375 6.54583 3.1125 6.3375C3.1875 6.12917 3.3 5.93333 3.45 5.75L4.85 4.05C5 3.86667 5.17083 3.72917 5.3625 3.6375C5.55417 3.54583 5.76667 3.5 6 3.5H18C18.2333 3.5 18.4458 3.54583 18.6375 3.6375C18.8292 3.72917 19 3.86667 19.15 4.05L20.55 5.75C20.7 5.93333 20.8125 6.12917 20.8875 6.3375C20.9625 6.54583 21 6.76667 21 7V19.5C21 20.05 20.8042 20.5208 20.4125 20.9125C20.0208 21.3042 19.55 21.5 19 21.5H5ZM5.4 6.5H18.6L17.75 5.5H6.25L5.4 6.5ZM5 19.5H19V8.5H5V19.5ZM14.55 17.55L18.1 14L14.55 10.45L13.1 11.9L15.2 14L13.1 16.1L14.55 17.55ZM9.5 17.55L10.95 16.1L8.85 14L10.95 11.9L9.5 10.45L5.95 14L9.5 17.55Z" fill="black"/>
</svg>
