<svg width="24" height="24" viewBox="0 0 24 24" fill="none" xmlns="http://www.w3.org/2000/svg">
<path d="M17.0002 22V12C17.2669 12 17.5252 12.0208 17.7752 12.0625C18.0252 12.1042 18.2669 12.1667 18.5002 12.25V21.75C18.2669 21.8333 18.0252 21.8958 17.7752 21.9375C17.5252 21.9792 17.2669 22 17.0002 22ZM14.5002 21.3V12.7C14.7335 12.5667 14.971 12.4458 15.2127 12.3375C15.4544 12.2292 15.7169 12.15 16.0002 12.1V21.9C15.7169 21.85 15.4544 21.7708 15.2127 21.6625C14.971 21.5542 14.7335 21.4333 14.5002 21.3ZM19.5002 21.3V12.7C20.2502 13.1333 20.8544 13.725 21.3127 14.475C21.771 15.225 22.0002 16.0667 22.0002 17C22.0002 17.9333 21.771 18.775 21.3127 19.525C20.8544 20.275 20.2502 20.8667 19.5002 21.3ZM13.5002 20.55C13.0335 20.1 12.6669 19.5708 12.4002 18.9625C12.1335 18.3542 12.0002 17.7 12.0002 17C12.0002 16.3 12.1335 15.6417 12.4002 15.025C12.6669 14.4083 13.0335 13.875 13.5002 13.425V20.55ZM9.2502 22L8.8502 18.8C8.63353 18.7167 8.42936 18.6167 8.2377 18.5C8.04603 18.3833 7.85853 18.2583 7.6752 18.125L4.7002 19.375L1.9502 14.625L4.5252 12.675C4.50853 12.5583 4.5002 12.4458 4.5002 12.3375V11.6625C4.5002 11.5542 4.50853 11.4417 4.5252 11.325L1.9502 9.375L4.7002 4.625L7.6752 5.875C7.85853 5.74167 8.04603 5.61667 8.2377 5.5C8.42936 5.38333 8.63353 5.28333 8.8502 5.2L9.2502 2H14.7502L15.1502 5.2C15.3669 5.28333 15.571 5.38333 15.7627 5.5C15.9544 5.61667 16.1419 5.74167 16.3252 5.875L19.3002 4.625L22.0502 9.375L20.2002 10.775C19.7002 10.525 19.1835 10.3333 18.6502 10.2C18.1169 10.0667 17.5669 10 17.0002 10C16.6669 10 16.346 10.0292 16.0377 10.0875C15.7294 10.1458 15.4169 10.2167 15.1002 10.3C14.7835 9.75 14.3544 9.3125 13.8127 8.9875C13.271 8.6625 12.6835 8.5 12.0502 8.5C11.0835 8.5 10.2585 8.84167 9.5752 9.525C8.89186 10.2083 8.5502 11.0333 8.5502 12C8.5502 12.6333 8.70436 13.2167 9.0127 13.75C9.32103 14.2833 9.74186 14.7083 10.2752 15.025C10.1752 15.3583 10.1044 15.7042 10.0627 16.0625C10.021 16.4208 10.0002 16.775 10.0002 17.125C10.0169 18.0583 10.2044 18.9458 10.5627 19.7875C10.921 20.6292 11.4335 21.3667 12.1002 22H9.2502Z" fill="#1C1B1F"/>
</svg>
