<svg width="24" height="24" viewBox="0 0 24 24" fill="none" xmlns="http://www.w3.org/2000/svg">
<path d="M8.65 20.5L2.5 14.35C2.33333 14.1833 2.20833 14 2.125 13.8C2.04167 13.6 2 13.3916 2 13.175C2 12.9583 2.04167 12.75 2.125 12.55C2.20833 12.35 2.33333 12.1666 2.5 12L8.25 6.27498L6.375 4.39998C6.15833 4.18331 6.04583 3.92498 6.0375 3.62498C6.02917 3.32498 6.13333 3.05831 6.35 2.82498C6.56667 2.59164 6.83333 2.47498 7.15 2.47498C7.46667 2.47498 7.74167 2.59164 7.975 2.82498L17.15 12C17.3167 12.1666 17.4375 12.35 17.5125 12.55C17.5875 12.75 17.625 12.9583 17.625 13.175C17.625 13.3916 17.5875 13.6 17.5125 13.8C17.4375 14 17.3167 14.1833 17.15 14.35L11 20.5C10.8333 20.6666 10.65 20.7916 10.45 20.875C10.25 20.9583 10.0417 21 9.825 21C9.60833 21 9.4 20.9583 9.2 20.875C9 20.7916 8.81667 20.6666 8.65 20.5ZM9.825 7.84998L4.475 13.2H15.175L9.825 7.84998ZM19.8 21C19.2 21 18.6917 20.7875 18.275 20.3625C17.8583 19.9375 17.65 19.4166 17.65 18.8C17.65 18.35 17.7625 17.925 17.9875 17.525C18.2125 17.125 18.4667 16.7333 18.75 16.35L19.225 15.75C19.375 15.5666 19.5708 15.4708 19.8125 15.4625C20.0542 15.4541 20.25 15.5416 20.4 15.725L20.9 16.35C21.1667 16.7333 21.4167 17.125 21.65 17.525C21.8833 17.925 22 18.35 22 18.8C22 19.4166 21.7833 19.9375 21.35 20.3625C20.9167 20.7875 20.4 21 19.8 21Z" fill="black"/>
</svg>
