<svg width="24" height="24" viewBox="0 0 24 24" fill="none" xmlns="http://www.w3.org/2000/svg">
<path d="M11.75 19H11.5C9.13333 19 7.125 18.175 5.475 16.525C3.825 14.875 3 12.8667 3 10.5C3 8.13333 3.825 6.125 5.475 4.475C7.125 2.825 9.13333 2 11.5 2C12.6833 2 13.7875 2.22083 14.8125 2.6625C15.8375 3.10417 16.7375 3.7125 17.5125 4.4875C18.2875 5.2625 18.8958 6.1625 19.3375 7.1875C19.7792 8.2125 20 9.31667 20 10.5C20 12.7333 19.3708 14.8083 18.1125 16.725C16.8542 18.6417 15.2667 20.1417 13.35 21.225C13.1833 21.3083 13.0167 21.3542 12.85 21.3625C12.6833 21.3708 12.5333 21.3333 12.4 21.25C12.2667 21.1667 12.15 21.0583 12.05 20.925C11.95 20.7917 11.8917 20.6333 11.875 20.45L11.75 19ZM14 18.35C15.1833 17.35 16.1458 16.1792 16.8875 14.8375C17.6292 13.4958 18 12.05 18 10.5C18 8.68333 17.3708 7.14583 16.1125 5.8875C14.8542 4.62917 13.3167 4 11.5 4C9.68333 4 8.14583 4.62917 6.8875 5.8875C5.62917 7.14583 5 8.68333 5 10.5C5 12.3167 5.62917 13.8542 6.8875 15.1125C8.14583 16.3708 9.68333 17 11.5 17H14V18.35ZM11.475 15.975C11.7583 15.975 12 15.875 12.2 15.675C12.4 15.475 12.5 15.2333 12.5 14.95C12.5 14.6667 12.4 14.425 12.2 14.225C12 14.025 11.7583 13.925 11.475 13.925C11.1917 13.925 10.95 14.025 10.75 14.225C10.55 14.425 10.45 14.6667 10.45 14.95C10.45 15.2333 10.55 15.475 10.75 15.675C10.95 15.875 11.1917 15.975 11.475 15.975ZM9.3 8.375C9.48333 8.45833 9.66667 8.4625 9.85 8.3875C10.0333 8.3125 10.1833 8.19167 10.3 8.025C10.45 7.825 10.625 7.67083 10.825 7.5625C11.025 7.45417 11.25 7.4 11.5 7.4C11.9 7.4 12.225 7.5125 12.475 7.7375C12.725 7.9625 12.85 8.25 12.85 8.6C12.85 8.81667 12.7875 9.03333 12.6625 9.25C12.5375 9.46667 12.3167 9.73333 12 10.05C11.5833 10.4167 11.275 10.7625 11.075 11.0875C10.875 11.4125 10.775 11.7417 10.775 12.075C10.775 12.275 10.8458 12.4458 10.9875 12.5875C11.1292 12.7292 11.3 12.8 11.5 12.8C11.7 12.8 11.8667 12.725 12 12.575C12.1333 12.425 12.2333 12.25 12.3 12.05C12.3833 11.7667 12.5333 11.5083 12.75 11.275C12.9667 11.0417 13.1667 10.8333 13.35 10.65C13.7 10.3 13.9625 9.95 14.1375 9.6C14.3125 9.25 14.4 8.9 14.4 8.55C14.4 7.78333 14.1375 7.16667 13.6125 6.7C13.0875 6.23333 12.3833 6 11.5 6C10.9667 6 10.475 6.12917 10.025 6.3875C9.575 6.64583 9.20833 7 8.925 7.45C8.825 7.63333 8.8125 7.8125 8.8875 7.9875C8.9625 8.1625 9.1 8.29167 9.3 8.375Z" fill="#000933"/>
</svg>
