<svg width="24" height="24" viewBox="0 0 24 24" fill="none" xmlns="http://www.w3.org/2000/svg">
<path d="M15 22C13.6167 22 12.3167 21.7375 11.1 21.2125C9.88333 20.6875 8.825 19.975 7.925 19.075C7.025 18.175 6.3125 17.1167 5.7875 15.9C5.2625 14.6833 5 13.3833 5 12C5 10.6167 5.2625 9.31667 5.7875 8.1C6.3125 6.88333 7.025 5.825 7.925 4.925C8.825 4.025 9.88333 3.3125 11.1 2.7875C12.3167 2.2625 13.6167 2 15 2C15.5833 2 16.1667 2.05833 16.75 2.175C17.3333 2.29167 17.8917 2.46667 18.425 2.7C18.625 2.78333 18.775 2.9125 18.875 3.0875C18.975 3.2625 19.025 3.44167 19.025 3.625C19.025 3.775 18.9958 3.91667 18.9375 4.05C18.8792 4.18333 18.7833 4.3 18.65 4.4C17.4833 5.31667 16.5833 6.44167 15.95 7.775C15.3167 9.10833 15 10.5167 15 12C15 13.5 15.3083 14.9167 15.925 16.25C16.5417 17.5833 17.4417 18.7 18.625 19.6C18.7583 19.7 18.8542 19.8208 18.9125 19.9625C18.9708 20.1042 19 20.25 19 20.4C19 20.5833 18.95 20.7625 18.85 20.9375C18.75 21.1125 18.6 21.2417 18.4 21.325C17.8667 21.5583 17.3125 21.7292 16.7375 21.8375C16.1625 21.9458 15.5833 22 15 22ZM15 20H15.525C15.6917 20 15.85 19.9833 16 19.95C15.05 18.85 14.3125 17.6208 13.7875 16.2625C13.2625 14.9042 13 13.4833 13 12C13 10.5167 13.2625 9.09583 13.7875 7.7375C14.3125 6.37917 15.05 5.15 16 4.05C15.85 4.01667 15.6917 4 15.525 4H15C12.7833 4 10.8958 4.77917 9.3375 6.3375C7.77917 7.89583 7 9.78333 7 12C7 14.2167 7.77917 16.1042 9.3375 17.6625C10.8958 19.2208 12.7833 20 15 20Z" fill="black"/>
</svg>
