<svg width="24" height="24" viewBox="0 0 24 24" fill="none" xmlns="http://www.w3.org/2000/svg">
<path d="M12 22C10.6167 22 9.31667 21.7375 8.1 21.2125C6.88333 20.6875 5.825 19.9708 4.925 19.0625C4.025 18.1542 3.3125 17.0917 2.7875 15.875C2.2625 14.6583 2 13.3667 2 12C2 9.38332 2.86667 7.13332 4.6 5.24999C6.33333 3.36665 8.46667 2.29999 11 2.04999V5.04999C9.28333 5.28332 7.85417 6.05415 6.7125 7.36249C5.57083 8.67082 5 10.2167 5 12C5 13.9333 5.68333 15.5833 7.05 16.95C8.41667 18.3167 10.0667 19 12 19C13.1 19 14.1292 18.7667 15.0875 18.3C16.0458 17.8333 16.85 17.2 17.5 16.4L20.1 17.9C19.2 19.15 18.0417 20.1458 16.625 20.8875C15.2083 21.6292 13.6667 22 12 22ZM21.15 16.05L18.55 14.55C18.7 14.15 18.8125 13.7375 18.8875 13.3125C18.9625 12.8875 19 12.45 19 12C19 10.2167 18.4292 8.67082 17.2875 7.36249C16.1458 6.05415 14.7167 5.28332 13 5.04999V2.04999C15.5333 2.29999 17.6667 3.36665 19.4 5.24999C21.1333 7.13332 22 9.38332 22 12C22 12.7333 21.9333 13.4417 21.8 14.125C21.6667 14.8083 21.45 15.45 21.15 16.05Z" fill="black"/>
</svg>
