<svg width="24" height="24" viewBox="0 0 24 24" fill="none" xmlns="http://www.w3.org/2000/svg">
<path d="M3 20V17C3 16.7167 3.09583 16.4792 3.2875 16.2875C3.47917 16.0958 3.71667 16 4 16H7L11 12V8.8C10.4 8.58333 9.91667 8.22083 9.55 7.7125C9.18333 7.20417 9 6.63333 9 6C9 5.16667 9.29167 4.45833 9.875 3.875C10.4583 3.29167 11.1667 3 12 3C12.8333 3 13.5417 3.29167 14.125 3.875C14.7083 4.45833 15 5.16667 15 6C15 6.63333 14.8167 7.20417 14.45 7.7125C14.0833 8.22083 13.6 8.58333 13 8.8V12L17 16H20C20.2833 16 20.5208 16.0958 20.7125 16.2875C20.9042 16.4792 21 16.7167 21 17V20C21 20.2833 20.9042 20.5208 20.7125 20.7125C20.5208 20.9042 20.2833 21 20 21H17C16.7167 21 16.4792 20.9042 16.2875 20.7125C16.0958 20.5208 16 20.2833 16 20V17.95L12 13.95L8 17.95V20C8 20.2833 7.90417 20.5208 7.7125 20.7125C7.52083 20.9042 7.28333 21 7 21H4C3.71667 21 3.47917 20.9042 3.2875 20.7125C3.09583 20.5208 3 20.2833 3 20Z" fill="#000933"/>
</svg>
