<svg width="24" height="24" viewBox="0 0 24 24" fill="none" xmlns="http://www.w3.org/2000/svg">
<path d="M13.5 11H15.5V9H17.5V7H15.5V5H13.5V7H11.5V9H13.5V11ZM11.5 15H17.5V13H11.5V15ZM9 19C8.45 19 7.97917 18.8042 7.5875 18.4125C7.19583 18.0208 7 17.55 7 17V3C7 2.45 7.19583 1.97917 7.5875 1.5875C7.97917 1.19583 8.45 1 9 1H16L22 7V17C22 17.55 21.8042 18.0208 21.4125 18.4125C21.0208 18.8042 20.55 19 20 19H9ZM9 17H20V8L15 3H9V17ZM5 23C4.45 23 3.97917 22.8042 3.5875 22.4125C3.19583 22.0208 3 21.55 3 21V7H5V21H16V23H5Z" fill="#000933"/>
</svg>
