<svg width="24" height="24" viewBox="0 0 24 24" fill="none" xmlns="http://www.w3.org/2000/svg">
<path d="M7.425 9.47505L11.15 3.40005C11.25 3.23338 11.375 3.11255 11.525 3.03755C11.675 2.96255 11.8333 2.92505 12 2.92505C12.1667 2.92505 12.325 2.96255 12.475 3.03755C12.625 3.11255 12.75 3.23338 12.85 3.40005L16.575 9.47505C16.675 9.64172 16.725 9.81672 16.725 10C16.725 10.1834 16.6833 10.35 16.6 10.5C16.5167 10.65 16.4 10.7709 16.25 10.8625C16.1 10.9542 15.925 11 15.725 11H8.275C8.075 11 7.9 10.9542 7.75 10.8625C7.6 10.7709 7.48333 10.65 7.4 10.5C7.31667 10.35 7.275 10.1834 7.275 10C7.275 9.81672 7.325 9.64172 7.425 9.47505ZM17.5 22C16.25 22 15.1875 21.5625 14.3125 20.6875C13.4375 19.8125 13 18.75 13 17.5C13 16.25 13.4375 15.1875 14.3125 14.3125C15.1875 13.4375 16.25 13 17.5 13C18.75 13 19.8125 13.4375 20.6875 14.3125C21.5625 15.1875 22 16.25 22 17.5C22 18.75 21.5625 19.8125 20.6875 20.6875C19.8125 21.5625 18.75 22 17.5 22ZM3 20.5V14.5C3 14.2167 3.09583 13.9792 3.2875 13.7875C3.47917 13.5959 3.71667 13.5 4 13.5H10C10.2833 13.5 10.5208 13.5959 10.7125 13.7875C10.9042 13.9792 11 14.2167 11 14.5V20.5C11 20.7834 10.9042 21.0209 10.7125 21.2125C10.5208 21.4042 10.2833 21.5 10 21.5H4C3.71667 21.5 3.47917 21.4042 3.2875 21.2125C3.09583 21.0209 3 20.7834 3 20.5ZM17.5 20C18.2 20 18.7917 19.7584 19.275 19.275C19.7583 18.7917 20 18.2 20 17.5C20 16.8 19.7583 16.2084 19.275 15.725C18.7917 15.2417 18.2 15 17.5 15C16.8 15 16.2083 15.2417 15.725 15.725C15.2417 16.2084 15 16.8 15 17.5C15 18.2 15.2417 18.7917 15.725 19.275C16.2083 19.7584 16.8 20 17.5 20ZM5 19.5H9V15.5H5V19.5ZM10.05 9.00005H13.95L12 5.85005L10.05 9.00005Z" fill="#000933"/>
</svg>
