<svg width="24" height="24" viewBox="0 0 24 24" fill="none" xmlns="http://www.w3.org/2000/svg">
<path d="M5 21C4.45 21 3.97917 20.8041 3.5875 20.4125C3.19583 20.0208 3 19.55 3 19V4.99998C3 4.44998 3.19583 3.97914 3.5875 3.58748C3.97917 3.19581 4.45 2.99998 5 2.99998H11.525C11.8583 2.99998 12.1083 3.10414 12.275 3.31248C12.4417 3.52081 12.525 3.74998 12.525 3.99998C12.525 4.24998 12.4375 4.47914 12.2625 4.68748C12.0875 4.89581 11.8333 4.99998 11.5 4.99998H5V19H19V12.475C19 12.1416 19.1042 11.8916 19.3125 11.725C19.5208 11.5583 19.75 11.475 20 11.475C20.25 11.475 20.4792 11.5583 20.6875 11.725C20.8958 11.8916 21 12.1416 21 12.475V19C21 19.55 20.8042 20.0208 20.4125 20.4125C20.0208 20.8041 19.55 21 19 21H5ZM9 14V11.575C9 11.3083 9.05 11.0541 9.15 10.8125C9.25 10.5708 9.39167 10.3583 9.575 10.175L18.175 1.57498C18.375 1.37498 18.6 1.22498 18.85 1.12498C19.1 1.02498 19.35 0.974976 19.6 0.974976C19.8667 0.974976 20.1208 1.02498 20.3625 1.12498C20.6042 1.22498 20.825 1.37498 21.025 1.57498L22.425 2.99998C22.6083 3.19998 22.75 3.42081 22.85 3.66248C22.95 3.90414 23 4.14998 23 4.39998C23 4.64998 22.9542 4.89581 22.8625 5.13748C22.7708 5.37914 22.625 5.59998 22.425 5.79998L13.825 14.4C13.6417 14.5833 13.4292 14.7291 13.1875 14.8375C12.9458 14.9458 12.6917 15 12.425 15H10C9.71667 15 9.47917 14.9041 9.2875 14.7125C9.09583 14.5208 9 14.2833 9 14ZM11 13H12.4L18.2 7.19998L17.5 6.49998L16.775 5.79998L11 11.575V13Z" fill="#000933"/>
</svg>
