<svg width="24" height="24" viewBox="0 0 24 24" fill="none" xmlns="http://www.w3.org/2000/svg">
<path d="M12 15.15L10.125 13.275C9.925 13.075 9.69167 12.975 9.425 12.975C9.15833 12.975 8.925 13.075 8.725 13.275C8.525 13.475 8.425 13.7125 8.425 13.9875C8.425 14.2625 8.525 14.5 8.725 14.7L11.3 17.3C11.5 17.5 11.7333 17.6 12 17.6C12.2667 17.6 12.5 17.5 12.7 17.3L15.3 14.7C15.5 14.5 15.6 14.2625 15.6 13.9875C15.6 13.7125 15.5 13.475 15.3 13.275C15.1 13.075 14.8625 12.975 14.5875 12.975C14.3125 12.975 14.075 13.075 13.875 13.275L12 15.15ZM12 8.85L13.875 10.725C14.075 10.925 14.3083 11.025 14.575 11.025C14.8417 11.025 15.075 10.925 15.275 10.725C15.475 10.525 15.575 10.2875 15.575 10.0125C15.575 9.7375 15.475 9.5 15.275 9.3L12.7 6.7C12.5 6.5 12.2667 6.4 12 6.4C11.7333 6.4 11.5 6.5 11.3 6.7L8.7 9.3C8.5 9.5 8.40417 9.73333 8.4125 10C8.42083 10.2667 8.525 10.5 8.725 10.7C8.925 10.9 9.1625 11 9.4375 11C9.7125 11 9.95 10.9 10.15 10.7L12 8.85ZM5 21C4.45 21 3.97917 20.8042 3.5875 20.4125C3.19583 20.0208 3 19.55 3 19V5C3 4.45 3.19583 3.97917 3.5875 3.5875C3.97917 3.19583 4.45 3 5 3H19C19.55 3 20.0208 3.19583 20.4125 3.5875C20.8042 3.97917 21 4.45 21 5V19C21 19.55 20.8042 20.0208 20.4125 20.4125C20.0208 20.8042 19.55 21 19 21H5ZM5 19H19V5H5V19Z" fill="#000933"/>
</svg>
