<svg width="24" height="24" viewBox="0 0 24 24" fill="none" xmlns="http://www.w3.org/2000/svg">
<path d="M12 7C12.2833 7 12.5208 6.90417 12.7125 6.7125C12.9042 6.52083 13 6.28333 13 6C13 5.71667 12.9042 5.47917 12.7125 5.2875C12.5208 5.09583 12.2833 5 12 5C11.7167 5 11.4792 5.09583 11.2875 5.2875C11.0958 5.47917 11 5.71667 11 6C11 6.28333 11.0958 6.52083 11.2875 6.7125C11.4792 6.90417 11.7167 7 12 7ZM12 15C12.2833 15 12.5208 14.9042 12.7125 14.7125C12.9042 14.5208 13 14.2833 13 14V10C13 9.71667 12.9042 9.47917 12.7125 9.2875C12.5208 9.09583 12.2833 9 12 9C11.7167 9 11.4792 9.09583 11.2875 9.2875C11.0958 9.47917 11 9.71667 11 10V14C11 14.2833 11.0958 14.5208 11.2875 14.7125C11.4792 14.9042 11.7167 15 12 15ZM6 18L3.7 20.3C3.38333 20.6167 3.02083 20.6875 2.6125 20.5125C2.20417 20.3375 2 20.025 2 19.575V4C2 3.45 2.19583 2.97917 2.5875 2.5875C2.97917 2.19583 3.45 2 4 2H20C20.55 2 21.0208 2.19583 21.4125 2.5875C21.8042 2.97917 22 3.45 22 4V16C22 16.55 21.8042 17.0208 21.4125 17.4125C21.0208 17.8042 20.55 18 20 18H6Z" fill="black"/>
</svg>
