<svg width="25" height="24" viewBox="0 0 25 24" fill="none" xmlns="http://www.w3.org/2000/svg">
<path d="M19.1232 21.9L2.12324 4.92495C1.92324 4.72495 1.82324 4.48745 1.82324 4.21245C1.82324 3.93745 1.92324 3.69995 2.12324 3.49995C2.32324 3.29995 2.56074 3.19995 2.83574 3.19995C3.11074 3.19995 3.34824 3.29995 3.54824 3.49995L20.5482 20.5C20.7482 20.7 20.8482 20.9333 20.8482 21.2C20.8482 21.4666 20.7482 21.7 20.5482 21.9C20.3482 22.1 20.1107 22.2 19.8357 22.2C19.5607 22.2 19.3232 22.1 19.1232 21.9ZM16.2982 13C16.0149 13 15.7732 12.9041 15.5732 12.7125C15.3732 12.5208 15.2732 12.2833 15.2732 12C15.2732 11.7333 15.3691 11.5 15.5607 11.3C15.7524 11.1 15.9982 11 16.2982 11H17.0482C17.3316 11 17.5691 11.0958 17.7607 11.2875C17.9524 11.4791 18.0482 11.7166 18.0482 12C18.0482 12.2833 17.9524 12.5208 17.7607 12.7125C17.5691 12.9041 17.3316 13 17.0482 13H16.2982ZM11.2982 7.99995C11.0149 7.99995 10.7732 7.90412 10.5732 7.71245C10.3732 7.52078 10.2732 7.28328 10.2732 6.99995C10.2732 6.73328 10.3691 6.49995 10.5607 6.29995C10.7524 6.09995 10.9982 5.99995 11.2982 5.99995H20.0482C20.3316 5.99995 20.5691 6.09578 20.7607 6.28745C20.9524 6.47912 21.0482 6.71662 21.0482 6.99995C21.0482 7.28328 20.9524 7.52078 20.7607 7.71245C20.5691 7.90412 20.3316 7.99995 20.0482 7.99995H11.2982ZM11.0482 18C10.7649 18 10.5274 17.9041 10.3357 17.7125C10.1441 17.5208 10.0482 17.2833 10.0482 17C10.0482 16.7166 10.1441 16.4791 10.3357 16.2875C10.5274 16.0958 10.7649 16 11.0482 16H13.0482C13.3316 16 13.5691 16.0958 13.7607 16.2875C13.9524 16.4791 14.0482 16.7166 14.0482 17C14.0482 17.2833 13.9524 17.5208 13.7607 17.7125C13.5691 17.9041 13.3316 18 13.0482 18H11.0482ZM7.04824 13C6.76491 13 6.52741 12.9041 6.33574 12.7125C6.14408 12.5208 6.04824 12.2833 6.04824 12C6.04824 11.7166 6.14408 11.4791 6.33574 11.2875C6.52741 11.0958 6.76491 11 7.04824 11H10.1982V13H7.04824ZM4.04824 7.99995C3.76491 7.99995 3.52741 7.90412 3.33574 7.71245C3.14408 7.52078 3.04824 7.28328 3.04824 6.99995C3.04824 6.71662 3.14408 6.47912 3.33574 6.28745C3.52741 6.09578 3.76491 5.99995 4.04824 5.99995H5.19824V7.99995H4.04824Z" fill="#000933"/>
</svg>
