<svg width="24" height="24" viewBox="0 0 24 24" fill="none" xmlns="http://www.w3.org/2000/svg">
<path d="M4 20C3.45 20 2.97917 19.8042 2.5875 19.4125C2.19583 19.0208 2 18.55 2 18V6C2 5.45 2.19583 4.97917 2.5875 4.5875C2.97917 4.19583 3.45 4 4 4H14.1C14.0333 4.33333 14 4.66667 14 5C14 5.33333 14.0333 5.66667 14.1 6H4L12 11L15.65 8.725C15.8833 8.94167 16.1375 9.12917 16.4125 9.2875C16.6875 9.44583 16.975 9.58333 17.275 9.7L12 13L4 8V18H20V9.9C20.3833 9.81667 20.7417 9.7 21.075 9.55C21.4083 9.4 21.7167 9.21667 22 9V18C22 18.55 21.8042 19.0208 21.4125 19.4125C21.0208 19.8042 20.55 20 20 20H4ZM19 8C18.1667 8 17.4583 7.70833 16.875 7.125C16.2917 6.54167 16 5.83333 16 5C16 4.16667 16.2917 3.45833 16.875 2.875C17.4583 2.29167 18.1667 2 19 2C19.8333 2 20.5417 2.29167 21.125 2.875C21.7083 3.45833 22 4.16667 22 5C22 5.83333 21.7083 6.54167 21.125 7.125C20.5417 7.70833 19.8333 8 19 8Z" fill="black"/>
</svg>
