<svg width="25" height="24" viewBox="0 0 25 24" fill="none" xmlns="http://www.w3.org/2000/svg">
<path d="M14.0483 14C14.3317 14 14.5692 13.9042 14.7608 13.7125C14.9525 13.5208 15.0483 13.2833 15.0483 13V11H17.0483C17.3317 11 17.5692 10.9042 17.7608 10.7125C17.9525 10.5208 18.0483 10.2833 18.0483 10C18.0483 9.71667 17.9525 9.47917 17.7608 9.2875C17.5692 9.09583 17.3317 9 17.0483 9H15.0483V7C15.0483 6.71667 14.9525 6.47917 14.7608 6.2875C14.5692 6.09583 14.3317 6 14.0483 6C13.765 6 13.5275 6.09583 13.3358 6.2875C13.1442 6.47917 13.0483 6.71667 13.0483 7V9H11.0483C10.765 9 10.5275 9.09583 10.3358 9.2875C10.1442 9.47917 10.0483 9.71667 10.0483 10C10.0483 10.2833 10.1442 10.5208 10.3358 10.7125C10.5275 10.9042 10.765 11 11.0483 11H13.0483V13C13.0483 13.2833 13.1442 13.5208 13.3358 13.7125C13.5275 13.9042 13.765 14 14.0483 14ZM8.04834 18C7.49834 18 7.02751 17.8042 6.63584 17.4125C6.24417 17.0208 6.04834 16.55 6.04834 16V4C6.04834 3.45 6.24417 2.97917 6.63584 2.5875C7.02751 2.19583 7.49834 2 8.04834 2H20.0483C20.5983 2 21.0692 2.19583 21.4608 2.5875C21.8525 2.97917 22.0483 3.45 22.0483 4V16C22.0483 16.55 21.8525 17.0208 21.4608 17.4125C21.0692 17.8042 20.5983 18 20.0483 18H8.04834ZM4.04834 22C3.49834 22 3.02751 21.8042 2.63584 21.4125C2.24417 21.0208 2.04834 20.55 2.04834 20V7C2.04834 6.71667 2.14417 6.47917 2.33584 6.2875C2.52751 6.09583 2.76501 6 3.04834 6C3.33167 6 3.56917 6.09583 3.76084 6.2875C3.95251 6.47917 4.04834 6.71667 4.04834 7V20H17.0483C17.3317 20 17.5692 20.0958 17.7608 20.2875C17.9525 20.4792 18.0483 20.7167 18.0483 21C18.0483 21.2833 17.9525 21.5208 17.7608 21.7125C17.5692 21.9042 17.3317 22 17.0483 22H4.04834Z" fill="#000933"/>
</svg>
