<svg width="24" height="24" viewBox="0 0 24 24" fill="none" xmlns="http://www.w3.org/2000/svg">
<path d="M19.4757 4.93673H3.94175V16.5571H11.7087C11.9838 16.5571 12.2144 16.6499 12.4005 16.8355C12.5866 17.0211 12.6796 17.2511 12.6796 17.5255C12.6796 17.7999 12.5866 18.0299 12.4005 18.2155C12.2144 18.4011 11.9838 18.4939 11.7087 18.4939H3.94175C3.40777 18.4939 2.95065 18.3042 2.57039 17.925C2.19013 17.5457 2 17.0897 2 16.5571V4.93673C2 4.40413 2.19013 3.94819 2.57039 3.56892C2.95065 3.18964 3.40777 3 3.94175 3H19.4757C20.0097 3 20.4668 3.18964 20.8471 3.56892C21.2273 3.94819 21.4175 4.40413 21.4175 4.93673V10.7469C21.4175 11.0213 21.3244 11.2513 21.1383 11.4369C20.9523 11.6225 20.7217 11.7153 20.4466 11.7153C20.1715 11.7153 19.9409 11.6225 19.7549 11.4369C19.5688 11.2513 19.4757 11.0213 19.4757 10.7469V4.93673ZM3.94175 4.93673V16.5571V11.7153V11.7879V4.93673ZM11.7087 9.77857L19.4757 4.93673V6.87347L12.2184 11.4006C12.0566 11.4974 11.8867 11.5458 11.7087 11.5458C11.5307 11.5458 11.3608 11.4974 11.199 11.4006L3.94175 6.87347V4.93673L11.7087 9.77857ZM18.6748 18.4939H15.5922C15.3172 18.4939 15.0866 18.4011 14.9005 18.2155C14.7144 18.0299 14.6214 17.7999 14.6214 17.5255C14.6214 17.2511 14.7144 17.0211 14.9005 16.8355C15.0866 16.6499 15.3172 16.5571 15.5922 16.5571H18.6748L17.801 15.6856C17.6068 15.4919 17.5138 15.266 17.5218 15.0077C17.5299 14.7495 17.6311 14.5236 17.8252 14.3299C18.0194 14.1524 18.246 14.0596 18.5049 14.0515C18.7638 14.0434 18.9903 14.1362 19.1845 14.3299L21.7087 16.8476C21.8058 16.9445 21.8786 17.0494 21.9272 17.1624C21.9757 17.2753 22 17.3964 22 17.5255C22 17.6546 21.9757 17.7757 21.9272 17.8886C21.8786 18.0016 21.8058 18.1065 21.7087 18.2034L19.1845 20.7211C19.0065 20.8986 18.784 20.9914 18.517 20.9995C18.25 21.0076 18.0194 20.9148 17.8252 20.7211C17.6473 20.5436 17.5583 20.3176 17.5583 20.0433C17.5583 19.7689 17.6473 19.5429 17.8252 19.3654L18.6748 18.4939Z" fill="black"/>
</svg>
