<svg width="24" height="24" viewBox="0 0 24 24" fill="none" xmlns="http://www.w3.org/2000/svg">
<path d="M12.0252 21C11.7419 21 11.5044 20.9042 11.3127 20.7125C11.121 20.5208 11.0252 20.2833 11.0252 20V18.85C10.2752 18.6833 9.61688 18.3917 9.05021 17.975C8.48355 17.5583 8.02521 16.975 7.67521 16.225C7.55855 15.9917 7.55438 15.7458 7.66271 15.4875C7.77105 15.2292 7.96688 15.0417 8.25021 14.925C8.48355 14.825 8.72521 14.8292 8.97521 14.9375C9.22521 15.0458 9.41688 15.225 9.55021 15.475C9.83355 15.975 10.1919 16.3542 10.6252 16.6125C11.0585 16.8708 11.5919 17 12.2252 17C12.9085 17 13.4877 16.8458 13.9627 16.5375C14.4377 16.2292 14.6752 15.75 14.6752 15.1C14.6752 14.5167 14.4919 14.0542 14.1252 13.7125C13.7585 13.3708 12.9085 12.9833 11.5752 12.55C10.1419 12.1 9.15855 11.5625 8.62521 10.9375C8.09188 10.3125 7.82521 9.55 7.82521 8.65C7.82521 7.56667 8.17521 6.725 8.87521 6.125C9.57521 5.525 10.2919 5.18333 11.0252 5.1V4C11.0252 3.71667 11.121 3.47917 11.3127 3.2875C11.5044 3.09583 11.7419 3 12.0252 3C12.3085 3 12.546 3.09583 12.7377 3.2875C12.9294 3.47917 13.0252 3.71667 13.0252 4V5.1C13.6585 5.2 14.2085 5.40417 14.6752 5.7125C15.1419 6.02083 15.5252 6.4 15.8252 6.85C15.9752 7.06667 16.0044 7.30833 15.9127 7.575C15.821 7.84167 15.6335 8.03333 15.3502 8.15C15.1169 8.25 14.8752 8.25417 14.6252 8.1625C14.3752 8.07083 14.1419 7.90833 13.9252 7.675C13.7085 7.44167 13.4544 7.2625 13.1627 7.1375C12.871 7.0125 12.5085 6.95 12.0752 6.95C11.3419 6.95 10.7835 7.1125 10.4002 7.4375C10.0169 7.7625 9.82521 8.16667 9.82521 8.65C9.82521 9.2 10.0752 9.63333 10.5752 9.95C11.0752 10.2667 11.9419 10.6 13.1752 10.95C14.3252 11.2833 15.196 11.8125 15.7877 12.5375C16.3794 13.2625 16.6752 14.1 16.6752 15.05C16.6752 16.2333 16.3252 17.1333 15.6252 17.75C14.9252 18.3667 14.0585 18.75 13.0252 18.9V20C13.0252 20.2833 12.9294 20.5208 12.7377 20.7125C12.546 20.9042 12.3085 21 12.0252 21Z" fill="black"/>
</svg>
