<svg width="24" height="24" viewBox="0 0 24 24" fill="none" xmlns="http://www.w3.org/2000/svg">
<path d="M16.1752 14L13.2752 11.1C13.0752 10.9 12.9794 10.6666 12.9877 10.4C12.996 10.1333 13.0919 9.89995 13.2752 9.69995C13.4752 9.49995 13.7085 9.39578 13.9752 9.38745C14.2419 9.37912 14.4752 9.47495 14.6752 9.67495L19.3002 14.3C19.4002 14.4 19.471 14.5083 19.5127 14.625C19.5544 14.7416 19.5752 14.8666 19.5752 15C19.5752 15.1333 19.5544 15.2583 19.5127 15.375C19.471 15.4916 19.4002 15.6 19.3002 15.7L14.7252 20.275C14.5252 20.475 14.2877 20.575 14.0127 20.575C13.7377 20.575 13.5002 20.475 13.3002 20.275C13.1002 20.075 13.0002 19.8416 13.0002 19.575C13.0002 19.3083 13.1002 19.075 13.3002 18.875L16.1752 16L7.0002 15.9999C6.4502 15.9999 5.97936 15.8041 5.5877 15.4125C5.19603 15.0208 5.0002 14.5499 5.0002 13.9999L5.0002 4.99995C5.0002 4.71662 5.09603 4.47912 5.2877 4.28745C5.47936 4.09578 5.71686 3.99995 6.0002 3.99995C6.28353 3.99995 6.52103 4.09578 6.7127 4.28745C6.90436 4.47912 7.0002 4.71662 7.0002 4.99995L7.0002 13.9999L16.1752 14Z" fill="#000933"/>
</svg>
