<svg width="24" height="24" viewBox="0 0 24 24" fill="none" xmlns="http://www.w3.org/2000/svg">
<path d="M17 17.4L15.1 19.3C14.9167 19.4834 14.6833 19.575 14.4 19.575C14.1167 19.575 13.8833 19.4834 13.7 19.3C13.5167 19.1167 13.425 18.8834 13.425 18.6C13.425 18.3167 13.5167 18.0834 13.7 17.9L15.6 16L13.7 14.1C13.5167 13.9167 13.425 13.6834 13.425 13.4C13.425 13.1167 13.5167 12.8834 13.7 12.7C13.8833 12.5167 14.1167 12.425 14.4 12.425C14.6833 12.425 14.9167 12.5167 15.1 12.7L17 14.6L18.9 12.7C19.0833 12.5167 19.3167 12.425 19.6 12.425C19.8833 12.425 20.1167 12.5167 20.3 12.7C20.4833 12.8834 20.575 13.1167 20.575 13.4C20.575 13.6834 20.4833 13.9167 20.3 14.1L18.4 16L20.3 17.9C20.4833 18.0834 20.575 18.3167 20.575 18.6C20.575 18.8834 20.4833 19.1167 20.3 19.3C20.1167 19.4834 19.8833 19.575 19.6 19.575C19.3167 19.575 19.0833 19.4834 18.9 19.3L17 17.4ZM16.35 8.17504L19.9 4.62504C20.1 4.42504 20.3333 4.3292 20.6 4.33754C20.8667 4.34587 21.1 4.45004 21.3 4.65004C21.4833 4.85004 21.575 5.08337 21.575 5.35004C21.575 5.6167 21.4833 5.85004 21.3 6.05004L17.075 10.3C16.875 10.5 16.6417 10.6 16.375 10.6C16.1083 10.6 15.875 10.5 15.675 10.3L13.525 8.15004C13.3417 7.9667 13.25 7.73337 13.25 7.45004C13.25 7.1667 13.3417 6.93337 13.525 6.75004C13.7083 6.5667 13.9417 6.47504 14.225 6.47504C14.5083 6.47504 14.7417 6.5667 14.925 6.75004L16.35 8.17504ZM3 15H10C10.2833 15 10.5208 15.0959 10.7125 15.2875C10.9042 15.4792 11 15.7167 11 16C11 16.2834 10.9042 16.5209 10.7125 16.7125C10.5208 16.9042 10.2833 17 10 17H3C2.71667 17 2.47917 16.9042 2.2875 16.7125C2.09583 16.5209 2 16.2834 2 16C2 15.7167 2.09583 15.4792 2.2875 15.2875C2.47917 15.0959 2.71667 15 3 15ZM3 7.00004H10C10.2833 7.00004 10.5208 7.09587 10.7125 7.28754C10.9042 7.4792 11 7.7167 11 8.00004C11 8.28337 10.9042 8.52087 10.7125 8.71254C10.5208 8.9042 10.2833 9.00004 10 9.00004H3C2.71667 9.00004 2.47917 8.9042 2.2875 8.71254C2.09583 8.52087 2 8.28337 2 8.00004C2 7.7167 2.09583 7.4792 2.2875 7.28754C2.47917 7.09587 2.71667 7.00004 3 7.00004Z" fill="#000933"/>
</svg>
