<svg width="24" height="24" viewBox="0 0 24 24" fill="none" xmlns="http://www.w3.org/2000/svg">
<path d="M8.41154 17.25L11.5615 15.35L14.7115 17.275L13.8865 13.675L16.6615 11.275L13.0115 10.95L11.5615 7.55L10.1115 10.925L6.46154 11.25L9.23654 13.675L8.41154 17.25ZM11.5615 17.7L7.41154 20.2C7.22821 20.3167 7.03654 20.3667 6.83654 20.35C6.63654 20.3333 6.46154 20.2667 6.31154 20.15C6.16154 20.0333 6.04487 19.8875 5.96154 19.7125C5.87821 19.5375 5.86154 19.3417 5.91154 19.125L7.01154 14.4L3.33654 11.225C3.16987 11.075 3.06571 10.9042 3.02404 10.7125C2.98237 10.5208 2.99487 10.3333 3.06154 10.15C3.12821 9.96667 3.22821 9.81667 3.36154 9.7C3.49487 9.58333 3.67821 9.50833 3.91154 9.475L8.76154 9.05L10.6365 4.6C10.7199 4.4 10.849 4.25 11.024 4.15C11.199 4.05 11.3782 4 11.5615 4C11.7449 4 11.924 4.05 12.099 4.15C12.274 4.25 12.4032 4.4 12.4865 4.6L14.3615 9.05L19.2115 9.475C19.4449 9.50833 19.6282 9.58333 19.7615 9.7C19.8949 9.81667 19.9949 9.96667 20.0615 10.15C20.1282 10.3333 20.1407 10.5208 20.099 10.7125C20.0574 10.9042 19.9532 11.075 19.7865 11.225L16.1115 14.4L17.2115 19.125C17.2615 19.3417 17.2449 19.5375 17.1615 19.7125C17.0782 19.8875 16.9615 20.0333 16.8115 20.15C16.6615 20.2667 16.4865 20.3333 16.2865 20.35C16.0865 20.3667 15.8949 20.3167 15.7115 20.2L11.5615 17.7Z" fill="#000933"/>
</svg>
