<svg width="24" height="24" viewBox="0 0 24 24" fill="none" xmlns="http://www.w3.org/2000/svg">
<path d="M5.4 16.588L7.3 18.488C7.5 18.688 7.59583 18.9213 7.5875 19.188C7.57917 19.4547 7.475 19.688 7.275 19.888C7.075 20.0713 6.84167 20.1672 6.575 20.1755C6.30833 20.1838 6.075 20.088 5.875 19.888L2.275 16.288C2.175 16.188 2.10417 16.0797 2.0625 15.963C2.02083 15.8463 2 15.7213 2 15.588C2 15.4547 2.02083 15.3297 2.0625 15.213C2.10417 15.0963 2.175 14.988 2.275 14.888L5.875 11.288C6.05833 11.1047 6.2875 11.013 6.5625 11.013C6.8375 11.013 7.075 11.1047 7.275 11.288C7.475 11.488 7.575 11.7255 7.575 12.0005C7.575 12.2755 7.475 12.513 7.275 12.713L5.4 14.588H19.575C19.8583 14.588 20.0958 14.6838 20.2875 14.8755C20.4792 15.0672 20.575 15.3047 20.575 15.588C20.575 15.8713 20.4792 16.1088 20.2875 16.3005C20.0958 16.4922 19.8583 16.588 19.575 16.588H5.4ZM17.75 8.588H3.575C3.29167 8.588 3.05417 8.49217 2.8625 8.3005C2.67083 8.10883 2.575 7.87133 2.575 7.588C2.575 7.30467 2.67083 7.06717 2.8625 6.8755C3.05417 6.68383 3.29167 6.588 3.575 6.588H17.75L15.85 4.688C15.65 4.488 15.5542 4.25467 15.5625 3.988C15.5708 3.72133 15.675 3.488 15.875 3.288C16.075 3.10467 16.3083 3.00883 16.575 3.0005C16.8417 2.99217 17.075 3.088 17.275 3.288L20.875 6.888C20.975 6.988 21.0458 7.09633 21.0875 7.213C21.1292 7.32967 21.15 7.45467 21.15 7.588C21.15 7.72133 21.1292 7.84633 21.0875 7.963C21.0458 8.07967 20.975 8.188 20.875 8.288L17.275 11.888C17.0917 12.0713 16.8625 12.163 16.5875 12.163C16.3125 12.163 16.075 12.0713 15.875 11.888C15.675 11.688 15.575 11.4505 15.575 11.1755C15.575 10.9005 15.675 10.663 15.875 10.463L17.75 8.588Z" fill="#000933"/>
</svg>
