<svg width="24" height="24" viewBox="0 0 24 24" fill="none" xmlns="http://www.w3.org/2000/svg">
<path d="M3 19H21C21.2833 19 21.5208 19.0958 21.7125 19.2875C21.9042 19.4792 22 19.7167 22 20C22 20.2833 21.9042 20.5208 21.7125 20.7125C21.5208 20.9042 21.2833 21 21 21H3C2.71667 21 2.47917 20.9042 2.2875 20.7125C2.09583 20.5208 2 20.2833 2 20C2 19.7167 2.09583 19.4792 2.2875 19.2875C2.47917 19.0958 2.71667 19 3 19ZM19 16.25V3.75C19 3.53333 19.0708 3.35417 19.2125 3.2125C19.3542 3.07083 19.5333 3 19.75 3C19.9667 3 20.1458 3.07083 20.2875 3.2125C20.4292 3.35417 20.5 3.53333 20.5 3.75V16.25C20.5 16.4667 20.4292 16.6458 20.2875 16.7875C20.1458 16.9292 19.9667 17 19.75 17C19.5333 17 19.3542 16.9292 19.2125 16.7875C19.0708 16.6458 19 16.4667 19 16.25ZM7.7 13.4L6.675 16.275C6.59167 16.5083 6.45417 16.6875 6.2625 16.8125C6.07083 16.9375 5.85833 17 5.625 17C5.24167 17 4.9375 16.8375 4.7125 16.5125C4.4875 16.1875 4.44167 15.8417 4.575 15.475L8.975 3.75C9.05833 3.51667 9.2 3.33333 9.4 3.2C9.6 3.06667 9.81667 3 10.05 3H10.95C11.2 3 11.4208 3.06667 11.6125 3.2C11.8042 3.33333 11.9417 3.51667 12.025 3.75L16.45 15.5C16.5833 15.8667 16.5375 16.2083 16.3125 16.525C16.0875 16.8417 15.7833 17 15.4 17C15.1667 17 14.95 16.9333 14.75 16.8C14.55 16.6667 14.4083 16.4833 14.325 16.25L13.35 13.4H7.7ZM8.4 11.4H12.6L10.55 5.6H10.45L8.4 11.4Z" fill="#000933"/>
</svg>
