<svg width="24" height="24" viewBox="0 0 24 24" fill="none" xmlns="http://www.w3.org/2000/svg">
<path d="M3 19C2.71667 19 2.47917 18.9042 2.2875 18.7125C2.09583 18.5208 2 18.2833 2 18C2 17.7167 2.09583 17.4792 2.2875 17.2875C2.47917 17.0958 2.71667 17 3 17H8V12C8 11.7167 8.09583 11.4792 8.2875 11.2875C8.47917 11.0958 8.71667 11 9 11H14V6C14 5.71667 14.0958 5.47917 14.2875 5.2875C14.4792 5.09583 14.7167 5 15 5H21C21.2833 5 21.5208 5.09583 21.7125 5.2875C21.9042 5.47917 22 5.71667 22 6C22 6.28333 21.9042 6.52083 21.7125 6.7125C21.5208 6.90417 21.2833 7 21 7H16V12C16 12.2833 15.9042 12.5208 15.7125 12.7125C15.5208 12.9042 15.2833 13 15 13H10V18C10 18.2833 9.90417 18.5208 9.7125 18.7125C9.52083 18.9042 9.28333 19 9 19H3Z" fill="#000933"/>
</svg>
