<svg width="24" height="24" viewBox="0 0 24 24" fill="none" xmlns="http://www.w3.org/2000/svg">
<path d="M10.5 7H6.5C6.08333 7 5.72917 6.85417 5.4375 6.5625C5.14583 6.27083 5 5.91667 5 5.5C5 5.08333 5.14583 4.72917 5.4375 4.4375C5.72917 4.14583 6.08333 4 6.5 4H17.5C17.9167 4 18.2708 4.14583 18.5625 4.4375C18.8542 4.72917 19 5.08333 19 5.5C19 5.91667 18.8542 6.27083 18.5625 6.5625C18.2708 6.85417 17.9167 7 17.5 7H13.5V18.5C13.5 18.9167 13.3542 19.2708 13.0625 19.5625C12.7708 19.8542 12.4167 20 12 20C11.5833 20 11.2292 19.8542 10.9375 19.5625C10.6458 19.2708 10.5 18.9167 10.5 18.5V7Z" fill="#000933"/>
</svg>
