<svg width="25" height="24" viewBox="0 0 25 24" fill="none" xmlns="http://www.w3.org/2000/svg">
<path d="M12.0483 21C11.765 21 11.5275 20.9042 11.3358 20.7125C11.1442 20.5208 11.0483 20.2833 11.0483 20V16C11.0483 15.7167 11.1442 15.4792 11.3358 15.2875C11.5275 15.0958 11.765 15 12.0483 15C12.3317 15 12.5692 15.0958 12.7608 15.2875C12.9525 15.4792 13.0483 15.7167 13.0483 16V17H20.0483C20.3317 17 20.5692 17.0958 20.7608 17.2875C20.9525 17.4792 21.0483 17.7167 21.0483 18C21.0483 18.2833 20.9525 18.5208 20.7608 18.7125C20.5692 18.9042 20.3317 19 20.0483 19H13.0483V20C13.0483 20.2833 12.9525 20.5208 12.7608 20.7125C12.5692 20.9042 12.3317 21 12.0483 21ZM4.04834 19C3.76501 19 3.52751 18.9042 3.33584 18.7125C3.14417 18.5208 3.04834 18.2833 3.04834 18C3.04834 17.7167 3.14417 17.4792 3.33584 17.2875C3.52751 17.0958 3.76501 17 4.04834 17H8.04834C8.33167 17 8.56917 17.0958 8.76084 17.2875C8.95251 17.4792 9.04834 17.7167 9.04834 18C9.04834 18.2833 8.95251 18.5208 8.76084 18.7125C8.56917 18.9042 8.33167 19 8.04834 19H4.04834ZM8.04834 15C7.76501 15 7.52751 14.9042 7.33584 14.7125C7.14417 14.5208 7.04834 14.2833 7.04834 14V13H4.04834C3.76501 13 3.52751 12.9042 3.33584 12.7125C3.14417 12.5208 3.04834 12.2833 3.04834 12C3.04834 11.7167 3.14417 11.4792 3.33584 11.2875C3.52751 11.0958 3.76501 11 4.04834 11H7.04834V10C7.04834 9.71667 7.14417 9.47917 7.33584 9.2875C7.52751 9.09583 7.76501 9 8.04834 9C8.33167 9 8.56917 9.09583 8.76084 9.2875C8.95251 9.47917 9.04834 9.71667 9.04834 10V14C9.04834 14.2833 8.95251 14.5208 8.76084 14.7125C8.56917 14.9042 8.33167 15 8.04834 15ZM12.0483 13C11.765 13 11.5275 12.9042 11.3358 12.7125C11.1442 12.5208 11.0483 12.2833 11.0483 12C11.0483 11.7167 11.1442 11.4792 11.3358 11.2875C11.5275 11.0958 11.765 11 12.0483 11H20.0483C20.3317 11 20.5692 11.0958 20.7608 11.2875C20.9525 11.4792 21.0483 11.7167 21.0483 12C21.0483 12.2833 20.9525 12.5208 20.7608 12.7125C20.5692 12.9042 20.3317 13 20.0483 13H12.0483ZM16.0483 9C15.765 9 15.5275 8.90417 15.3358 8.7125C15.1442 8.52083 15.0483 8.28333 15.0483 8V4C15.0483 3.71667 15.1442 3.47917 15.3358 3.2875C15.5275 3.09583 15.765 3 16.0483 3C16.3317 3 16.5692 3.09583 16.7608 3.2875C16.9525 3.47917 17.0483 3.71667 17.0483 4V5H20.0483C20.3317 5 20.5692 5.09583 20.7608 5.2875C20.9525 5.47917 21.0483 5.71667 21.0483 6C21.0483 6.28333 20.9525 6.52083 20.7608 6.7125C20.5692 6.90417 20.3317 7 20.0483 7H17.0483V8C17.0483 8.28333 16.9525 8.52083 16.7608 8.7125C16.5692 8.90417 16.3317 9 16.0483 9ZM4.04834 7C3.76501 7 3.52751 6.90417 3.33584 6.7125C3.14417 6.52083 3.04834 6.28333 3.04834 6C3.04834 5.71667 3.14417 5.47917 3.33584 5.2875C3.52751 5.09583 3.76501 5 4.04834 5H12.0483C12.3317 5 12.5692 5.09583 12.7608 5.2875C12.9525 5.47917 13.0483 5.71667 13.0483 6C13.0483 6.28333 12.9525 6.52083 12.7608 6.7125C12.5692 6.90417 12.3317 7 12.0483 7H4.04834Z" fill="#000933"/>
</svg>
