<svg width="24" height="24" viewBox="0 0 24 24" fill="none" xmlns="http://www.w3.org/2000/svg">
<path d="M19.0999 21.9L15.5999 18.45C15.0166 18.6333 14.4249 18.7708 13.8249 18.8625C13.2249 18.9541 12.6166 19 11.9999 19C9.76657 19 7.7249 18.4 5.8749 17.2C4.0249 16 2.5749 14.4166 1.5249 12.45C1.44157 12.3 1.37907 12.1458 1.3374 11.9875C1.29574 11.8291 1.2749 11.6666 1.2749 11.5C1.2749 11.3333 1.29574 11.1708 1.3374 11.0125C1.37907 10.8541 1.44157 10.7 1.5249 10.55C1.89157 9.89998 2.28324 9.26664 2.6999 8.64998C3.11657 8.03331 3.5999 7.48331 4.1499 6.99998L2.0749 4.89998C1.89157 4.71664 1.7999 4.48748 1.7999 4.21248C1.7999 3.93748 1.8999 3.69998 2.0999 3.49998C2.28324 3.31664 2.51657 3.22498 2.7999 3.22498C3.08324 3.22498 3.31657 3.31664 3.4999 3.49998L20.4999 20.5C20.6832 20.6833 20.7791 20.9125 20.7874 21.1875C20.7957 21.4625 20.6999 21.7 20.4999 21.9C20.3166 22.0833 20.0832 22.175 19.7999 22.175C19.5166 22.175 19.2832 22.0833 19.0999 21.9ZM11.9999 16C12.1832 16 12.3582 15.9916 12.5249 15.975C12.6916 15.9583 12.8582 15.925 13.0249 15.875L7.6249 10.475C7.5749 10.6416 7.54157 10.8083 7.5249 10.975C7.50824 11.1416 7.4999 11.3166 7.4999 11.5C7.4999 12.75 7.9374 13.8125 8.8124 14.6875C9.6874 15.5625 10.7499 16 11.9999 16ZM11.9999 3.99998C14.2332 3.99998 16.2791 4.60414 18.1374 5.81248C19.9957 7.02081 21.4499 8.60831 22.4999 10.575C22.5832 10.7083 22.6457 10.8541 22.6874 11.0125C22.7291 11.1708 22.7499 11.3333 22.7499 11.5C22.7499 11.6666 22.7332 11.8291 22.6999 11.9875C22.6666 12.1458 22.6082 12.2916 22.5249 12.425C22.2082 13.0416 21.8541 13.625 21.4624 14.175C21.0707 14.725 20.6332 15.2416 20.1499 15.725C19.9166 15.9583 19.6416 16.0666 19.3249 16.05C19.0082 16.0333 18.7332 15.9083 18.4999 15.675L16.4999 13.675C16.3832 13.5583 16.3082 13.4208 16.2749 13.2625C16.2416 13.1041 16.2499 12.9416 16.2999 12.775C16.3666 12.5583 16.4166 12.35 16.4499 12.15C16.4832 11.95 16.4999 11.7333 16.4999 11.5C16.4999 10.25 16.0624 9.18748 15.1874 8.31248C14.3124 7.43748 13.2499 6.99998 11.9999 6.99998C11.7666 6.99998 11.5499 7.01664 11.3499 7.04998C11.1499 7.08331 10.9416 7.13331 10.7249 7.19998C10.5582 7.24998 10.3916 7.25831 10.2249 7.22498C10.0582 7.19164 9.91657 7.11664 9.7999 6.99998L8.9749 6.17498C8.65824 5.85831 8.55407 5.49164 8.6624 5.07498C8.77074 4.65831 9.03324 4.39164 9.4499 4.27498C9.86657 4.19164 10.2874 4.12498 10.7124 4.07498C11.1374 4.02498 11.5666 3.99998 11.9999 3.99998ZM13.9749 9.64998C14.1582 9.86664 14.3124 10.1041 14.4374 10.3625C14.5624 10.6208 14.6416 10.8916 14.6749 11.175C14.6916 11.3083 14.6416 11.4 14.5249 11.45C14.4082 11.5 14.2999 11.475 14.1999 11.375L12.1499 9.32498C12.0499 9.22498 12.0291 9.11664 12.0874 8.99998C12.1457 8.88331 12.2416 8.82498 12.3749 8.82498C12.6916 8.85831 12.9832 8.94581 13.2499 9.08748C13.5166 9.22914 13.7582 9.41664 13.9749 9.64998Z" fill="black"/>
</svg>
