<svg width="24" height="24" viewBox="0 0 24 24" fill="none" xmlns="http://www.w3.org/2000/svg">
<path d="M18.6886 6C20.5351 6.00003 21.9999 7.52947 22.0001 9.37598V15.3008C22.0031 15.7364 21.9192 16.1682 21.754 16.5713C21.5887 16.9745 21.3453 17.3412 21.0372 17.6494C20.7291 17.9576 20.3623 18.2018 19.9591 18.3672C19.556 18.5325 19.1242 18.6163 18.6886 18.6133H14.2931L15.3761 17.084L18.5606 16.0654C19.134 15.8738 19.5157 15.3 19.5157 14.7275V9.88672C19.5157 9.31422 19.134 8.74049 18.5606 8.54883L15.3751 7.5293L14.2921 6H18.6886Z" fill="#FF6A00"/>
<path d="M8.62508 7.52832L5.43954 8.54785C4.8662 8.73952 4.48446 9.31339 4.48446 9.88672L4.48348 14.7266C4.4836 15.2998 4.86713 15.8728 5.43954 16.0645L8.62411 17.0195L9.70809 18.5488H5.31161C4.87598 18.5518 4.44415 18.4681 4.0411 18.3027C3.6379 18.1373 3.2711 17.8932 2.96297 17.585C2.65506 17.2769 2.41145 16.9108 2.24618 16.5078C2.08086 16.1046 1.99699 15.6721 2.00008 15.2363V9.375C2.00032 7.52857 3.46528 6.00005 5.31258 6H9.70711L8.62508 7.52832Z" fill="#FF6A00"/>
<path d="M15.3761 11.4775V13.0068H8.68758V11.4775H15.3761Z" fill="#FF6A00"/>
</svg>
