<svg width="24" height="24" viewBox="0 0 24 24" fill="none" xmlns="http://www.w3.org/2000/svg">
<g clip-path="url(#clip0_5976_6954)">
<path d="M15.9766 5.81836C16.6343 5.81836 19.1172 5.87465 20.75 8.21484L21.0215 8.60449L20.6465 8.89551C20.4602 9.04003 18.459 10.1599 18.459 12.6924C18.4591 14.1598 19.0977 15.1413 19.75 15.7695C20.4003 16.3958 21.0555 16.6592 21.0703 16.666L21.4834 16.8047L21.4033 17.2334C21.3922 17.2925 21.3495 17.4338 21.292 17.6025C21.2287 17.7885 21.1348 18.0435 21.0078 18.3447C20.7542 18.9462 20.3643 19.7411 19.8125 20.5459L19.8115 20.5479C19.3452 21.219 18.8337 21.9424 18.2363 22.4932C17.63 23.0522 16.8949 23.4716 15.9795 23.4717C15.117 23.4717 14.5604 23.2123 14.0615 22.9951C13.5844 22.7874 13.1316 22.6026 12.3711 22.6025C11.632 22.6025 11.1362 22.7945 10.6221 23.0117C10.1049 23.2303 9.52184 23.5 8.7207 23.5C7.86577 23.5 7.16925 23.1027 6.56934 22.5479C5.9784 22.0012 5.43579 21.2595 4.8916 20.4961L4.89062 20.4932C3.56459 18.6073 2.50003 15.6987 2.5 12.9209C2.5 8.39631 5.47741 5.875 8.51855 5.875C9.34923 5.87509 10.0936 6.1475 10.6963 6.3877C11.0097 6.51261 11.2697 6.6232 11.5176 6.70703C11.7638 6.79028 11.9504 6.83003 12.0977 6.83008C12.2286 6.83008 12.4118 6.78993 12.6748 6.69922C12.9388 6.60818 13.2167 6.49114 13.5625 6.35742C14.2265 6.10065 15.0517 5.81843 15.9766 5.81836ZM16.8057 0.890625C16.8449 1.06546 16.8594 1.26316 16.8594 1.44238C16.8593 2.70396 16.3223 3.94135 15.5742 4.8291L15.5732 4.82812C15.1633 5.33367 14.6155 5.76534 14.0361 6.07129C13.457 6.37704 12.8127 6.57617 12.21 6.57617C12.0564 6.57616 11.9097 6.55619 11.8184 6.53906L11.5 6.47949L11.4248 6.16406C11.4033 6.07433 11.3692 5.8636 11.3691 5.64941C11.3691 4.35169 12.0248 3.11246 12.7061 2.33789C13.5808 1.32554 15.027 0.547881 16.2988 0.5L16.7148 0.484375L16.8057 0.890625Z" fill="black" stroke="white"/>
</g>
<defs>
<clipPath id="clip0_5976_6954">
<rect width="24" height="24" fill="white"/>
</clipPath>
</defs>
</svg>
