<svg width="24" height="24" viewBox="0 0 24 24" fill="none" xmlns="http://www.w3.org/2000/svg">
<path d="M20.437 12.0236C20.6701 11.9853 20.8826 12.1802 20.8582 12.4168C20.3641 17.253 15.3608 21.1256 13.1688 22.6043C13.1659 22.6071 13.1623 22.6075 13.1623 22.6075C12.9117 22.7745 12.5809 22.5623 12.6121 22.2631L12.9604 18.9441C13.5346 15.4474 16.2762 12.7057 19.7729 12.1316H19.7762L20.437 12.0236Z" fill="#191919"/>
<path d="M3.74626 12.0118L4.45915 12.1297C7.95581 12.7038 10.6975 15.4456 11.2716 18.9422L11.2756 18.9389L11.6265 22.2963C11.6543 22.5712 11.3516 22.756 11.1219 22.603C8.91249 21.1242 3.83966 17.2268 3.36995 12.3627C3.34923 12.1506 3.53757 11.977 3.74626 12.0118Z" fill="#191919"/>
<path d="M11.0054 1.33475C11.3394 1.3104 11.6076 1.59926 11.5555 1.9298L11.2736 3.63097C10.6996 7.12762 7.9577 9.86929 4.4611 10.4435L3.92855 10.5307C3.61543 10.5829 3.33354 10.3428 3.3335 10.0262V4.6505C3.3335 3.9199 3.77535 3.26591 4.44678 2.991C5.83503 2.42387 8.34372 1.54004 11.0054 1.33475Z" fill="#191919"/>
<path d="M13.2254 1.33475C15.8869 1.54006 18.3986 2.4204 19.7834 2.991C20.4549 3.26935 20.8973 3.92332 20.8973 4.6505V10.0262C20.8972 10.3427 20.6153 10.5828 20.3022 10.5307L19.7697 10.4435C16.273 9.86936 13.5313 7.12769 12.9572 3.63097L12.6753 1.9298C12.6196 1.59926 12.8914 1.3104 13.2254 1.33475Z" fill="#191919"/>
</svg>
