<svg width="24" height="24" viewBox="0 0 24 24" fill="none" xmlns="http://www.w3.org/2000/svg">
<mask id="path-1-outside-1_5976_6988" maskUnits="userSpaceOnUse" x="1" y="4.80432" width="22" height="9" fill="black">
<rect fill="white" x="1" y="4.80432" width="22" height="9"/>
<path d="M7.24293 10.6671C7.24293 10.9426 7.27194 11.166 7.3227 11.3299C7.38071 11.4937 7.45323 11.6724 7.55475 11.866C7.59101 11.9256 7.60551 11.9852 7.60551 12.0373C7.60551 12.1118 7.562 12.1862 7.46773 12.2607L7.01088 12.5735C6.94561 12.6182 6.88035 12.6405 6.82234 12.6405C6.74982 12.6405 6.6773 12.6033 6.60479 12.5362C6.50326 12.4245 6.41624 12.3054 6.34373 12.1862C6.27121 12.0596 6.1987 11.9182 6.11893 11.7469C5.5533 12.432 4.84264 12.7745 3.98695 12.7745C3.37781 12.7745 2.89195 12.5958 2.53662 12.2384C2.18129 11.8809 2 11.4043 2 10.8086C2 10.1756 2.21755 9.66177 2.6599 9.27453C3.10225 8.8873 3.68963 8.69368 4.43655 8.69368C4.6831 8.69368 4.93691 8.71602 5.20522 8.75326C5.47353 8.79049 5.74909 8.85007 6.03916 8.91709V8.37347C6.03916 7.80751 5.92313 7.41283 5.69833 7.18198C5.46628 6.95113 5.07469 6.83943 4.51632 6.83943C4.26251 6.83943 4.00145 6.86921 3.73314 6.93624C3.46483 7.00326 3.20377 7.08517 2.94996 7.18943C2.83394 7.24156 2.74692 7.27134 2.69616 7.28624C2.6454 7.30113 2.60914 7.30858 2.58013 7.30858C2.47861 7.30858 2.42785 7.23411 2.42785 7.07773V6.71283C2.42785 6.59368 2.44235 6.50432 2.47861 6.45219C2.51487 6.40007 2.58013 6.34794 2.68165 6.29581C2.93546 6.16177 3.24003 6.05007 3.59536 5.9607C3.95069 5.8639 4.32777 5.81921 4.72661 5.81921C5.58956 5.81921 6.22045 6.02028 6.62654 6.42241C7.02538 6.82453 7.22843 7.43517 7.22843 8.25432V10.6671H7.24293ZM4.29877 11.799C4.53807 11.799 4.78463 11.7543 5.04569 11.665C5.30674 11.5756 5.5388 11.4118 5.73459 11.1884C5.85062 11.0469 5.93764 10.8905 5.98115 10.7118C6.02466 10.533 6.05366 10.3171 6.05366 10.0639V9.75113C5.84337 9.699 5.61856 9.65432 5.38651 9.62453C5.15446 9.59475 4.92966 9.57985 4.70486 9.57985C4.219 9.57985 3.86367 9.67666 3.62437 9.87773C3.38506 10.0788 3.26904 10.3618 3.26904 10.7341C3.26904 11.0841 3.35606 11.3447 3.53735 11.5235C3.71139 11.7096 3.96519 11.799 4.29877 11.799ZM10.1218 12.6033C9.9913 12.6033 9.90428 12.5809 9.84627 12.5288C9.78825 12.4841 9.73749 12.3799 9.69398 12.2384L7.98985 6.48198C7.94634 6.33304 7.92458 6.23624 7.92458 6.18411C7.92458 6.06496 7.9826 5.99794 8.09862 5.99794H8.80928C8.94706 5.99794 9.04134 6.02028 9.0921 6.07241C9.15011 6.11709 9.19362 6.22134 9.23713 6.36283L10.4554 11.2926L11.5867 6.36283C11.6229 6.2139 11.6664 6.11709 11.7244 6.07241C11.7825 6.02773 11.884 5.99794 12.0145 5.99794H12.5946C12.7324 5.99794 12.8267 6.02028 12.8847 6.07241C12.9427 6.11709 12.9935 6.22134 13.0225 6.36283L14.1682 11.3522L15.4228 6.36283C15.4663 6.2139 15.517 6.11709 15.5678 6.07241C15.6258 6.02773 15.7201 5.99794 15.8506 5.99794H16.525C16.641 5.99794 16.7063 6.05751 16.7063 6.18411C16.7063 6.22134 16.6991 6.25858 16.6918 6.30326C16.6846 6.34794 16.6701 6.40751 16.641 6.48943L14.8934 12.2458C14.8499 12.3947 14.7991 12.4916 14.7411 12.5362C14.6831 12.5809 14.5888 12.6107 14.4656 12.6107H13.8419C13.7041 12.6107 13.6099 12.5884 13.5518 12.5362C13.4938 12.4841 13.4431 12.3873 13.4141 12.2384L12.2901 7.43517L11.1733 12.2309C11.1371 12.3799 11.0935 12.4767 11.0355 12.5288C10.9775 12.5809 10.876 12.6033 10.7455 12.6033H10.1218ZM19.4402 12.8043C19.0631 12.8043 18.686 12.7596 18.3234 12.6703C17.9608 12.5809 17.678 12.4841 17.4895 12.3724C17.3735 12.3054 17.2937 12.2309 17.2647 12.1639C17.2357 12.0969 17.2212 12.0224 17.2212 11.9554V11.5756C17.2212 11.4192 17.2792 11.3447 17.388 11.3447C17.4315 11.3447 17.475 11.3522 17.5185 11.3671C17.562 11.382 17.6273 11.4118 17.6998 11.4416C17.9463 11.5533 18.2146 11.6426 18.4975 11.7022C18.7875 11.7618 19.0703 11.7916 19.3604 11.7916C19.8173 11.7916 20.1726 11.7096 20.4191 11.5458C20.6657 11.382 20.7962 11.1437 20.7962 10.8384C20.7962 10.6299 20.731 10.4586 20.6004 10.3171C20.4699 10.1756 20.2234 10.049 19.868 9.92985L18.8165 9.59475C18.2872 9.42347 17.8956 9.17028 17.6563 8.83517C17.417 8.50751 17.2937 8.14262 17.2937 7.75538C17.2937 7.44262 17.359 7.16709 17.4895 6.92879C17.62 6.69049 17.7941 6.48198 18.0116 6.31815C18.2292 6.14687 18.4757 6.02028 18.7658 5.93092C19.0558 5.84156 19.3604 5.80432 19.6795 5.80432C19.839 5.80432 20.0058 5.81177 20.1653 5.83411C20.3321 5.85645 20.4844 5.88624 20.6367 5.91602C20.7817 5.95326 20.9195 5.99049 21.05 6.03517C21.1806 6.07985 21.2821 6.12453 21.3546 6.16921C21.4561 6.22879 21.5286 6.28836 21.5722 6.35539C21.6157 6.41496 21.6374 6.49687 21.6374 6.60113V6.95113C21.6374 7.10751 21.5794 7.18943 21.4706 7.18943C21.4126 7.18943 21.3183 7.15964 21.1951 7.10007C20.7817 6.90645 20.3176 6.80964 19.8028 6.80964C19.3894 6.80964 19.0631 6.87666 18.8383 7.01815C18.6135 7.15964 18.4975 7.3756 18.4975 7.68092C18.4975 7.88943 18.57 8.06815 18.715 8.20964C18.86 8.35113 19.1284 8.49262 19.5127 8.61922L20.5424 8.95432C21.0645 9.1256 21.4416 9.3639 21.6664 9.66921C21.8912 9.97453 22 10.3245 22 10.7118C22 11.032 21.9347 11.3224 21.8115 11.5756C21.6809 11.8288 21.5069 12.0522 21.2821 12.2309C21.0573 12.4171 20.789 12.5511 20.4772 12.6479C20.1508 12.7522 19.81 12.8043 19.4402 12.8043Z"/>
</mask>
<path d="M7.24293 10.6671C7.24293 10.9426 7.27194 11.166 7.3227 11.3299C7.38071 11.4937 7.45323 11.6724 7.55475 11.866C7.59101 11.9256 7.60551 11.9852 7.60551 12.0373C7.60551 12.1118 7.562 12.1862 7.46773 12.2607L7.01088 12.5735C6.94561 12.6182 6.88035 12.6405 6.82234 12.6405C6.74982 12.6405 6.6773 12.6033 6.60479 12.5362C6.50326 12.4245 6.41624 12.3054 6.34373 12.1862C6.27121 12.0596 6.1987 11.9182 6.11893 11.7469C5.5533 12.432 4.84264 12.7745 3.98695 12.7745C3.37781 12.7745 2.89195 12.5958 2.53662 12.2384C2.18129 11.8809 2 11.4043 2 10.8086C2 10.1756 2.21755 9.66177 2.6599 9.27453C3.10225 8.8873 3.68963 8.69368 4.43655 8.69368C4.6831 8.69368 4.93691 8.71602 5.20522 8.75326C5.47353 8.79049 5.74909 8.85007 6.03916 8.91709V8.37347C6.03916 7.80751 5.92313 7.41283 5.69833 7.18198C5.46628 6.95113 5.07469 6.83943 4.51632 6.83943C4.26251 6.83943 4.00145 6.86921 3.73314 6.93624C3.46483 7.00326 3.20377 7.08517 2.94996 7.18943C2.83394 7.24156 2.74692 7.27134 2.69616 7.28624C2.6454 7.30113 2.60914 7.30858 2.58013 7.30858C2.47861 7.30858 2.42785 7.23411 2.42785 7.07773V6.71283C2.42785 6.59368 2.44235 6.50432 2.47861 6.45219C2.51487 6.40007 2.58013 6.34794 2.68165 6.29581C2.93546 6.16177 3.24003 6.05007 3.59536 5.9607C3.95069 5.8639 4.32777 5.81921 4.72661 5.81921C5.58956 5.81921 6.22045 6.02028 6.62654 6.42241C7.02538 6.82453 7.22843 7.43517 7.22843 8.25432V10.6671H7.24293ZM4.29877 11.799C4.53807 11.799 4.78463 11.7543 5.04569 11.665C5.30674 11.5756 5.5388 11.4118 5.73459 11.1884C5.85062 11.0469 5.93764 10.8905 5.98115 10.7118C6.02466 10.533 6.05366 10.3171 6.05366 10.0639V9.75113C5.84337 9.699 5.61856 9.65432 5.38651 9.62453C5.15446 9.59475 4.92966 9.57985 4.70486 9.57985C4.219 9.57985 3.86367 9.67666 3.62437 9.87773C3.38506 10.0788 3.26904 10.3618 3.26904 10.7341C3.26904 11.0841 3.35606 11.3447 3.53735 11.5235C3.71139 11.7096 3.96519 11.799 4.29877 11.799ZM10.1218 12.6033C9.9913 12.6033 9.90428 12.5809 9.84627 12.5288C9.78825 12.4841 9.73749 12.3799 9.69398 12.2384L7.98985 6.48198C7.94634 6.33304 7.92458 6.23624 7.92458 6.18411C7.92458 6.06496 7.9826 5.99794 8.09862 5.99794H8.80928C8.94706 5.99794 9.04134 6.02028 9.0921 6.07241C9.15011 6.11709 9.19362 6.22134 9.23713 6.36283L10.4554 11.2926L11.5867 6.36283C11.6229 6.2139 11.6664 6.11709 11.7244 6.07241C11.7825 6.02773 11.884 5.99794 12.0145 5.99794H12.5946C12.7324 5.99794 12.8267 6.02028 12.8847 6.07241C12.9427 6.11709 12.9935 6.22134 13.0225 6.36283L14.1682 11.3522L15.4228 6.36283C15.4663 6.2139 15.517 6.11709 15.5678 6.07241C15.6258 6.02773 15.7201 5.99794 15.8506 5.99794H16.525C16.641 5.99794 16.7063 6.05751 16.7063 6.18411C16.7063 6.22134 16.6991 6.25858 16.6918 6.30326C16.6846 6.34794 16.6701 6.40751 16.641 6.48943L14.8934 12.2458C14.8499 12.3947 14.7991 12.4916 14.7411 12.5362C14.6831 12.5809 14.5888 12.6107 14.4656 12.6107H13.8419C13.7041 12.6107 13.6099 12.5884 13.5518 12.5362C13.4938 12.4841 13.4431 12.3873 13.4141 12.2384L12.2901 7.43517L11.1733 12.2309C11.1371 12.3799 11.0935 12.4767 11.0355 12.5288C10.9775 12.5809 10.876 12.6033 10.7455 12.6033H10.1218ZM19.4402 12.8043C19.0631 12.8043 18.686 12.7596 18.3234 12.6703C17.9608 12.5809 17.678 12.4841 17.4895 12.3724C17.3735 12.3054 17.2937 12.2309 17.2647 12.1639C17.2357 12.0969 17.2212 12.0224 17.2212 11.9554V11.5756C17.2212 11.4192 17.2792 11.3447 17.388 11.3447C17.4315 11.3447 17.475 11.3522 17.5185 11.3671C17.562 11.382 17.6273 11.4118 17.6998 11.4416C17.9463 11.5533 18.2146 11.6426 18.4975 11.7022C18.7875 11.7618 19.0703 11.7916 19.3604 11.7916C19.8173 11.7916 20.1726 11.7096 20.4191 11.5458C20.6657 11.382 20.7962 11.1437 20.7962 10.8384C20.7962 10.6299 20.731 10.4586 20.6004 10.3171C20.4699 10.1756 20.2234 10.049 19.868 9.92985L18.8165 9.59475C18.2872 9.42347 17.8956 9.17028 17.6563 8.83517C17.417 8.50751 17.2937 8.14262 17.2937 7.75538C17.2937 7.44262 17.359 7.16709 17.4895 6.92879C17.62 6.69049 17.7941 6.48198 18.0116 6.31815C18.2292 6.14687 18.4757 6.02028 18.7658 5.93092C19.0558 5.84156 19.3604 5.80432 19.6795 5.80432C19.839 5.80432 20.0058 5.81177 20.1653 5.83411C20.3321 5.85645 20.4844 5.88624 20.6367 5.91602C20.7817 5.95326 20.9195 5.99049 21.05 6.03517C21.1806 6.07985 21.2821 6.12453 21.3546 6.16921C21.4561 6.22879 21.5286 6.28836 21.5722 6.35539C21.6157 6.41496 21.6374 6.49687 21.6374 6.60113V6.95113C21.6374 7.10751 21.5794 7.18943 21.4706 7.18943C21.4126 7.18943 21.3183 7.15964 21.1951 7.10007C20.7817 6.90645 20.3176 6.80964 19.8028 6.80964C19.3894 6.80964 19.0631 6.87666 18.8383 7.01815C18.6135 7.15964 18.4975 7.3756 18.4975 7.68092C18.4975 7.88943 18.57 8.06815 18.715 8.20964C18.86 8.35113 19.1284 8.49262 19.5127 8.61922L20.5424 8.95432C21.0645 9.1256 21.4416 9.3639 21.6664 9.66921C21.8912 9.97453 22 10.3245 22 10.7118C22 11.032 21.9347 11.3224 21.8115 11.5756C21.6809 11.8288 21.5069 12.0522 21.2821 12.2309C21.0573 12.4171 20.789 12.5511 20.4772 12.6479C20.1508 12.7522 19.81 12.8043 19.4402 12.8043Z" fill="#252F3E"/>
<path d="M7.24293 10.6671C7.24293 10.9426 7.27194 11.166 7.3227 11.3299C7.38071 11.4937 7.45323 11.6724 7.55475 11.866C7.59101 11.9256 7.60551 11.9852 7.60551 12.0373C7.60551 12.1118 7.562 12.1862 7.46773 12.2607L7.01088 12.5735C6.94561 12.6182 6.88035 12.6405 6.82234 12.6405C6.74982 12.6405 6.6773 12.6033 6.60479 12.5362C6.50326 12.4245 6.41624 12.3054 6.34373 12.1862C6.27121 12.0596 6.1987 11.9182 6.11893 11.7469C5.5533 12.432 4.84264 12.7745 3.98695 12.7745C3.37781 12.7745 2.89195 12.5958 2.53662 12.2384C2.18129 11.8809 2 11.4043 2 10.8086C2 10.1756 2.21755 9.66177 2.6599 9.27453C3.10225 8.8873 3.68963 8.69368 4.43655 8.69368C4.6831 8.69368 4.93691 8.71602 5.20522 8.75326C5.47353 8.79049 5.74909 8.85007 6.03916 8.91709V8.37347C6.03916 7.80751 5.92313 7.41283 5.69833 7.18198C5.46628 6.95113 5.07469 6.83943 4.51632 6.83943C4.26251 6.83943 4.00145 6.86921 3.73314 6.93624C3.46483 7.00326 3.20377 7.08517 2.94996 7.18943C2.83394 7.24156 2.74692 7.27134 2.69616 7.28624C2.6454 7.30113 2.60914 7.30858 2.58013 7.30858C2.47861 7.30858 2.42785 7.23411 2.42785 7.07773V6.71283C2.42785 6.59368 2.44235 6.50432 2.47861 6.45219C2.51487 6.40007 2.58013 6.34794 2.68165 6.29581C2.93546 6.16177 3.24003 6.05007 3.59536 5.9607C3.95069 5.8639 4.32777 5.81921 4.72661 5.81921C5.58956 5.81921 6.22045 6.02028 6.62654 6.42241C7.02538 6.82453 7.22843 7.43517 7.22843 8.25432V10.6671H7.24293ZM4.29877 11.799C4.53807 11.799 4.78463 11.7543 5.04569 11.665C5.30674 11.5756 5.5388 11.4118 5.73459 11.1884C5.85062 11.0469 5.93764 10.8905 5.98115 10.7118C6.02466 10.533 6.05366 10.3171 6.05366 10.0639V9.75113C5.84337 9.699 5.61856 9.65432 5.38651 9.62453C5.15446 9.59475 4.92966 9.57985 4.70486 9.57985C4.219 9.57985 3.86367 9.67666 3.62437 9.87773C3.38506 10.0788 3.26904 10.3618 3.26904 10.7341C3.26904 11.0841 3.35606 11.3447 3.53735 11.5235C3.71139 11.7096 3.96519 11.799 4.29877 11.799ZM10.1218 12.6033C9.9913 12.6033 9.90428 12.5809 9.84627 12.5288C9.78825 12.4841 9.73749 12.3799 9.69398 12.2384L7.98985 6.48198C7.94634 6.33304 7.92458 6.23624 7.92458 6.18411C7.92458 6.06496 7.9826 5.99794 8.09862 5.99794H8.80928C8.94706 5.99794 9.04134 6.02028 9.0921 6.07241C9.15011 6.11709 9.19362 6.22134 9.23713 6.36283L10.4554 11.2926L11.5867 6.36283C11.6229 6.2139 11.6664 6.11709 11.7244 6.07241C11.7825 6.02773 11.884 5.99794 12.0145 5.99794H12.5946C12.7324 5.99794 12.8267 6.02028 12.8847 6.07241C12.9427 6.11709 12.9935 6.22134 13.0225 6.36283L14.1682 11.3522L15.4228 6.36283C15.4663 6.2139 15.517 6.11709 15.5678 6.07241C15.6258 6.02773 15.7201 5.99794 15.8506 5.99794H16.525C16.641 5.99794 16.7063 6.05751 16.7063 6.18411C16.7063 6.22134 16.6991 6.25858 16.6918 6.30326C16.6846 6.34794 16.6701 6.40751 16.641 6.48943L14.8934 12.2458C14.8499 12.3947 14.7991 12.4916 14.7411 12.5362C14.6831 12.5809 14.5888 12.6107 14.4656 12.6107H13.8419C13.7041 12.6107 13.6099 12.5884 13.5518 12.5362C13.4938 12.4841 13.4431 12.3873 13.4141 12.2384L12.2901 7.43517L11.1733 12.2309C11.1371 12.3799 11.0935 12.4767 11.0355 12.5288C10.9775 12.5809 10.876 12.6033 10.7455 12.6033H10.1218ZM19.4402 12.8043C19.0631 12.8043 18.686 12.7596 18.3234 12.6703C17.9608 12.5809 17.678 12.4841 17.4895 12.3724C17.3735 12.3054 17.2937 12.2309 17.2647 12.1639C17.2357 12.0969 17.2212 12.0224 17.2212 11.9554V11.5756C17.2212 11.4192 17.2792 11.3447 17.388 11.3447C17.4315 11.3447 17.475 11.3522 17.5185 11.3671C17.562 11.382 17.6273 11.4118 17.6998 11.4416C17.9463 11.5533 18.2146 11.6426 18.4975 11.7022C18.7875 11.7618 19.0703 11.7916 19.3604 11.7916C19.8173 11.7916 20.1726 11.7096 20.4191 11.5458C20.6657 11.382 20.7962 11.1437 20.7962 10.8384C20.7962 10.6299 20.731 10.4586 20.6004 10.3171C20.4699 10.1756 20.2234 10.049 19.868 9.92985L18.8165 9.59475C18.2872 9.42347 17.8956 9.17028 17.6563 8.83517C17.417 8.50751 17.2937 8.14262 17.2937 7.75538C17.2937 7.44262 17.359 7.16709 17.4895 6.92879C17.62 6.69049 17.7941 6.48198 18.0116 6.31815C18.2292 6.14687 18.4757 6.02028 18.7658 5.93092C19.0558 5.84156 19.3604 5.80432 19.6795 5.80432C19.839 5.80432 20.0058 5.81177 20.1653 5.83411C20.3321 5.85645 20.4844 5.88624 20.6367 5.91602C20.7817 5.95326 20.9195 5.99049 21.05 6.03517C21.1806 6.07985 21.2821 6.12453 21.3546 6.16921C21.4561 6.22879 21.5286 6.28836 21.5722 6.35539C21.6157 6.41496 21.6374 6.49687 21.6374 6.60113V6.95113C21.6374 7.10751 21.5794 7.18943 21.4706 7.18943C21.4126 7.18943 21.3183 7.15964 21.1951 7.10007C20.7817 6.90645 20.3176 6.80964 19.8028 6.80964C19.3894 6.80964 19.0631 6.87666 18.8383 7.01815C18.6135 7.15964 18.4975 7.3756 18.4975 7.68092C18.4975 7.88943 18.57 8.06815 18.715 8.20964C18.86 8.35113 19.1284 8.49262 19.5127 8.61922L20.5424 8.95432C21.0645 9.1256 21.4416 9.3639 21.6664 9.66921C21.8912 9.97453 22 10.3245 22 10.7118C22 11.032 21.9347 11.3224 21.8115 11.5756C21.6809 11.8288 21.5069 12.0522 21.2821 12.2309C21.0573 12.4171 20.789 12.5511 20.4772 12.6479C20.1508 12.7522 19.81 12.8043 19.4402 12.8043Z" stroke="white" stroke-width="2" mask="url(#path-1-outside-1_5976_6988)"/>
<path d="M0.654297 14.5436C0.903554 14.2509 1.29546 14.2586 1.57324 14.403C4.59342 15.9591 8.3299 16.9048 12.1973 16.9049C14.8016 16.9049 17.6669 16.4227 20.2998 15.4342V15.4352C20.6702 15.2906 21.0997 15.372 21.3428 15.6832C21.4698 15.8459 21.5365 16.0683 21.4805 16.3024C21.426 16.53 21.2729 16.6987 21.1006 16.8121V16.8131C18.6011 18.4526 15.0126 19.3043 11.9424 19.3043C7.63157 19.3043 3.73491 17.8885 0.78418 15.5221C0.65753 15.4205 0.545696 15.2721 0.510742 15.0807C0.474961 14.884 0.530607 14.6889 0.654297 14.5436Z" fill="#FF9900" stroke="white"/>
<path d="M21.4248 13.3053C21.8305 13.2994 22.2076 13.3361 22.5107 13.4C22.6616 13.4319 22.805 13.4729 22.9287 13.524C23.0082 13.5569 23.1181 13.6087 23.2158 13.692L23.3086 13.7867L23.3115 13.7906C23.4287 13.9393 23.4664 14.1206 23.4824 14.236C23.5012 14.371 23.5042 14.5226 23.4961 14.6783C23.4797 14.9916 23.4161 15.3708 23.3047 15.7662C23.0849 16.5463 22.6532 17.4756 21.9238 18.0983L21.9229 18.0973C21.764 18.2336 21.4582 18.3958 21.1367 18.2448C20.9607 18.1619 20.8447 18.0061 20.8037 17.8297C20.7659 17.6664 20.7969 17.5135 20.8428 17.3971L20.8438 17.3961C20.9864 17.0378 21.206 16.4786 21.3545 15.9664C21.4293 15.7086 21.4798 15.4825 21.4971 15.3112C21.5016 15.2663 21.5029 15.2298 21.5029 15.2008C21.4759 15.1937 21.4416 15.1872 21.3994 15.1803C21.2333 15.1532 21.0073 15.1445 20.7441 15.151C20.2218 15.1638 19.6371 15.2328 19.2549 15.2799L19.2559 15.2809C19.1312 15.2967 18.973 15.2887 18.8223 15.2076C18.6589 15.1198 18.5428 14.9645 18.5098 14.777C18.4502 14.4374 18.6708 14.1825 18.8398 14.0582L18.8457 14.0533C19.6277 13.496 20.6245 13.3169 21.4248 13.3053Z" fill="#FF9900" stroke="white"/>
</svg>
