<svg width="24" height="24" viewBox="0 0 24 24" fill="none" xmlns="http://www.w3.org/2000/svg">
<path fill-rule="evenodd" clip-rule="evenodd" d="M10.0055 15.2602H6.14378C4.23457 15.2602 2.67257 13.7253 2.67257 11.8071C2.67257 9.88888 4.14788 8.35376 6.14378 8.35376C6.49099 8.35376 6.88132 8.4391 7.31544 8.48154L8.05299 8.69465L8.26994 7.96999C8.96413 5.7531 11.1339 4.38887 13.607 4.38887C16.601 4.38887 18.9007 6.64843 18.9007 9.58999C18.9007 10.0589 18.814 10.528 18.6838 10.9969L18.3801 12.0627L19.5516 11.9349H19.7685C20.6363 11.9349 21.3305 12.6595 21.3305 13.4698C21.3305 14.28 20.723 14.8767 19.9855 15.0044H16.1235C15.9935 13.9387 15.4293 13.0007 14.6915 12.276C13.737 11.338 12.4353 10.7838 11.0901 10.7838C10.1356 10.7838 9.18087 11.0395 8.44332 11.5084L9.26778 12.7873C9.87528 12.4462 10.4828 12.3184 11.177 12.3184C12.1317 12.3184 13.0862 12.6595 13.6937 13.3842C14.3879 14.0664 14.7785 14.9191 14.7785 15.8569C14.7785 16.7947 14.4315 17.7327 13.6937 18.3295C12.9995 19.0542 12.1317 19.3953 11.177 19.3953C10.4828 19.3953 9.83194 19.1822 9.26778 18.7984L8.44332 20.0773C9.26778 20.5467 10.2225 20.8878 11.0903 20.8878C12.4353 20.8878 13.737 20.4189 14.6918 19.4382C15.5162 18.6282 15.9935 17.5624 16.1237 16.454H20.1589C21.7209 16.3262 22.8925 15.0044 22.8925 13.3844C22.8925 12.1055 21.6775 10.9118 20.2458 10.656C20.3327 10.4002 20.3327 10.2722 20.3327 9.84599C20.3325 6.09421 17.6422 3.10999 13.3465 3.10999C10.613 3.10999 8.18303 4.64487 7.18497 7.11754C6.83776 7.11754 6.57746 6.98976 6.18712 6.98976C3.36677 6.94687 1.11035 9.07865 1.11035 11.8071C1.11035 14.4929 3.36677 16.6247 6.05687 16.6247H10.3092L10.0055 15.2602Z" fill="#0078D6"/>
<path fill-rule="evenodd" clip-rule="evenodd" d="M8.57387 15.8145C8.57387 14.4918 9.65753 13.4271 11.0037 13.4271C12.3498 13.4271 13.4335 14.4918 13.4335 15.8145C13.4335 17.1371 12.3498 18.2018 11.0037 18.2018C9.65753 18.2018 8.57387 17.1369 8.57387 15.8145Z" fill="#0078D6"/>
</svg>
