<svg width="24" height="24" viewBox="0 0 24 24" fill="none" xmlns="http://www.w3.org/2000/svg">
<mask id="path-1-outside-1_5976_6962" maskUnits="userSpaceOnUse" x="1" y="0.999939" width="19" height="23" fill="black">
<rect fill="white" x="1" y="0.999939" width="19" height="23"/>
<path d="M12.6797 2.00019C14.3664 1.98831 16.0773 2.39258 17.6572 3.2248L16.6357 5.16328C15.3765 4.49746 14.0219 4.18867 12.6914 4.18867C11.171 4.18875 9.67383 4.59264 8.36719 5.36543C7.06058 6.12645 5.94384 7.24419 5.18359 8.68281C4.5065 9.93128 4.19826 11.275 4.19824 12.6066C4.19824 14.1168 4.60182 15.6153 5.37402 16.9113C6.14617 18.2073 7.27452 19.3135 8.71191 20.0744L7.69043 22.0002C5.88478 21.0489 4.45947 19.6577 3.48535 18.0168C2.51123 16.3878 2 14.5092 2 12.6066C2.00002 10.9421 2.40383 9.24172 3.23535 7.66035C4.18569 5.86487 5.59985 4.43797 7.23926 3.4748C8.87852 2.51176 10.7672 2.00024 12.6797 2.00019ZM12.8223 7.16035C11.7057 7.16041 10.6719 7.5055 9.80469 8.08808C8.93764 8.67067 8.24859 9.50305 7.84473 10.466C7.5715 11.1081 7.41699 11.8224 7.41699 12.5715C7.41709 13.6889 7.76182 14.7232 8.34375 15.591C8.92581 16.459 9.74567 17.1487 10.7197 17.5529C11.3611 17.8264 12.0739 17.9816 12.8223 17.9816V20.1691C11.2424 20.1691 9.78098 19.6935 8.56934 18.885C7.35781 18.0646 6.39556 16.9113 5.81348 15.5441C5.43335 14.6287 5.21977 13.6295 5.21973 12.5832C5.21973 11.0138 5.69494 9.53931 6.52637 8.31465C7.346 7.10188 8.49824 6.15022 9.86426 5.56758C10.7789 5.18712 11.777 4.97289 12.8223 4.97285V7.16035Z"/>
</mask>
<path d="M12.6797 2.00019C14.3664 1.98831 16.0773 2.39258 17.6572 3.2248L16.6357 5.16328C15.3765 4.49746 14.0219 4.18867 12.6914 4.18867C11.171 4.18875 9.67383 4.59264 8.36719 5.36543C7.06058 6.12645 5.94384 7.24419 5.18359 8.68281C4.5065 9.93128 4.19826 11.275 4.19824 12.6066C4.19824 14.1168 4.60182 15.6153 5.37402 16.9113C6.14617 18.2073 7.27452 19.3135 8.71191 20.0744L7.69043 22.0002C5.88478 21.0489 4.45947 19.6577 3.48535 18.0168C2.51123 16.3878 2 14.5092 2 12.6066C2.00002 10.9421 2.40383 9.24172 3.23535 7.66035C4.18569 5.86487 5.59985 4.43797 7.23926 3.4748C8.87852 2.51176 10.7672 2.00024 12.6797 2.00019ZM12.8223 7.16035C11.7057 7.16041 10.6719 7.5055 9.80469 8.08808C8.93764 8.67067 8.24859 9.50305 7.84473 10.466C7.5715 11.1081 7.41699 11.8224 7.41699 12.5715C7.41709 13.6889 7.76182 14.7232 8.34375 15.591C8.92581 16.459 9.74567 17.1487 10.7197 17.5529C11.3611 17.8264 12.0739 17.9816 12.8223 17.9816V20.1691C11.2424 20.1691 9.78098 19.6935 8.56934 18.885C7.35781 18.0646 6.39556 16.9113 5.81348 15.5441C5.43335 14.6287 5.21977 13.6295 5.21973 12.5832C5.21973 11.0138 5.69494 9.53931 6.52637 8.31465C7.346 7.10188 8.49824 6.15022 9.86426 5.56758C10.7789 5.18712 11.777 4.97289 12.8223 4.97285V7.16035Z" fill="#F05A28"/>
<path d="M12.6797 2.00019L12.6797 3.00022L12.6867 3.00017L12.6797 2.00019ZM17.6572 3.2248L18.5419 3.69099L19.0082 2.80617L18.1233 2.34005L17.6572 3.2248ZM16.6357 5.16328L16.1683 6.04731L17.0536 6.5154L17.5204 5.62947L16.6357 5.16328ZM12.6914 4.18867V3.18867L12.6914 3.18867L12.6914 4.18867ZM8.36719 5.36543L8.87049 6.22956L8.87625 6.22616L8.36719 5.36543ZM5.18359 8.68281L6.06269 9.15958L6.06773 9.15004L5.18359 8.68281ZM4.19824 12.6066L3.19824 12.6066V12.6066H4.19824ZM5.37402 16.9113L6.23311 16.3995L6.2331 16.3995L5.37402 16.9113ZM8.71191 20.0744L9.59533 20.543L10.0643 19.6589L9.17979 19.1906L8.71191 20.0744ZM7.69043 22.0002L7.22434 22.8849L8.10658 23.3497L8.57385 22.4688L7.69043 22.0002ZM3.48535 18.0168L4.34524 17.5063L4.34361 17.5036L3.48535 18.0168ZM2 12.6066L1 12.6066V12.6066H2ZM3.23535 7.66035L2.35152 7.19254L2.35025 7.19494L3.23535 7.66035ZM7.23926 3.4748L6.73272 2.61259L6.7327 2.6126L7.23926 3.4748ZM12.8223 7.16035L12.8223 8.16035L13.8223 8.16029V7.16035H12.8223ZM9.80469 8.08808L9.24703 7.25801L9.24697 7.25805L9.80469 8.08808ZM7.84473 10.466L8.76489 10.8576L8.76691 10.8528L7.84473 10.466ZM7.41699 12.5715H6.41699V12.5716L7.41699 12.5715ZM8.34375 15.591L7.51319 16.1479L7.51322 16.148L8.34375 15.591ZM10.7197 17.5529L11.1119 16.633L11.1031 16.6293L10.7197 17.5529ZM12.8223 17.9816H13.8223V16.9817L12.8223 16.9816L12.8223 17.9816ZM12.8223 20.1691L12.8222 21.1691L13.8223 21.1692V20.1691H12.8223ZM8.56934 18.885L8.00865 19.713L8.01427 19.7168L8.56934 18.885ZM5.81348 15.5441L4.88989 15.9276L4.8934 15.9359L5.81348 15.5441ZM5.21973 12.5832H4.21973V12.5832L5.21973 12.5832ZM6.52637 8.31465L7.35372 8.87634L7.3549 8.87459L6.52637 8.31465ZM9.86426 5.56758L9.48018 4.64423L9.47193 4.64775L9.86426 5.56758ZM12.8223 4.97285H13.8223V3.97281L12.8222 3.97285L12.8223 4.97285ZM12.6797 2.00019L12.6867 3.00017C14.2087 2.98945 15.7571 3.35414 17.1912 4.10956L17.6572 3.2248L18.1233 2.34005C16.3976 1.43102 14.5242 0.987177 12.6726 1.00022L12.6797 2.00019ZM17.6572 3.2248L16.7725 2.75862L15.7511 4.69709L16.6357 5.16328L17.5204 5.62947L18.5419 3.69099L17.6572 3.2248ZM16.6357 5.16328L17.1032 4.27925C15.6932 3.53374 14.1771 3.18867 12.6914 3.18867V4.18867V5.18867C13.8667 5.18867 15.0598 5.46119 16.1683 6.04731L16.6357 5.16328ZM12.6914 4.18867L12.6914 3.18867C10.9945 3.18876 9.32121 3.63939 7.85813 4.5047L8.36719 5.36543L8.87625 6.22616C10.0265 5.54589 11.3474 5.18874 12.6915 5.18867L12.6914 4.18867ZM8.36719 5.36543L7.86389 4.50131C6.40201 5.35277 5.15039 6.60536 4.29946 8.21558L5.18359 8.68281L6.06773 9.15004C6.73729 7.88303 7.71914 6.90013 8.87048 6.22954L8.36719 5.36543ZM5.18359 8.68281L4.30455 8.20607C3.54312 9.61003 3.19826 11.1192 3.19824 12.6066L4.19824 12.6066L5.19824 12.6067C5.19826 11.4308 5.46987 10.2525 6.06264 9.15955L5.18359 8.68281ZM4.19824 12.6066H3.19824C3.19824 14.2929 3.64844 15.9688 4.51495 17.4232L5.37402 16.9113L6.2331 16.3995C5.55521 15.2617 5.19824 13.9407 5.19824 12.6066H4.19824ZM5.37402 16.9113L4.51494 17.4232C5.37903 18.8735 6.64137 20.1098 8.24403 20.9582L8.71191 20.0744L9.17979 19.1906C7.90767 18.5172 6.91331 17.5412 6.23311 16.3995L5.37402 16.9113ZM8.71191 20.0744L7.8285 19.6058L6.80701 21.5316L7.69043 22.0002L8.57385 22.4688L9.59533 20.543L8.71191 20.0744ZM7.69043 22.0002L8.15652 21.1155C6.51686 20.2517 5.22671 18.9911 4.34524 17.5063L3.48535 18.0168L2.62546 18.5273C3.69223 20.3242 5.25271 21.8462 7.22434 22.8849L7.69043 22.0002ZM3.48535 18.0168L4.34361 17.5036C3.46373 16.0322 3 14.3313 3 12.6066H2H1C1 14.687 1.55873 16.7434 2.6271 18.53L3.48535 18.0168ZM2 12.6066L3 12.6066C3.00002 11.1039 3.36456 9.56328 4.12045 8.12576L3.23535 7.66035L2.35025 7.19494C1.4431 8.92015 1.00002 10.7803 1 12.6066L2 12.6066ZM3.23535 7.66035L4.11918 8.12815C4.97982 6.50213 6.2608 5.20947 7.74581 4.33701L7.23926 3.4748L6.7327 2.6126C4.93891 3.66647 3.39155 5.2276 2.35152 7.19254L3.23535 7.66035ZM7.23926 3.4748L7.7458 4.33702C9.23036 3.46486 10.944 3.00024 12.6797 3.00019L12.6797 2.00019L12.6797 1.00019C10.5904 1.00025 8.52668 1.55866 6.73272 2.61259L7.23926 3.4748ZM12.8223 7.16035L12.8222 6.16035C11.4952 6.16042 10.269 6.57144 9.24703 7.25801L9.80469 8.08808L10.3623 8.91815C11.0747 8.43956 11.9162 8.1604 12.8223 8.16035L12.8223 7.16035ZM9.80469 8.08808L9.24697 7.25805C8.21978 7.94825 7.40292 8.93385 6.92254 10.0793L7.84473 10.466L8.76691 10.8528C9.09425 10.0723 9.65551 9.39309 10.3624 8.91811L9.80469 8.08808ZM7.84473 10.466L6.92457 10.0745C6.59998 10.8373 6.41699 11.6845 6.41699 12.5715H7.41699H8.41699C8.41699 11.9603 8.54302 11.3789 8.76488 10.8576L7.84473 10.466ZM7.41699 12.5715L6.41699 12.5716C6.4171 13.8991 6.82755 15.1254 7.51319 16.1479L8.34375 15.591L9.17431 15.0341C8.6961 14.3209 8.41707 13.4788 8.41699 12.5714L7.41699 12.5715ZM8.34375 15.591L7.51322 16.148C8.20039 17.1727 9.17294 17.9937 10.3364 18.4765L10.7197 17.5529L11.1031 16.6293C10.3184 16.3037 9.65123 15.7452 9.17428 15.034L8.34375 15.591ZM10.7197 17.5529L10.3276 18.4728C11.0892 18.7975 11.9351 18.9816 12.8222 18.9816L12.8223 17.9816L12.8223 16.9816C12.2128 16.9816 11.6331 16.8552 11.1119 16.633L10.7197 17.5529ZM12.8223 17.9816H11.8223V20.1691H12.8223H13.8223V17.9816H12.8223ZM12.8223 20.1691L12.8223 19.1691C11.4462 19.1691 10.177 18.7555 9.1244 18.0532L8.56934 18.885L8.01427 19.7168C9.38499 20.6315 11.0386 21.1691 12.8222 21.1691L12.8223 20.1691ZM8.56934 18.885L9.13001 18.0569C8.07529 17.3428 7.23914 16.3399 6.73356 15.1524L5.81348 15.5441L4.8934 15.9359C5.55199 17.4828 6.64033 18.7865 8.00866 19.713L8.56934 18.885ZM5.81348 15.5441L6.73703 15.1607C6.4051 14.3612 6.21976 13.492 6.21973 12.5832L5.21973 12.5832L4.21973 12.5832C4.21977 13.7669 4.46161 14.8961 4.88993 15.9276L5.81348 15.5441ZM5.21973 12.5832H6.21973C6.21973 11.2177 6.63272 9.93834 7.35371 8.87634L6.52637 8.31465L5.69902 7.75296C4.75716 9.14028 4.21973 10.8098 4.21973 12.5832H5.21973ZM6.52637 8.31465L7.3549 8.87459C8.06618 7.82214 9.06658 6.99497 10.2566 6.4874L9.86426 5.56758L9.47193 4.64775C7.92989 5.30548 6.62581 6.38163 5.69784 7.7547L6.52637 8.31465ZM9.86426 5.56758L10.2483 6.49088C11.0471 6.15863 11.915 5.97289 12.8223 5.97285L12.8223 4.97285L12.8222 3.97285C11.6389 3.9729 10.5107 4.21562 9.4802 4.64427L9.86426 5.56758ZM12.8223 4.97285H11.8223V7.16035H12.8223H13.8223V4.97285H12.8223Z" fill="white" mask="url(#path-1-outside-1_5976_6962)"/>
<path d="M12.9526 7.52881C13.5764 7.52881 14.1957 7.64894 14.8071 7.8833C15.4358 8.12433 16.0001 8.5004 16.4692 9.01025L16.7935 9.36279L16.4546 9.70166L14.9585 11.2007L14.5962 11.563L14.2427 11.1919C14.0241 10.9627 13.7888 10.7802 13.562 10.6519C13.3534 10.5339 13.152 10.479 12.9526 10.479C12.6119 10.4791 12.3379 10.5385 12.0874 10.6499C11.8338 10.7679 11.6199 10.9194 11.4468 11.1108L11.439 11.1196C11.2666 11.3012 11.1317 11.5275 11.0317 11.7876C10.94 12.0265 10.899 12.2959 10.8989 12.5825C10.8989 12.854 10.9468 13.1292 11.0347 13.3862C11.1343 13.6431 11.2683 13.8666 11.439 14.0464C11.5808 14.1958 11.7339 14.3224 11.9067 14.4233L12.0874 14.5161L12.0933 14.519C12.3251 14.6262 12.6079 14.687 12.9526 14.687C13.2096 14.687 13.4552 14.6319 13.6714 14.5347C13.8886 14.4252 14.0777 14.2725 14.2319 14.0728L14.5923 13.606L14.9946 14.0376L16.4438 15.5952L16.772 15.9487L16.4312 16.2896C16.1844 16.5365 15.8959 16.7557 15.5669 16.9341C15.2639 17.0984 14.9521 17.2434 14.6323 17.3501C14.3327 17.4501 14.0239 17.5272 13.731 17.5688C13.4322 17.6232 13.1632 17.6372 12.9526 17.6372C12.2454 17.6372 11.5689 17.5207 10.939 17.2847C10.3005 17.0498 9.74417 16.7078 9.27686 16.2563V16.2573C8.79146 15.812 8.42177 15.2649 8.14893 14.6538C7.86622 14.0205 7.73682 13.3183 7.73682 12.5825C7.73686 11.8344 7.8665 11.1449 8.14893 10.5122C8.42377 9.89655 8.79305 9.36539 9.271 8.91357L9.27686 8.90869L9.4585 8.74951C9.89085 8.38897 10.3817 8.10144 10.9272 7.88525L10.939 7.88037C11.5786 7.64519 12.255 7.52885 12.9526 7.52881Z" fill="black" stroke="white"/>
</svg>
