<svg width="24" height="24" viewBox="0 0 24 24" fill="none" xmlns="http://www.w3.org/2000/svg">
<path d="M12.6797 2.00024C14.3664 1.98836 16.0773 2.39263 17.6572 3.22485L16.6357 5.16333C15.3765 4.49751 14.0219 4.18872 12.6914 4.18872C11.171 4.1888 9.67383 4.59269 8.36719 5.36548C7.06058 6.1265 5.94384 7.24424 5.18359 8.68286C4.5065 9.93133 4.19826 11.275 4.19824 12.6067C4.19824 14.1168 4.60182 15.6153 5.37402 16.9114C6.14617 18.2074 7.27452 19.3135 8.71191 20.0745L7.69043 22.0002C5.88478 21.049 4.45947 19.6577 3.48535 18.0168C2.51123 16.3878 2 14.5092 2 12.6067C2.00002 10.9421 2.40383 9.24177 3.23535 7.6604C4.18569 5.86492 5.59985 4.43802 7.23926 3.47485C8.87852 2.51181 10.7672 2.00029 12.6797 2.00024ZM12.8223 7.1604C11.7057 7.16046 10.6719 7.50555 9.80469 8.08813C8.93764 8.67072 8.24859 9.5031 7.84473 10.4661C7.5715 11.1082 7.41699 11.8224 7.41699 12.5715C7.41709 13.689 7.76182 14.7232 8.34375 15.5911C8.92581 16.459 9.74567 17.1487 10.7197 17.553C11.3611 17.8264 12.0739 17.9816 12.8223 17.9817V20.1692C11.2424 20.1691 9.78098 19.6935 8.56934 18.885C7.35781 18.0647 6.39556 16.9114 5.81348 15.5442C5.43335 14.6287 5.21977 13.6295 5.21973 12.5833C5.21973 11.0138 5.69494 9.53936 6.52637 8.3147C7.346 7.10193 8.49824 6.15028 9.86426 5.56763C10.7789 5.18717 11.777 4.97294 12.8223 4.9729V7.1604Z" fill="#F05A28"/>
<path fill-rule="evenodd" clip-rule="evenodd" d="M14.6043 10.8469C14.3549 10.5853 14.0816 10.3712 13.8084 10.2167C13.5352 10.0621 13.25 9.97887 12.9531 9.97887C12.5491 9.97887 12.2047 10.0502 11.8839 10.1929C11.575 10.3356 11.3018 10.5258 11.0761 10.7755C10.8504 11.0133 10.684 11.2987 10.5653 11.6079C10.4464 11.917 10.3989 12.25 10.3989 12.5829C10.3989 12.9158 10.4583 13.2488 10.5653 13.5579C10.684 13.8671 10.8504 14.1525 11.0761 14.3903C11.3018 14.6281 11.5632 14.8302 11.8839 14.9729C12.1928 15.1156 12.5491 15.1869 12.9531 15.1869C13.2857 15.1869 13.6064 15.1156 13.8915 14.9848C14.1767 14.8421 14.4261 14.64 14.6281 14.3784L16.0774 15.9361C15.8636 16.1501 15.6141 16.3403 15.329 16.4949C15.0439 16.6495 14.7588 16.7803 14.4736 16.8754C14.1885 16.9705 13.9034 17.0419 13.6421 17.0776C13.3807 17.1251 13.1432 17.137 12.9531 17.137C12.2997 17.137 11.6819 17.03 11.1117 16.816C10.5296 16.6019 10.0307 16.2928 9.61488 15.8885C9.18719 15.4961 8.85456 15.0086 8.60509 14.4497C8.35563 13.8909 8.23682 13.2607 8.23682 12.5829C8.23682 11.8932 8.35563 11.2749 8.60509 10.7161C8.85456 10.1572 9.18719 9.68159 9.61488 9.2773C10.0426 8.88492 10.5415 8.57576 11.1117 8.34985C11.6938 8.13582 12.3115 8.02881 12.9531 8.02881C13.5114 8.02881 14.0697 8.13582 14.6281 8.34985C15.1864 8.56388 15.6854 8.8968 16.1012 9.34867L14.6043 10.8469Z" fill="black"/>
</svg>
