<svg width="24" height="24" viewBox="0 0 24 24" fill="none" xmlns="http://www.w3.org/2000/svg">
<path fill-rule="evenodd" clip-rule="evenodd" d="M8.832 13.728C9.312 13.728 10.272 13.704 11.616 13.152C13.176 12.504 16.248 11.352 18.48 10.152C20.04 9.312 20.712 8.208 20.712 6.72C20.712 4.68 19.056 3 16.992 3H8.352C5.4 3 3 5.4 3 8.352C3 11.304 5.256 13.728 8.832 13.728Z" fill="#39594D"/>
<path fill-rule="evenodd" clip-rule="evenodd" d="M10.2959 17.4C10.2959 15.96 11.1599 14.64 12.5039 14.088L15.2159 12.96C17.9759 11.832 20.9999 13.848 20.9999 16.824C20.9999 19.128 19.1279 21 16.8239 21H13.8719C11.9039 21 10.2959 19.392 10.2959 17.4Z" fill="#D18EE2"/>
<path d="M6.096 14.424C4.392 14.424 3 15.816 3 17.52V17.928C3 19.608 4.392 21 6.096 21C7.8 21 9.192 19.608 9.192 17.904V17.496C9.168 15.816 7.8 14.424 6.096 14.424Z" fill="#FF7759"/>
</svg>
