<svg width="24" height="24" viewBox="0 0 24 24" fill="none" xmlns="http://www.w3.org/2000/svg">
<g clip-path="url(#clip0_5976_6967)">
<path d="M15.874 4.50293C18.1924 4.51042 20.4426 5.25018 22.2881 6.6084L22.6523 6.88867L22.6592 6.89355L22.9092 7.10156L23.3252 7.44922L22.9453 7.83691L20.7246 10.0938L20.3984 10.4258L20.0439 10.124L19.8223 9.93555V9.93457C18.7795 9.06646 17.464 8.56518 16.0889 8.51367C14.0587 8.52 12.6094 9.98402 12.6094 12.0166V12.0264L12.6084 12.0371C12.5893 12.496 12.6676 12.954 12.8389 13.3828C13.0103 13.8118 13.2715 14.2033 13.6064 14.5312C13.9415 14.8592 14.3435 15.1172 14.7871 15.2881C15.2297 15.4585 15.7043 15.5382 16.1807 15.5225L16.4639 15.5039C17.8761 15.3785 19.1943 14.7552 20.167 13.749L20.1748 13.7412L20.3965 13.5215L20.749 13.1719L21.1006 13.5215L23.3525 15.7598L23.7227 16.1279L23.3389 16.4824L23.1055 16.6973L23.1045 16.6982C21.1707 18.4748 18.6218 19.4744 15.9678 19.5H15.9629C13.2427 19.4998 10.9368 18.386 9.51465 16.541H0.43457L0.503906 15.9805L0.745117 14.0195L0.799805 13.5811H8.16992C8.16327 13.5473 8.15755 13.5134 8.15137 13.4795H2.74609V13.4785H0.697266L0.764648 12.9189L1.00195 10.958L1.05566 10.5186H3.54785V10.5225H8.15332C8.15971 10.4886 8.16598 10.4547 8.17285 10.4209H4.88379L4.95215 9.86035L5.18945 7.89941L5.24219 7.45996H9.53906C10.2578 6.55189 11.1755 5.81206 12.2285 5.2998C13.3568 4.75105 14.6046 4.47855 15.8643 4.50293L15.8652 4.50195L15.8672 4.50293C15.8697 4.50298 15.8725 4.5019 15.875 4.50195L15.874 4.50293Z" fill="#4E556A" stroke="white"/>
</g>
<defs>
<clipPath id="clip0_5976_6967">
<rect width="24" height="24" fill="white"/>
</clipPath>
</defs>
</svg>
