<svg width="24" height="24" viewBox="0 0 24 24" fill="none" xmlns="http://www.w3.org/2000/svg">
  <path
    d="M16.2157 4.00179C18.7946 4.00834 21.2914 4.90992 23.279 6.55298L23.551 6.78614L21.1292 9.31625L20.8872 9.1046C19.6536 8.04748 18.0985 7.43879 16.475 7.37766C13.9494 7.37766 12.1189 9.27324 12.1189 11.8636C12.0948 12.4574 12.1935 13.0498 12.409 13.6037C12.6244 14.1576 12.952 14.6612 13.3711 15.0827C13.7901 15.5041 14.2916 15.8346 14.8442 16.0532C15.3969 16.2719 15.9889 16.3741 16.583 16.3534C18.3774 16.2776 20.0709 15.5029 21.3017 14.1948L21.5437 13.9485L24 16.4571L23.7453 16.6987C21.7364 18.5949 19.086 19.6636 16.3237 19.6909C13.4009 19.6909 10.9788 18.4213 9.55843 16.3749H0L0.263509 14.1775H8.51367C8.39941 13.7731 8.31738 13.3603 8.26787 12.943H2.52126L2.78477 10.7497H8.26787C8.319 10.3319 8.40413 9.91879 8.52252 9.51483H4.85279L5.11166 7.31737H9.58035C10.3342 6.26763 11.3322 5.41722 12.4882 4.83954C13.6443 4.26188 14.9237 3.97436 16.2157 4.00179ZM2.16288 10.7451L1.8998 12.9426H0.285012L0.543883 10.7451H2.16288Z"
    fill="#4E556A" />
</svg>