<svg width="24" height="26" viewBox="0 0 24 26" fill="none" xmlns="http://www.w3.org/2000/svg">
<path d="M8.1257 2.87889C7.8176 4.5335 7.41821 6.97548 7.21281 9.4517C6.84765 13.8336 7.07587 16.7548 7.07587 16.7548L0.925277 22.6087C0.925277 22.6087 0.44601 19.3223 0.206376 15.6251C0.0580317 13.3429 0.0123877 11.3231 0.000976562 10.1021C0.000976562 10.0337 0.0352094 9.9652 0.0352094 9.89673C0.0352094 9.81685 0.13791 8.99525 0.936688 8.24212C1.81534 7.4091 8.21699 2.38821 8.1257 2.87889Z" fill="#1496FF"/>
<path d="M8.1257 2.87894C7.8176 4.53355 7.41821 6.97553 7.21281 9.45175C7.21281 9.45175 0.400366 8.64156 0.000976562 10.2848C0.000976562 10.2049 0.115088 9.2007 0.913867 8.43616C1.79252 7.59174 8.21699 2.38826 8.1257 2.87894Z" fill="#1284EA"/>
<path d="M0.000937822 9.89679C0.000937822 10.0109 0.000937822 10.1364 0.000937822 10.2734C0.0694046 9.97667 0.183515 9.75986 0.43456 9.45176C0.93665 8.81273 1.75825 8.64157 2.08917 8.59592C3.7552 8.37911 6.22 8.10524 8.69621 8.03678C13.0895 7.89984 15.9879 8.265 15.9879 8.265L22.1385 2.41109C22.1385 2.41109 18.9092 1.79489 15.2234 1.36127C12.8156 1.07599 10.6932 0.927647 9.5064 0.85918C9.42653 0.85918 8.57069 0.745069 7.77191 1.50961C6.89326 2.34263 2.48856 6.5191 0.719838 8.20794C-0.0561184 8.96108 0.000937822 9.81691 0.000937822 9.89679Z" fill="#B4DC00"/>
<path d="M21.9218 17.3711C20.2558 17.5993 17.8024 17.8732 15.3147 17.953C10.9215 18.1014 8.01162 17.7362 8.01162 17.7362L1.84961 23.5901C1.84961 23.5901 5.11319 24.2292 8.78757 24.6514C11.0356 24.9138 13.0439 25.0508 14.2535 25.1192C14.3334 25.1192 14.4817 25.0508 14.5616 25.0508C14.6415 25.0508 15.4973 24.9024 16.2961 24.1379C17.1862 23.3049 22.4125 17.314 21.9218 17.3711Z" fill="#6F2DA8"/>
<path d="M21.9217 17.3711C20.2557 17.5993 17.8023 17.8731 15.3147 17.953C15.3147 17.953 15.794 24.7997 14.1279 25.1078C14.2078 25.1078 15.3375 25.0507 16.1363 24.2976C17.0149 23.4646 22.4124 17.314 21.9217 17.3711Z" fill="#591F91"/>
<path d="M14.5045 25.1421C14.3904 25.1307 14.2649 25.1307 14.1279 25.1192C14.436 25.0622 14.6414 24.9595 14.9724 24.7313C15.6342 24.252 15.851 23.4532 15.9081 23.1223C16.2048 21.4677 16.5927 19.0257 16.7981 16.5495C17.1519 12.1676 16.9237 9.25778 16.9237 9.25778L23.0743 3.40387C23.0743 3.40387 23.5307 6.65604 23.7817 10.3532C23.9415 12.7724 23.9871 14.8949 23.9986 16.0816C23.9986 16.1615 24.067 17.0173 23.2682 17.7819C22.3896 18.6149 17.9963 22.8142 16.2276 24.503C15.4402 25.2448 14.5844 25.1421 14.5045 25.1421Z" fill="#73BE28"/>
</svg>
