<svg width="24" height="24" viewBox="0 0 24 24" fill="none" xmlns="http://www.w3.org/2000/svg">
<path fill-rule="evenodd" clip-rule="evenodd" d="M12.1957 1C6.00475 1 1 6.04165 1 12.2788C1 17.2646 4.20672 21.4849 8.65528 22.9786C9.21147 23.0909 9.41519 22.7359 9.41519 22.4373C9.41519 22.1758 9.39686 21.2796 9.39686 20.3457C6.2825 21.0181 5.63396 19.0012 5.63396 19.0012C5.13346 17.694 4.39188 17.3581 4.39188 17.3581C3.37255 16.6671 4.46613 16.6671 4.46613 16.6671C5.59683 16.7419 6.19015 17.8249 6.19015 17.8249C7.19091 19.5427 8.80355 19.0573 9.45232 18.7585C9.5449 18.0302 9.84167 17.5261 10.1568 17.246C7.67285 16.9845 5.05944 16.0136 5.05944 11.6812C5.05944 10.4487 5.50402 9.4404 6.20848 8.6562C6.09733 8.37616 5.70798 7.21818 6.31985 5.66833C6.31985 5.66833 7.26516 5.3695 9.39663 6.82608C10.3092 6.57919 11.2503 6.4536 12.1957 6.45254C13.141 6.45254 14.1046 6.58339 14.9945 6.82608C17.1262 5.3695 18.0715 5.66833 18.0715 5.66833C18.6833 7.21818 18.2938 8.37616 18.1826 8.6562C18.9056 9.4404 19.3319 10.4487 19.3319 11.6812C19.3319 16.0136 16.7185 16.9657 14.216 17.246C14.6239 17.6008 14.9759 18.2729 14.9759 19.3374C14.9759 20.8499 14.9576 22.0638 14.9576 22.4371C14.9576 22.7359 15.1615 23.0909 15.7175 22.9788C20.166 21.4847 23.3728 17.2646 23.3728 12.2788C23.3911 6.04165 18.368 1 12.1957 1Z" fill="#24292F"/>
</svg>
