<svg width="24" height="24" viewBox="0 0 24 24" fill="none" xmlns="http://www.w3.org/2000/svg">
<g clip-path="url(#clip0_5976_6972)">
<ellipse cx="12" cy="12.5" rx="10" ry="10.5" fill="white"/>
<path d="M12.0088 0.5C18.3647 0.5 23.5183 5.77596 23.5 12.2793L23.4902 12.7637C23.2931 17.7515 20.0673 21.9378 15.6338 23.4521L15.6035 23.4619L15.5723 23.4688C15.1778 23.5495 14.8126 23.4742 14.5498 23.2256C14.3065 22.9954 14.2247 22.6854 14.2246 22.4375C14.2246 22.2481 14.2299 21.8461 14.2344 21.3105C14.2389 20.7721 14.2432 20.0912 14.2432 19.3369C14.2431 18.3802 13.9336 17.8585 13.6641 17.6201L12.8232 16.876L13.9395 16.749C15.1403 16.6122 16.2742 16.3188 17.1084 15.6035C17.92 14.9076 18.5263 13.7424 18.5264 11.6816C18.5264 10.5723 18.1523 9.68363 17.5254 8.99219L17.3184 8.7627L17.4307 8.47461C17.5068 8.27957 17.8107 7.38782 17.4238 6.14844C17.3544 6.15471 17.2684 6.16721 17.166 6.18945C16.7503 6.27976 16.0541 6.53646 15.0469 7.23633L14.8535 7.37109L14.6279 7.30762C13.7963 7.07696 12.893 6.95215 12.0088 6.95215C11.1242 6.95323 10.2437 7.07364 9.38965 7.30859L9.16406 7.37012L8.97168 7.23633C7.96414 6.53614 7.26724 6.27972 6.85156 6.18945C6.74898 6.16719 6.66325 6.15469 6.59375 6.14844C6.2069 7.38779 6.51181 8.27966 6.58789 8.47461L6.69824 8.75879L6.49609 8.9873C5.88 9.68486 5.49219 10.5774 5.49219 11.6816C5.49228 13.7425 6.09824 14.913 6.9082 15.6113C7.7398 16.3282 8.86928 16.6218 10.0576 16.749L11.168 16.8682L10.3398 17.6172C10.1322 17.8049 9.88619 18.1921 9.80762 18.8203L9.77344 19.0947L9.52344 19.2109C9.16727 19.3778 8.51676 19.6137 7.79102 19.5459C7.07702 19.4791 6.34044 19.1221 5.7793 18.2539L5.66992 18.0732C5.75579 18.2207 5.84027 18.3847 5.91992 18.5674L6.02441 18.8252L6.0293 18.8379L6.03125 18.8447C6.03125 18.8447 6.03208 18.8466 6.0332 18.8496C6.03561 18.8561 6.04106 18.8688 6.04883 18.8867C6.06454 18.9228 6.09168 18.9796 6.13281 19.0479C6.21527 19.1846 6.35161 19.3653 6.56445 19.5303C6.97195 19.846 7.74006 20.1668 9.14941 19.8574L9.75684 19.7236V20.3457C9.75684 20.8097 9.76113 21.265 9.76562 21.6377C9.77008 22.0066 9.77539 22.3028 9.77539 22.4375C9.77535 22.6852 9.69359 22.9954 9.4502 23.2256C9.18722 23.4743 8.82142 23.5498 8.42676 23.4688L8.39648 23.4619L8.36621 23.4521C3.78984 21.8895 0.500189 17.4791 0.5 12.2793C0.5 5.77753 5.63371 0.500172 12.0088 0.5ZM5.66309 18.0615V18.0605C5.66071 18.0564 5.65592 18.0488 5.64941 18.0381C5.64699 18.0341 5.6436 18.0302 5.64062 18.0254C5.64787 18.0375 5.65586 18.0492 5.66309 18.0615Z" fill="#24292F" stroke="white"/>
</g>
<defs>
<clipPath id="clip0_5976_6972">
<rect width="24" height="24" fill="white"/>
</clipPath>
</defs>
</svg>
