<svg width="24" height="24" viewBox="0 0 24 24" fill="none" xmlns="http://www.w3.org/2000/svg">
<path d="M16.4737 3.625V20.125C16.4737 21.9712 17.8158 23 19.2368 23C20.5526 23 22 22.125 22 20.125V3.75C22 2.0575 20.6842 1 19.2368 1C17.7895 1 16.4737 2.16625 16.4737 3.625Z" fill="#F9AB00"/>
<path d="M9.23684 12V20.125C9.23684 21.9713 10.5789 23 12 23C13.3158 23 14.7632 22.125 14.7632 20.125V12.125C14.7632 10.4325 13.4474 9.375 12 9.375C10.5526 9.375 9.23684 10.5413 9.23684 12Z" fill="#E37400"/>
<path d="M4.76316 23C6.28921 23 7.52632 21.8247 7.52632 20.375C7.52632 18.9253 6.28921 17.75 4.76316 17.75C3.23711 17.75 2 18.9253 2 20.375C2 21.8247 3.23711 23 4.76316 23Z" fill="#E37400"/>
</svg>
