<svg width="26" height="25" viewBox="0 0 26 25" fill="none" xmlns="http://www.w3.org/2000/svg">
<path d="M6.43994 5.6731C9.21573 2.90099 13.3016 2.19905 16.7192 3.59692C17.4901 3.8831 18.1555 4.28767 18.6675 4.65747L19.3608 5.15845L18.5845 5.51685L15.8784 6.76489L15.6792 6.85767L15.4761 6.77271C13.1559 5.80002 10.4836 6.4623 8.85693 8.08813C6.70725 10.2349 6.25323 13.8678 8.54443 16.3049L8.7876 16.5549L9.15186 16.929L8.76221 17.2766L1.14209 24.0803L0.404785 23.4133C0.91123 22.7163 1.53606 22.0631 2.12842 21.4407C2.98488 20.541 3.77005 19.7118 4.23291 18.8167C4.6778 17.9561 4.81647 17.0499 4.36963 15.9641C2.92421 12.454 3.76508 8.34655 6.43994 5.6731ZM25.2173 0.996338C25.1563 1.08251 25.0952 1.16608 25.0356 1.24829V1.24927C23.7684 2.99354 22.8843 4.21704 22.4165 5.51782C21.9606 6.78542 21.8915 8.16185 22.3677 10.2083L22.3638 10.2092C23.0751 13.2401 22.3091 16.606 19.8403 19.0735C16.7225 22.1913 11.7333 22.8789 7.64209 20.0842L6.91455 19.5872L7.71436 19.218L10.4253 17.9622L10.6196 17.8733L10.8179 17.9504C13.1314 18.8585 15.6323 18.4562 17.4312 16.6584C19.2321 14.8585 19.6394 12.2352 18.7319 10.0481C18.7054 9.98481 18.6571 9.94683 18.5913 9.93188C18.5207 9.91591 18.4322 9.92901 18.354 9.98657L10.3735 15.8752L9.72217 15.1204L21.1538 3.6438L22.0083 2.78638V2.80005L24.4556 0.35376L25.2173 0.996338Z" fill="black" stroke="white"/>
</svg>
