<svg width="24" height="24" viewBox="0 0 24 24" fill="none" xmlns="http://www.w3.org/2000/svg">
<path d="M11.1415 3.04781C12.5389 1.65072 14.8048 1.65058 16.2021 3.04781C17.0157 3.86147 17.3535 4.96966 17.2196 6.02925C18.2795 5.89506 19.3882 6.23396 20.2021 7.04781C21.5993 8.44515 21.5992 10.7109 20.2021 12.1084L13.2372 19.0732C13.1398 19.1708 13.1398 19.3291 13.2372 19.4267L14.5302 20.7197C14.8229 21.0125 14.8229 21.4874 14.5302 21.7802C14.2373 22.073 13.7625 22.073 13.4696 21.7802L12.1767 20.4873C11.4935 19.8039 11.4935 18.696 12.1767 18.0127L19.1415 11.0478C19.9528 10.2362 19.9531 8.91994 19.1415 8.10835C18.33 7.29691 17.0137 7.29705 16.2021 8.10835L10.0302 14.2802C9.7373 14.5731 9.26254 14.5731 8.96965 14.2802C8.67679 13.9873 8.67678 13.5126 8.96965 13.2197L15.1415 7.04781C15.9528 6.2361 15.953 4.91992 15.1415 4.10835C14.33 3.29691 13.0137 3.29705 12.2021 4.10835L4.03019 12.2802C3.7373 12.5731 3.26254 12.5731 2.96965 12.2802C2.67679 11.9873 2.67678 11.5126 2.96965 11.2197L11.1415 3.04781Z" fill="black"/>
<path d="M12.9696 5.21871C13.2625 4.92612 13.7374 4.92607 14.0302 5.21871C14.323 5.51152 14.3228 5.98634 14.0302 6.27925L7.85832 12.4511C7.04704 13.2627 7.04692 14.5789 7.85832 15.3906C8.66983 16.2021 9.98614 16.2019 10.7978 15.3906L16.9696 9.21871C17.2625 8.92611 17.7374 8.92605 18.0302 9.21871C18.3229 9.51152 18.3228 9.98636 18.0302 10.2793L11.8583 16.4511C10.4609 17.8483 8.19508 17.8484 6.79777 16.4511C5.40066 15.0537 5.40067 12.788 6.79777 11.3906L12.9696 5.21871Z" fill="black"/>
</svg>
