<svg width="24" height="24" viewBox="0 0 24 24" fill="none" xmlns="http://www.w3.org/2000/svg">
<mask id="path-1-outside-1_5976_6981" maskUnits="userSpaceOnUse" x="0.713867" y="0.714294" width="23" height="23" fill="black">
<rect fill="white" x="0.713867" y="0.714294" width="23" height="23"/>
<path fill-rule="evenodd" clip-rule="evenodd" d="M13.024 1.85715L12.6012 7.06858C12.4012 7.04572 12.2012 7.03429 11.9955 7.03429C11.7383 7.03429 11.4869 7.05144 11.2412 7.09144L11.0012 4.56572C10.9955 4.48572 11.0583 4.41715 11.1383 4.41715H11.5669L11.3612 1.86287C11.3555 1.78287 11.4183 1.71429 11.4926 1.71429H12.8926C12.9726 1.71429 13.0355 1.78287 13.024 1.86287V1.85715ZM9.49259 2.11429C9.46974 2.04001 9.38974 1.99429 9.31545 2.02287L8.00117 2.50287C7.92688 2.53144 7.89259 2.61715 7.92688 2.68572L8.99545 5.01715L8.58974 5.16572C8.51545 5.19429 8.48117 5.28001 8.51545 5.34858L9.60688 7.64001C10.0012 7.42287 10.4297 7.25715 10.8812 7.15429L9.49831 2.11429H9.49259ZM6.26974 3.56572L9.2926 7.82858C8.90974 8.08001 8.56117 8.37715 8.26402 8.72001L6.4526 6.93715C6.39545 6.88001 6.40117 6.78858 6.45831 6.73715L6.78974 6.46287L4.98974 4.64001C4.93259 4.58287 4.93831 4.49144 5.00117 4.44001L6.06974 3.54287C6.13259 3.49144 6.21831 3.50287 6.26402 3.56572H6.26974ZM3.7326 6.03429C3.66974 5.98858 3.57831 6.01144 3.53831 6.08001L2.84117 7.29144C2.80117 7.36001 2.82974 7.44572 2.89831 7.48001L5.21831 8.57715L5.00117 8.94858C4.96117 9.01715 4.98974 9.10858 5.06402 9.13715L7.37259 10.1943C7.53831 9.76572 7.76117 9.36572 8.03545 9.00572L3.7326 6.03429ZM2.02402 9.32572C2.03545 9.24572 2.11545 9.20001 2.18974 9.21715L7.24688 10.5372C7.11545 10.9657 7.04117 11.4172 7.02974 11.8857L4.49831 11.68C4.41831 11.6743 4.36117 11.6 4.37831 11.52L4.4526 11.0972L1.89831 10.8572C1.81831 10.8514 1.76688 10.7772 1.77831 10.6972L2.01831 9.32001L2.02402 9.32572ZM1.83545 12.7429C1.75545 12.7486 1.70402 12.8229 1.71545 12.9029L1.96117 14.28C1.9726 14.36 2.0526 14.4057 2.12688 14.3886L4.60688 13.7429L4.68117 14.1657C4.69259 14.2457 4.77259 14.2914 4.84688 14.2743L7.2926 13.6C7.14974 13.1772 7.05831 12.7257 7.03545 12.2629L1.82974 12.7429H1.83545ZM2.64688 16.3657C2.60688 16.2972 2.63545 16.2114 2.70402 16.1772L7.42402 13.9372C7.60117 14.36 7.84117 14.7543 8.12688 15.1086L6.05831 16.5829C5.99545 16.6286 5.90402 16.6114 5.86402 16.5429L5.64688 16.1657L3.53831 17.6229C3.47545 17.6686 3.38402 17.6457 3.34402 17.5772L2.64117 16.3657H2.64688ZM8.36688 15.3829L4.69259 19.1029C4.63545 19.16 4.64117 19.2514 4.70402 19.3029L5.77831 20.2C5.84117 20.2514 5.92688 20.24 5.97259 20.1772L7.45831 18.0857L7.78974 18.3657C7.8526 18.4172 7.94402 18.4057 7.98974 18.3372L9.42974 16.2457C9.04117 16.0057 8.68117 15.7143 8.37259 15.3829H8.36688ZM7.64117 21.3543C7.56688 21.3257 7.53259 21.24 7.56688 21.1714L9.74402 16.4172C10.144 16.6229 10.5783 16.7772 11.0297 16.8629L10.3897 19.32C10.3726 19.3943 10.2869 19.44 10.2126 19.4114L9.80688 19.2629L9.12688 21.7372C9.10402 21.8114 9.02402 21.8572 8.94974 21.8286L7.63545 21.3486L7.64117 21.3543ZM11.3897 16.9257L10.9669 22.1372C10.9612 22.2172 11.024 22.2857 11.0983 22.2857H12.4983C12.5783 22.2857 12.6412 22.2172 12.6297 22.1372L12.424 19.5829H12.8526C12.9326 19.5829 12.9955 19.5143 12.9897 19.4343L12.7497 16.9086C12.504 16.9486 12.2526 16.9657 11.9955 16.9657C11.7897 16.9657 11.5897 16.9543 11.3897 16.9257ZM16.4297 2.81715C16.464 2.74287 16.4297 2.66287 16.3555 2.63429L15.0412 2.15429C14.9669 2.12572 14.8869 2.17144 14.864 2.24572L14.184 4.72001L13.7783 4.57144C13.704 4.54287 13.624 4.58858 13.6012 4.66287L12.9612 7.12001C13.4183 7.21144 13.8469 7.36572 14.2469 7.56572L16.4297 2.81715ZM19.2983 4.89144L15.624 8.61144C15.3155 8.28001 14.9612 7.98858 14.5669 7.74858L16.0069 5.65715C16.0526 5.59429 16.144 5.57715 16.2069 5.62858L16.5383 5.90858L18.024 3.81715C18.0697 3.75429 18.1612 3.74287 18.2183 3.79429L19.2926 4.69144C19.3555 4.74287 19.3555 4.83429 19.304 4.89144H19.2983ZM21.2869 7.81715C21.3612 7.78287 21.384 7.69715 21.344 7.62858L20.6412 6.41715C20.6012 6.34858 20.5097 6.33144 20.4469 6.37144L18.3383 7.82858L18.1212 7.45715C18.0812 7.38858 17.9897 7.36572 17.9269 7.41715L15.8583 8.89144C16.144 9.24572 16.3783 9.64001 16.5612 10.0629L21.2812 7.82287L21.2869 7.81715ZM22.0297 9.71429L22.2697 11.0914C22.2812 11.1714 22.2297 11.24 22.1497 11.2514L16.944 11.7372C16.9212 11.2686 16.8297 10.8229 16.6869 10.4L19.1326 9.72572C19.2069 9.70287 19.2869 9.75429 19.2983 9.83429L19.3726 10.2572L21.8526 9.61144C21.9269 9.59429 22.0069 9.64001 22.0183 9.72001L22.0297 9.71429ZM21.7955 14.7714C21.8697 14.7886 21.9497 14.7429 21.9612 14.6629L22.2012 13.2857C22.2126 13.2057 22.1612 13.1372 22.0812 13.1257L19.5269 12.8857L19.6012 12.4629C19.6126 12.3829 19.5612 12.3143 19.4812 12.3029L16.9497 12.0972C16.9383 12.5657 16.864 13.0172 16.7326 13.4457L21.7897 14.7657L21.7955 14.7714ZM20.4469 17.9143C20.4069 17.9829 20.3155 18 20.2526 17.96L15.9497 14.9886C16.224 14.6286 16.4469 14.2286 16.6126 13.8L18.9212 14.8572C18.9955 14.8914 19.024 14.9772 18.984 15.0457L18.7669 15.4172L21.0869 16.5143C21.1555 16.5486 21.184 16.6343 21.144 16.7029L20.4469 17.9143ZM14.6926 16.16L17.7155 20.4229C17.7612 20.4857 17.8526 20.4972 17.9097 20.4457L18.9783 19.5486C19.0412 19.4971 19.0412 19.4057 18.9897 19.3486L17.1897 17.5257L17.5212 17.2514C17.584 17.2 17.584 17.1086 17.5269 17.0514L15.7155 15.2686C15.4126 15.6114 15.0697 15.9143 14.6869 16.16H14.6926ZM14.664 21.9657C14.5897 21.9943 14.5097 21.9486 14.4869 21.8743L13.104 16.8343C13.5555 16.7314 13.984 16.5657 14.3783 16.3486L15.4697 18.64C15.504 18.7143 15.4697 18.8 15.3955 18.8229L14.9897 18.9714L16.0583 21.3029C16.0926 21.3772 16.0583 21.4572 15.984 21.4857L14.6697 21.9657H14.664Z"/>
</mask>
<path fill-rule="evenodd" clip-rule="evenodd" d="M13.024 1.85715L12.6012 7.06858C12.4012 7.04572 12.2012 7.03429 11.9955 7.03429C11.7383 7.03429 11.4869 7.05144 11.2412 7.09144L11.0012 4.56572C10.9955 4.48572 11.0583 4.41715 11.1383 4.41715H11.5669L11.3612 1.86287C11.3555 1.78287 11.4183 1.71429 11.4926 1.71429H12.8926C12.9726 1.71429 13.0355 1.78287 13.024 1.86287V1.85715ZM9.49259 2.11429C9.46974 2.04001 9.38974 1.99429 9.31545 2.02287L8.00117 2.50287C7.92688 2.53144 7.89259 2.61715 7.92688 2.68572L8.99545 5.01715L8.58974 5.16572C8.51545 5.19429 8.48117 5.28001 8.51545 5.34858L9.60688 7.64001C10.0012 7.42287 10.4297 7.25715 10.8812 7.15429L9.49831 2.11429H9.49259ZM6.26974 3.56572L9.2926 7.82858C8.90974 8.08001 8.56117 8.37715 8.26402 8.72001L6.4526 6.93715C6.39545 6.88001 6.40117 6.78858 6.45831 6.73715L6.78974 6.46287L4.98974 4.64001C4.93259 4.58287 4.93831 4.49144 5.00117 4.44001L6.06974 3.54287C6.13259 3.49144 6.21831 3.50287 6.26402 3.56572H6.26974ZM3.7326 6.03429C3.66974 5.98858 3.57831 6.01144 3.53831 6.08001L2.84117 7.29144C2.80117 7.36001 2.82974 7.44572 2.89831 7.48001L5.21831 8.57715L5.00117 8.94858C4.96117 9.01715 4.98974 9.10858 5.06402 9.13715L7.37259 10.1943C7.53831 9.76572 7.76117 9.36572 8.03545 9.00572L3.7326 6.03429ZM2.02402 9.32572C2.03545 9.24572 2.11545 9.20001 2.18974 9.21715L7.24688 10.5372C7.11545 10.9657 7.04117 11.4172 7.02974 11.8857L4.49831 11.68C4.41831 11.6743 4.36117 11.6 4.37831 11.52L4.4526 11.0972L1.89831 10.8572C1.81831 10.8514 1.76688 10.7772 1.77831 10.6972L2.01831 9.32001L2.02402 9.32572ZM1.83545 12.7429C1.75545 12.7486 1.70402 12.8229 1.71545 12.9029L1.96117 14.28C1.9726 14.36 2.0526 14.4057 2.12688 14.3886L4.60688 13.7429L4.68117 14.1657C4.69259 14.2457 4.77259 14.2914 4.84688 14.2743L7.2926 13.6C7.14974 13.1772 7.05831 12.7257 7.03545 12.2629L1.82974 12.7429H1.83545ZM2.64688 16.3657C2.60688 16.2972 2.63545 16.2114 2.70402 16.1772L7.42402 13.9372C7.60117 14.36 7.84117 14.7543 8.12688 15.1086L6.05831 16.5829C5.99545 16.6286 5.90402 16.6114 5.86402 16.5429L5.64688 16.1657L3.53831 17.6229C3.47545 17.6686 3.38402 17.6457 3.34402 17.5772L2.64117 16.3657H2.64688ZM8.36688 15.3829L4.69259 19.1029C4.63545 19.16 4.64117 19.2514 4.70402 19.3029L5.77831 20.2C5.84117 20.2514 5.92688 20.24 5.97259 20.1772L7.45831 18.0857L7.78974 18.3657C7.8526 18.4172 7.94402 18.4057 7.98974 18.3372L9.42974 16.2457C9.04117 16.0057 8.68117 15.7143 8.37259 15.3829H8.36688ZM7.64117 21.3543C7.56688 21.3257 7.53259 21.24 7.56688 21.1714L9.74402 16.4172C10.144 16.6229 10.5783 16.7772 11.0297 16.8629L10.3897 19.32C10.3726 19.3943 10.2869 19.44 10.2126 19.4114L9.80688 19.2629L9.12688 21.7372C9.10402 21.8114 9.02402 21.8572 8.94974 21.8286L7.63545 21.3486L7.64117 21.3543ZM11.3897 16.9257L10.9669 22.1372C10.9612 22.2172 11.024 22.2857 11.0983 22.2857H12.4983C12.5783 22.2857 12.6412 22.2172 12.6297 22.1372L12.424 19.5829H12.8526C12.9326 19.5829 12.9955 19.5143 12.9897 19.4343L12.7497 16.9086C12.504 16.9486 12.2526 16.9657 11.9955 16.9657C11.7897 16.9657 11.5897 16.9543 11.3897 16.9257ZM16.4297 2.81715C16.464 2.74287 16.4297 2.66287 16.3555 2.63429L15.0412 2.15429C14.9669 2.12572 14.8869 2.17144 14.864 2.24572L14.184 4.72001L13.7783 4.57144C13.704 4.54287 13.624 4.58858 13.6012 4.66287L12.9612 7.12001C13.4183 7.21144 13.8469 7.36572 14.2469 7.56572L16.4297 2.81715ZM19.2983 4.89144L15.624 8.61144C15.3155 8.28001 14.9612 7.98858 14.5669 7.74858L16.0069 5.65715C16.0526 5.59429 16.144 5.57715 16.2069 5.62858L16.5383 5.90858L18.024 3.81715C18.0697 3.75429 18.1612 3.74287 18.2183 3.79429L19.2926 4.69144C19.3555 4.74287 19.3555 4.83429 19.304 4.89144H19.2983ZM21.2869 7.81715C21.3612 7.78287 21.384 7.69715 21.344 7.62858L20.6412 6.41715C20.6012 6.34858 20.5097 6.33144 20.4469 6.37144L18.3383 7.82858L18.1212 7.45715C18.0812 7.38858 17.9897 7.36572 17.9269 7.41715L15.8583 8.89144C16.144 9.24572 16.3783 9.64001 16.5612 10.0629L21.2812 7.82287L21.2869 7.81715ZM22.0297 9.71429L22.2697 11.0914C22.2812 11.1714 22.2297 11.24 22.1497 11.2514L16.944 11.7372C16.9212 11.2686 16.8297 10.8229 16.6869 10.4L19.1326 9.72572C19.2069 9.70287 19.2869 9.75429 19.2983 9.83429L19.3726 10.2572L21.8526 9.61144C21.9269 9.59429 22.0069 9.64001 22.0183 9.72001L22.0297 9.71429ZM21.7955 14.7714C21.8697 14.7886 21.9497 14.7429 21.9612 14.6629L22.2012 13.2857C22.2126 13.2057 22.1612 13.1372 22.0812 13.1257L19.5269 12.8857L19.6012 12.4629C19.6126 12.3829 19.5612 12.3143 19.4812 12.3029L16.9497 12.0972C16.9383 12.5657 16.864 13.0172 16.7326 13.4457L21.7897 14.7657L21.7955 14.7714ZM20.4469 17.9143C20.4069 17.9829 20.3155 18 20.2526 17.96L15.9497 14.9886C16.224 14.6286 16.4469 14.2286 16.6126 13.8L18.9212 14.8572C18.9955 14.8914 19.024 14.9772 18.984 15.0457L18.7669 15.4172L21.0869 16.5143C21.1555 16.5486 21.184 16.6343 21.144 16.7029L20.4469 17.9143ZM14.6926 16.16L17.7155 20.4229C17.7612 20.4857 17.8526 20.4972 17.9097 20.4457L18.9783 19.5486C19.0412 19.4971 19.0412 19.4057 18.9897 19.3486L17.1897 17.5257L17.5212 17.2514C17.584 17.2 17.584 17.1086 17.5269 17.0514L15.7155 15.2686C15.4126 15.6114 15.0697 15.9143 14.6869 16.16H14.6926ZM14.664 21.9657C14.5897 21.9943 14.5097 21.9486 14.4869 21.8743L13.104 16.8343C13.5555 16.7314 13.984 16.5657 14.3783 16.3486L15.4697 18.64C15.504 18.7143 15.4697 18.8 15.3955 18.8229L14.9897 18.9714L16.0583 21.3029C16.0926 21.3772 16.0583 21.4572 15.984 21.4857L14.6697 21.9657H14.664Z" fill="#191919"/>
<path fill-rule="evenodd" clip-rule="evenodd" d="M13.024 1.85715L12.6012 7.06858C12.4012 7.04572 12.2012 7.03429 11.9955 7.03429C11.7383 7.03429 11.4869 7.05144 11.2412 7.09144L11.0012 4.56572C10.9955 4.48572 11.0583 4.41715 11.1383 4.41715H11.5669L11.3612 1.86287C11.3555 1.78287 11.4183 1.71429 11.4926 1.71429H12.8926C12.9726 1.71429 13.0355 1.78287 13.024 1.86287V1.85715ZM9.49259 2.11429C9.46974 2.04001 9.38974 1.99429 9.31545 2.02287L8.00117 2.50287C7.92688 2.53144 7.89259 2.61715 7.92688 2.68572L8.99545 5.01715L8.58974 5.16572C8.51545 5.19429 8.48117 5.28001 8.51545 5.34858L9.60688 7.64001C10.0012 7.42287 10.4297 7.25715 10.8812 7.15429L9.49831 2.11429H9.49259ZM6.26974 3.56572L9.2926 7.82858C8.90974 8.08001 8.56117 8.37715 8.26402 8.72001L6.4526 6.93715C6.39545 6.88001 6.40117 6.78858 6.45831 6.73715L6.78974 6.46287L4.98974 4.64001C4.93259 4.58287 4.93831 4.49144 5.00117 4.44001L6.06974 3.54287C6.13259 3.49144 6.21831 3.50287 6.26402 3.56572H6.26974ZM3.7326 6.03429C3.66974 5.98858 3.57831 6.01144 3.53831 6.08001L2.84117 7.29144C2.80117 7.36001 2.82974 7.44572 2.89831 7.48001L5.21831 8.57715L5.00117 8.94858C4.96117 9.01715 4.98974 9.10858 5.06402 9.13715L7.37259 10.1943C7.53831 9.76572 7.76117 9.36572 8.03545 9.00572L3.7326 6.03429ZM2.02402 9.32572C2.03545 9.24572 2.11545 9.20001 2.18974 9.21715L7.24688 10.5372C7.11545 10.9657 7.04117 11.4172 7.02974 11.8857L4.49831 11.68C4.41831 11.6743 4.36117 11.6 4.37831 11.52L4.4526 11.0972L1.89831 10.8572C1.81831 10.8514 1.76688 10.7772 1.77831 10.6972L2.01831 9.32001L2.02402 9.32572ZM1.83545 12.7429C1.75545 12.7486 1.70402 12.8229 1.71545 12.9029L1.96117 14.28C1.9726 14.36 2.0526 14.4057 2.12688 14.3886L4.60688 13.7429L4.68117 14.1657C4.69259 14.2457 4.77259 14.2914 4.84688 14.2743L7.2926 13.6C7.14974 13.1772 7.05831 12.7257 7.03545 12.2629L1.82974 12.7429H1.83545ZM2.64688 16.3657C2.60688 16.2972 2.63545 16.2114 2.70402 16.1772L7.42402 13.9372C7.60117 14.36 7.84117 14.7543 8.12688 15.1086L6.05831 16.5829C5.99545 16.6286 5.90402 16.6114 5.86402 16.5429L5.64688 16.1657L3.53831 17.6229C3.47545 17.6686 3.38402 17.6457 3.34402 17.5772L2.64117 16.3657H2.64688ZM8.36688 15.3829L4.69259 19.1029C4.63545 19.16 4.64117 19.2514 4.70402 19.3029L5.77831 20.2C5.84117 20.2514 5.92688 20.24 5.97259 20.1772L7.45831 18.0857L7.78974 18.3657C7.8526 18.4172 7.94402 18.4057 7.98974 18.3372L9.42974 16.2457C9.04117 16.0057 8.68117 15.7143 8.37259 15.3829H8.36688ZM7.64117 21.3543C7.56688 21.3257 7.53259 21.24 7.56688 21.1714L9.74402 16.4172C10.144 16.6229 10.5783 16.7772 11.0297 16.8629L10.3897 19.32C10.3726 19.3943 10.2869 19.44 10.2126 19.4114L9.80688 19.2629L9.12688 21.7372C9.10402 21.8114 9.02402 21.8572 8.94974 21.8286L7.63545 21.3486L7.64117 21.3543ZM11.3897 16.9257L10.9669 22.1372C10.9612 22.2172 11.024 22.2857 11.0983 22.2857H12.4983C12.5783 22.2857 12.6412 22.2172 12.6297 22.1372L12.424 19.5829H12.8526C12.9326 19.5829 12.9955 19.5143 12.9897 19.4343L12.7497 16.9086C12.504 16.9486 12.2526 16.9657 11.9955 16.9657C11.7897 16.9657 11.5897 16.9543 11.3897 16.9257ZM16.4297 2.81715C16.464 2.74287 16.4297 2.66287 16.3555 2.63429L15.0412 2.15429C14.9669 2.12572 14.8869 2.17144 14.864 2.24572L14.184 4.72001L13.7783 4.57144C13.704 4.54287 13.624 4.58858 13.6012 4.66287L12.9612 7.12001C13.4183 7.21144 13.8469 7.36572 14.2469 7.56572L16.4297 2.81715ZM19.2983 4.89144L15.624 8.61144C15.3155 8.28001 14.9612 7.98858 14.5669 7.74858L16.0069 5.65715C16.0526 5.59429 16.144 5.57715 16.2069 5.62858L16.5383 5.90858L18.024 3.81715C18.0697 3.75429 18.1612 3.74287 18.2183 3.79429L19.2926 4.69144C19.3555 4.74287 19.3555 4.83429 19.304 4.89144H19.2983ZM21.2869 7.81715C21.3612 7.78287 21.384 7.69715 21.344 7.62858L20.6412 6.41715C20.6012 6.34858 20.5097 6.33144 20.4469 6.37144L18.3383 7.82858L18.1212 7.45715C18.0812 7.38858 17.9897 7.36572 17.9269 7.41715L15.8583 8.89144C16.144 9.24572 16.3783 9.64001 16.5612 10.0629L21.2812 7.82287L21.2869 7.81715ZM22.0297 9.71429L22.2697 11.0914C22.2812 11.1714 22.2297 11.24 22.1497 11.2514L16.944 11.7372C16.9212 11.2686 16.8297 10.8229 16.6869 10.4L19.1326 9.72572C19.2069 9.70287 19.2869 9.75429 19.2983 9.83429L19.3726 10.2572L21.8526 9.61144C21.9269 9.59429 22.0069 9.64001 22.0183 9.72001L22.0297 9.71429ZM21.7955 14.7714C21.8697 14.7886 21.9497 14.7429 21.9612 14.6629L22.2012 13.2857C22.2126 13.2057 22.1612 13.1372 22.0812 13.1257L19.5269 12.8857L19.6012 12.4629C19.6126 12.3829 19.5612 12.3143 19.4812 12.3029L16.9497 12.0972C16.9383 12.5657 16.864 13.0172 16.7326 13.4457L21.7897 14.7657L21.7955 14.7714ZM20.4469 17.9143C20.4069 17.9829 20.3155 18 20.2526 17.96L15.9497 14.9886C16.224 14.6286 16.4469 14.2286 16.6126 13.8L18.9212 14.8572C18.9955 14.8914 19.024 14.9772 18.984 15.0457L18.7669 15.4172L21.0869 16.5143C21.1555 16.5486 21.184 16.6343 21.144 16.7029L20.4469 17.9143ZM14.6926 16.16L17.7155 20.4229C17.7612 20.4857 17.8526 20.4972 17.9097 20.4457L18.9783 19.5486C19.0412 19.4971 19.0412 19.4057 18.9897 19.3486L17.1897 17.5257L17.5212 17.2514C17.584 17.2 17.584 17.1086 17.5269 17.0514L15.7155 15.2686C15.4126 15.6114 15.0697 15.9143 14.6869 16.16H14.6926ZM14.664 21.9657C14.5897 21.9943 14.5097 21.9486 14.4869 21.8743L13.104 16.8343C13.5555 16.7314 13.984 16.5657 14.3783 16.3486L15.4697 18.64C15.504 18.7143 15.4697 18.8 15.3955 18.8229L14.9897 18.9714L16.0583 21.3029C16.0926 21.3772 16.0583 21.4572 15.984 21.4857L14.6697 21.9657H14.664Z" stroke="white" stroke-width="2" mask="url(#path-1-outside-1_5976_6981)"/>
</svg>
