<svg width="24" height="24" viewBox="0 0 24 24" fill="none" xmlns="http://www.w3.org/2000/svg">
<mask id="path-1-outside-1_5976_6983" maskUnits="userSpaceOnUse" x="4" y="1" width="17" height="22" fill="black">
<rect fill="white" x="4" y="1" width="17" height="22"/>
<path d="M8.26493 2.00566C8.366 1.98987 8.64966 2.00969 8.7493 2.03984C9.47372 2.26529 10.0194 3.15954 10.2571 4.51055C10.2984 4.74175 10.3362 5.03561 10.3362 5.11602C10.3363 5.14551 10.342 5.16904 10.3489 5.16973C10.3561 5.16973 10.4122 5.14116 10.472 5.10527C11.1067 4.72631 11.8129 4.52422 12.5003 4.52422C13.1877 4.52428 13.8939 4.72624 14.5286 5.10527C14.5881 5.14098 14.6432 5.16951 14.6507 5.16973C14.6578 5.16973 14.6633 5.14595 14.6634 5.11602C14.6634 5.03849 14.7008 4.75323 14.7435 4.51055C15.0054 3.00593 15.6689 2.05155 16.4915 2.00273C16.8501 1.97985 17.1486 2.1003 17.4417 2.38164C17.809 2.73487 18.0938 3.34639 18.2503 4.11602C18.4311 4.99899 18.4371 6.12894 18.265 7.03496C18.248 7.12344 18.2395 7.20217 18.2464 7.20879C18.252 7.21453 18.3215 7.27258 18.3997 7.33574C18.6672 7.55105 18.9732 7.88246 19.1839 8.18536C19.5881 8.76547 19.8493 9.42092 19.9603 10.1346C20.0029 10.4161 20.0139 10.9839 19.9798 11.2654C19.9043 11.9143 19.7107 12.4631 19.3792 12.9656L19.2708 13.1287L19.3021 13.1815C19.3662 13.2864 19.5177 13.6109 19.5746 13.7645C19.7111 14.1334 19.7934 14.4981 19.8617 15.035C19.8873 15.2432 19.8873 16.1755 19.8617 16.3924C19.7649 17.1792 19.5743 17.775 19.264 18.2488C19.2215 18.3131 19.1815 18.3701 19.1742 18.3748C19.1685 18.3777 19.1861 18.4312 19.2132 18.493C19.4622 19.0401 19.6144 19.6191 19.7054 20.3485C19.7296 20.5497 19.7296 21.2151 19.7054 21.3963C19.6798 21.5758 19.6479 21.7628 19.6322 21.826C19.6251 21.8547 19.6114 21.9053 19.6029 21.9383L19.5873 21.9998H18.9837C18.6506 21.9998 18.3783 21.9963 18.3783 21.992C18.3791 21.9862 18.396 21.95 18.4154 21.911C18.6546 21.4357 18.6735 20.5996 18.4642 19.7596C18.3675 19.3661 18.2581 19.0773 18.0531 18.6795L17.93 18.4383V18.2908C17.93 18.1532 17.9329 18.1369 17.9769 18.0467C18.0111 17.9779 18.057 17.919 18.138 17.8387C18.2006 17.7784 18.2838 17.6803 18.3236 17.6229C18.5484 17.2969 18.7118 16.721 18.763 16.0779C18.8399 15.1031 18.5851 13.9973 18.1781 13.5477C17.9305 13.272 17.9299 12.9383 18.179 12.6697C18.2942 12.5464 18.3747 12.446 18.4544 12.3211C18.9268 11.583 19.0159 10.6164 18.6986 9.69317C18.3341 8.64081 17.5118 7.85533 16.5667 7.66289C16.2894 7.60548 16.0715 7.60145 15.7884 7.6502C15.6092 7.68035 15.4876 7.66903 15.3724 7.61309C15.2244 7.54275 15.1507 7.45465 15.0638 7.25371C15.0325 7.17906 14.9819 7.07843 14.9534 7.03106C14.8793 6.91029 14.6479 6.62055 14.5511 6.53008C14.1014 6.11091 13.5378 5.81542 12.97 5.69902C12.8292 5.67032 12.7633 5.66583 12.5003 5.66582C12.2371 5.66582 12.1713 5.67034 12.0306 5.69902C11.6434 5.77801 11.254 5.94136 10.9124 6.1668C10.6137 6.3663 10.4272 6.53164 10.2337 6.77422C10.073 6.97651 10.0136 7.07437 9.93681 7.25371C9.84999 7.45474 9.77527 7.54274 9.62724 7.61309C9.5078 7.67035 9.39066 7.68026 9.20438 7.64727C9.03367 7.61576 8.72841 7.6113 8.56473 7.63848C7.83451 7.75478 7.18056 8.19017 6.71511 8.86797C6.2398 9.55862 6.03048 10.4305 6.14577 11.2303C6.22693 11.7914 6.45353 12.2736 6.82058 12.6697C6.94869 12.809 7.00515 12.9431 7.00515 13.1053C7.00514 13.2619 6.94254 13.4127 6.82156 13.5477C6.64374 13.7444 6.47478 14.1049 6.37234 14.5096C6.12612 15.4801 6.19419 16.6188 6.54421 17.3856C6.62392 17.5608 6.72353 17.7037 6.8616 17.8387C6.94267 17.919 6.98858 17.9778 7.02273 18.0467C7.06676 18.137 7.06961 18.1531 7.06961 18.2908V18.4383L6.94754 18.6795C6.74256 19.0773 6.63221 19.3661 6.53542 19.7596C6.32338 20.611 6.3468 21.4642 6.59304 21.9237L6.63308 21.9998H5.41237L5.3987 21.9451C5.3019 21.5733 5.27663 21.3463 5.27663 20.8797C5.27663 20.5135 5.28301 20.401 5.33425 20.0535C5.40688 19.5467 5.58245 18.9452 5.78737 18.493C5.81439 18.4312 5.83116 18.3777 5.82546 18.3748C5.80708 18.361 5.66582 18.1426 5.60768 18.0369C5.42981 17.711 5.27095 17.2209 5.19264 16.7586C5.12717 16.3724 5.1194 16.2615 5.1194 15.7029C5.1194 15.1488 5.12783 15.038 5.19753 14.6248C5.28577 14.1022 5.4755 13.5578 5.69753 13.1815L5.72878 13.1287L5.62038 12.9656C5.28889 12.4631 5.09521 11.9143 5.01979 11.2654C4.9857 10.9839 4.99765 10.416 5.0403 10.1346C5.1499 9.42237 5.41145 8.76404 5.81569 8.18536C6.02631 7.88247 6.33238 7.55108 6.59988 7.33574C6.678 7.2727 6.74724 7.21474 6.7532 7.20879C6.76032 7.20306 6.7527 7.124 6.73562 7.03496C6.66024 6.63447 6.60675 6.05492 6.60671 5.60137C6.60671 5.21652 6.647 4.71174 6.70535 4.34844C6.86051 3.38803 7.22758 2.61702 7.70145 2.25371C7.85789 2.13319 8.07997 2.03591 8.26493 2.00566ZM12.2796 10.3914C12.3883 10.3801 12.8193 10.3968 12.9847 10.4168C14.2515 10.5776 15.2851 11.4238 15.5228 12.4979C15.5555 12.6444 15.5599 12.6932 15.5599 12.9402C15.5599 13.1842 15.556 13.2375 15.5247 13.3768C15.482 13.5677 15.436 13.6897 15.3421 13.8777C14.9877 14.5813 14.1991 15.0825 13.2825 15.1873C13.0347 15.2146 11.9652 15.2146 11.7171 15.1873C10.5756 15.0566 9.69272 14.3431 9.47489 13.3768C9.44358 13.2375 9.43974 13.1842 9.43974 12.9402C9.43974 12.6932 9.44411 12.6444 9.47685 12.4979C9.64055 11.7584 10.1754 11.1195 10.9524 10.7361C11.1759 10.6255 11.498 10.5129 11.7386 10.4627C11.8863 10.4326 11.971 10.4216 12.2796 10.3914ZM12.8118 11.1727C12.6566 11.1569 12.3274 11.1563 12.1722 11.1736C11.7695 11.2167 11.3314 11.3765 10.9983 11.6004C10.7108 11.7943 10.4204 12.1317 10.3079 12.4031C10.2154 12.6257 10.1694 12.8902 10.1936 13.0496C10.2477 13.3926 10.3476 13.6051 10.5667 13.8377C10.8371 14.1263 11.21 14.316 11.681 14.4051C11.8191 14.4309 11.9049 14.435 12.386 14.4393C13.1232 14.4451 13.3298 14.4259 13.6458 14.324C13.8124 14.2694 14.0842 14.1301 14.2152 14.034C14.4954 13.8243 14.703 13.5242 14.7698 13.2371C14.8125 13.0451 14.8215 12.9547 14.806 12.8358C14.7704 12.5758 14.6915 12.3617 14.555 12.1522C14.444 11.9827 14.1849 11.7239 14.0013 11.6004C13.6598 11.3708 13.2345 11.2187 12.8118 11.1727ZM12.846 12.1922C12.9129 12.1922 12.9585 12.2009 12.9954 12.2195C13.1462 12.2986 13.2092 12.4692 13.1409 12.6199C13.1054 12.6989 12.9857 12.8156 12.8733 12.8816C12.7666 12.9434 12.7575 12.9746 12.8001 13.1766C12.8514 13.4191 12.8163 13.5461 12.6771 13.615C12.623 13.6408 12.5942 13.6437 12.4593 13.6395C12.3114 13.6352 12.3009 13.6337 12.2483 13.5906C12.1886 13.5419 12.1318 13.4415 12.1302 13.3797C12.1302 13.3567 12.1424 13.273 12.1595 13.1941C12.1751 13.1139 12.1867 13.0237 12.1839 12.992C12.1797 12.9389 12.1741 12.9318 12.0872 12.8787C11.9251 12.7797 11.821 12.6589 11.7952 12.5399C11.7725 12.4293 11.8482 12.2794 11.9564 12.2205C11.9947 12.2005 12.0374 12.1932 12.1155 12.1932C12.2251 12.1918 12.2582 12.2047 12.4388 12.3123L12.4827 12.3397L12.553 12.2957C12.6754 12.2167 12.7421 12.1922 12.846 12.1922ZM8.50028 10.5535C8.5985 10.5205 8.77942 10.519 8.89188 10.5477C9.0911 10.6008 9.26329 10.746 9.35868 10.9412L9.41825 11.0652L9.41728 11.2371C9.41728 11.3978 9.41388 11.4179 9.36845 11.5311C9.30582 11.692 9.2435 11.7916 9.12821 11.9051C8.93037 12.1031 8.70639 12.1549 8.4075 12.076C8.17002 12.0112 7.96145 11.7772 7.91434 11.5203C7.89442 11.4128 7.91722 11.2131 7.96414 11.0867C8.06091 10.821 8.24837 10.6339 8.50028 10.5535ZM16.1029 10.5496C16.2068 10.521 16.3914 10.5209 16.4866 10.5496C16.8126 10.6458 17.0316 10.92 17.0843 11.2977C17.107 11.4627 17.0901 11.5677 17.0189 11.7127C16.9362 11.8834 16.7642 12.03 16.5921 12.076C16.2932 12.1549 16.0693 12.1032 15.8714 11.9051C15.7562 11.7916 15.6938 11.6919 15.6312 11.5311C15.5857 11.418 15.5833 11.3977 15.5833 11.2371L15.5814 11.0652L15.6409 10.9412C15.7335 10.7487 15.9079 10.6028 16.1029 10.5496ZM8.50711 3.17461C8.4431 3.12296 8.43359 3.12137 8.37821 3.16289C8.14478 3.33808 7.90548 3.93245 7.80301 4.58867C7.71049 5.17741 7.70633 5.88524 7.79031 6.52422C7.80596 6.64194 7.81014 6.65105 7.83719 6.64531C7.85468 6.64089 7.94269 6.61743 8.03348 6.59453C8.28812 6.52567 8.55415 6.49104 8.82157 6.49102H9.05106L9.1497 6.34356L9.24735 6.19707L9.24638 5.80156C9.24351 5.40125 9.21785 5.07259 9.16239 4.76836C9.14957 4.70087 9.1339 4.61281 9.12821 4.57402C9.12106 4.53375 9.09476 4.42458 9.07059 4.32988C8.93965 3.80596 8.71201 3.33836 8.50711 3.17461ZM16.6234 3.16387C16.5666 3.12098 16.5565 3.12298 16.4925 3.17461C16.2891 3.33851 16.0594 3.8064 15.93 4.32598C15.8077 4.80968 15.757 5.2447 15.7542 5.80156L15.7523 6.19707L15.8509 6.34356L15.9486 6.49102H16.1781C16.4454 6.49102 16.7115 6.52569 16.9661 6.59453C17.0572 6.61751 17.1464 6.641 17.1634 6.64531C17.1901 6.65084 17.1948 6.64126 17.2103 6.52422C17.3327 5.59373 17.2666 4.61534 17.0345 3.90312C16.9193 3.54726 16.7642 3.26864 16.6234 3.16387Z"/>
</mask>
<path d="M8.26493 2.00566C8.366 1.98987 8.64966 2.00969 8.7493 2.03984C9.47372 2.26529 10.0194 3.15954 10.2571 4.51055C10.2984 4.74175 10.3362 5.03561 10.3362 5.11602C10.3363 5.14551 10.342 5.16904 10.3489 5.16973C10.3561 5.16973 10.4122 5.14116 10.472 5.10527C11.1067 4.72631 11.8129 4.52422 12.5003 4.52422C13.1877 4.52428 13.8939 4.72624 14.5286 5.10527C14.5881 5.14098 14.6432 5.16951 14.6507 5.16973C14.6578 5.16973 14.6633 5.14595 14.6634 5.11602C14.6634 5.03849 14.7008 4.75323 14.7435 4.51055C15.0054 3.00593 15.6689 2.05155 16.4915 2.00273C16.8501 1.97985 17.1486 2.1003 17.4417 2.38164C17.809 2.73487 18.0938 3.34639 18.2503 4.11602C18.4311 4.99899 18.4371 6.12894 18.265 7.03496C18.248 7.12344 18.2395 7.20217 18.2464 7.20879C18.252 7.21453 18.3215 7.27258 18.3997 7.33574C18.6672 7.55105 18.9732 7.88246 19.1839 8.18536C19.5881 8.76547 19.8493 9.42092 19.9603 10.1346C20.0029 10.4161 20.0139 10.9839 19.9798 11.2654C19.9043 11.9143 19.7107 12.4631 19.3792 12.9656L19.2708 13.1287L19.3021 13.1815C19.3662 13.2864 19.5177 13.6109 19.5746 13.7645C19.7111 14.1334 19.7934 14.4981 19.8617 15.035C19.8873 15.2432 19.8873 16.1755 19.8617 16.3924C19.7649 17.1792 19.5743 17.775 19.264 18.2488C19.2215 18.3131 19.1815 18.3701 19.1742 18.3748C19.1685 18.3777 19.1861 18.4312 19.2132 18.493C19.4622 19.0401 19.6144 19.6191 19.7054 20.3485C19.7296 20.5497 19.7296 21.2151 19.7054 21.3963C19.6798 21.5758 19.6479 21.7628 19.6322 21.826C19.6251 21.8547 19.6114 21.9053 19.6029 21.9383L19.5873 21.9998H18.9837C18.6506 21.9998 18.3783 21.9963 18.3783 21.992C18.3791 21.9862 18.396 21.95 18.4154 21.911C18.6546 21.4357 18.6735 20.5996 18.4642 19.7596C18.3675 19.3661 18.2581 19.0773 18.0531 18.6795L17.93 18.4383V18.2908C17.93 18.1532 17.9329 18.1369 17.9769 18.0467C18.0111 17.9779 18.057 17.919 18.138 17.8387C18.2006 17.7784 18.2838 17.6803 18.3236 17.6229C18.5484 17.2969 18.7118 16.721 18.763 16.0779C18.8399 15.1031 18.5851 13.9973 18.1781 13.5477C17.9305 13.272 17.9299 12.9383 18.179 12.6697C18.2942 12.5464 18.3747 12.446 18.4544 12.3211C18.9268 11.583 19.0159 10.6164 18.6986 9.69317C18.3341 8.64081 17.5118 7.85533 16.5667 7.66289C16.2894 7.60548 16.0715 7.60145 15.7884 7.6502C15.6092 7.68035 15.4876 7.66903 15.3724 7.61309C15.2244 7.54275 15.1507 7.45465 15.0638 7.25371C15.0325 7.17906 14.9819 7.07843 14.9534 7.03106C14.8793 6.91029 14.6479 6.62055 14.5511 6.53008C14.1014 6.11091 13.5378 5.81542 12.97 5.69902C12.8292 5.67032 12.7633 5.66583 12.5003 5.66582C12.2371 5.66582 12.1713 5.67034 12.0306 5.69902C11.6434 5.77801 11.254 5.94136 10.9124 6.1668C10.6137 6.3663 10.4272 6.53164 10.2337 6.77422C10.073 6.97651 10.0136 7.07437 9.93681 7.25371C9.84999 7.45474 9.77527 7.54274 9.62724 7.61309C9.5078 7.67035 9.39066 7.68026 9.20438 7.64727C9.03367 7.61576 8.72841 7.6113 8.56473 7.63848C7.83451 7.75478 7.18056 8.19017 6.71511 8.86797C6.2398 9.55862 6.03048 10.4305 6.14577 11.2303C6.22693 11.7914 6.45353 12.2736 6.82058 12.6697C6.94869 12.809 7.00515 12.9431 7.00515 13.1053C7.00514 13.2619 6.94254 13.4127 6.82156 13.5477C6.64374 13.7444 6.47478 14.1049 6.37234 14.5096C6.12612 15.4801 6.19419 16.6188 6.54421 17.3856C6.62392 17.5608 6.72353 17.7037 6.8616 17.8387C6.94267 17.919 6.98858 17.9778 7.02273 18.0467C7.06676 18.137 7.06961 18.1531 7.06961 18.2908V18.4383L6.94754 18.6795C6.74256 19.0773 6.63221 19.3661 6.53542 19.7596C6.32338 20.611 6.3468 21.4642 6.59304 21.9237L6.63308 21.9998H5.41237L5.3987 21.9451C5.3019 21.5733 5.27663 21.3463 5.27663 20.8797C5.27663 20.5135 5.28301 20.401 5.33425 20.0535C5.40688 19.5467 5.58245 18.9452 5.78737 18.493C5.81439 18.4312 5.83116 18.3777 5.82546 18.3748C5.80708 18.361 5.66582 18.1426 5.60768 18.0369C5.42981 17.711 5.27095 17.2209 5.19264 16.7586C5.12717 16.3724 5.1194 16.2615 5.1194 15.7029C5.1194 15.1488 5.12783 15.038 5.19753 14.6248C5.28577 14.1022 5.4755 13.5578 5.69753 13.1815L5.72878 13.1287L5.62038 12.9656C5.28889 12.4631 5.09521 11.9143 5.01979 11.2654C4.9857 10.9839 4.99765 10.416 5.0403 10.1346C5.1499 9.42237 5.41145 8.76404 5.81569 8.18536C6.02631 7.88247 6.33238 7.55108 6.59988 7.33574C6.678 7.2727 6.74724 7.21474 6.7532 7.20879C6.76032 7.20306 6.7527 7.124 6.73562 7.03496C6.66024 6.63447 6.60675 6.05492 6.60671 5.60137C6.60671 5.21652 6.647 4.71174 6.70535 4.34844C6.86051 3.38803 7.22758 2.61702 7.70145 2.25371C7.85789 2.13319 8.07997 2.03591 8.26493 2.00566ZM12.2796 10.3914C12.3883 10.3801 12.8193 10.3968 12.9847 10.4168C14.2515 10.5776 15.2851 11.4238 15.5228 12.4979C15.5555 12.6444 15.5599 12.6932 15.5599 12.9402C15.5599 13.1842 15.556 13.2375 15.5247 13.3768C15.482 13.5677 15.436 13.6897 15.3421 13.8777C14.9877 14.5813 14.1991 15.0825 13.2825 15.1873C13.0347 15.2146 11.9652 15.2146 11.7171 15.1873C10.5756 15.0566 9.69272 14.3431 9.47489 13.3768C9.44358 13.2375 9.43974 13.1842 9.43974 12.9402C9.43974 12.6932 9.44411 12.6444 9.47685 12.4979C9.64055 11.7584 10.1754 11.1195 10.9524 10.7361C11.1759 10.6255 11.498 10.5129 11.7386 10.4627C11.8863 10.4326 11.971 10.4216 12.2796 10.3914ZM12.8118 11.1727C12.6566 11.1569 12.3274 11.1563 12.1722 11.1736C11.7695 11.2167 11.3314 11.3765 10.9983 11.6004C10.7108 11.7943 10.4204 12.1317 10.3079 12.4031C10.2154 12.6257 10.1694 12.8902 10.1936 13.0496C10.2477 13.3926 10.3476 13.6051 10.5667 13.8377C10.8371 14.1263 11.21 14.316 11.681 14.4051C11.8191 14.4309 11.9049 14.435 12.386 14.4393C13.1232 14.4451 13.3298 14.4259 13.6458 14.324C13.8124 14.2694 14.0842 14.1301 14.2152 14.034C14.4954 13.8243 14.703 13.5242 14.7698 13.2371C14.8125 13.0451 14.8215 12.9547 14.806 12.8358C14.7704 12.5758 14.6915 12.3617 14.555 12.1522C14.444 11.9827 14.1849 11.7239 14.0013 11.6004C13.6598 11.3708 13.2345 11.2187 12.8118 11.1727ZM12.846 12.1922C12.9129 12.1922 12.9585 12.2009 12.9954 12.2195C13.1462 12.2986 13.2092 12.4692 13.1409 12.6199C13.1054 12.6989 12.9857 12.8156 12.8733 12.8816C12.7666 12.9434 12.7575 12.9746 12.8001 13.1766C12.8514 13.4191 12.8163 13.5461 12.6771 13.615C12.623 13.6408 12.5942 13.6437 12.4593 13.6395C12.3114 13.6352 12.3009 13.6337 12.2483 13.5906C12.1886 13.5419 12.1318 13.4415 12.1302 13.3797C12.1302 13.3567 12.1424 13.273 12.1595 13.1941C12.1751 13.1139 12.1867 13.0237 12.1839 12.992C12.1797 12.9389 12.1741 12.9318 12.0872 12.8787C11.9251 12.7797 11.821 12.6589 11.7952 12.5399C11.7725 12.4293 11.8482 12.2794 11.9564 12.2205C11.9947 12.2005 12.0374 12.1932 12.1155 12.1932C12.2251 12.1918 12.2582 12.2047 12.4388 12.3123L12.4827 12.3397L12.553 12.2957C12.6754 12.2167 12.7421 12.1922 12.846 12.1922ZM8.50028 10.5535C8.5985 10.5205 8.77942 10.519 8.89188 10.5477C9.0911 10.6008 9.26329 10.746 9.35868 10.9412L9.41825 11.0652L9.41728 11.2371C9.41728 11.3978 9.41388 11.4179 9.36845 11.5311C9.30582 11.692 9.2435 11.7916 9.12821 11.9051C8.93037 12.1031 8.70639 12.1549 8.4075 12.076C8.17002 12.0112 7.96145 11.7772 7.91434 11.5203C7.89442 11.4128 7.91722 11.2131 7.96414 11.0867C8.06091 10.821 8.24837 10.6339 8.50028 10.5535ZM16.1029 10.5496C16.2068 10.521 16.3914 10.5209 16.4866 10.5496C16.8126 10.6458 17.0316 10.92 17.0843 11.2977C17.107 11.4627 17.0901 11.5677 17.0189 11.7127C16.9362 11.8834 16.7642 12.03 16.5921 12.076C16.2932 12.1549 16.0693 12.1032 15.8714 11.9051C15.7562 11.7916 15.6938 11.6919 15.6312 11.5311C15.5857 11.418 15.5833 11.3977 15.5833 11.2371L15.5814 11.0652L15.6409 10.9412C15.7335 10.7487 15.9079 10.6028 16.1029 10.5496ZM8.50711 3.17461C8.4431 3.12296 8.43359 3.12137 8.37821 3.16289C8.14478 3.33808 7.90548 3.93245 7.80301 4.58867C7.71049 5.17741 7.70633 5.88524 7.79031 6.52422C7.80596 6.64194 7.81014 6.65105 7.83719 6.64531C7.85468 6.64089 7.94269 6.61743 8.03348 6.59453C8.28812 6.52567 8.55415 6.49104 8.82157 6.49102H9.05106L9.1497 6.34356L9.24735 6.19707L9.24638 5.80156C9.24351 5.40125 9.21785 5.07259 9.16239 4.76836C9.14957 4.70087 9.1339 4.61281 9.12821 4.57402C9.12106 4.53375 9.09476 4.42458 9.07059 4.32988C8.93965 3.80596 8.71201 3.33836 8.50711 3.17461ZM16.6234 3.16387C16.5666 3.12098 16.5565 3.12298 16.4925 3.17461C16.2891 3.33851 16.0594 3.8064 15.93 4.32598C15.8077 4.80968 15.757 5.2447 15.7542 5.80156L15.7523 6.19707L15.8509 6.34356L15.9486 6.49102H16.1781C16.4454 6.49102 16.7115 6.52569 16.9661 6.59453C17.0572 6.61751 17.1464 6.641 17.1634 6.64531C17.1901 6.65084 17.1948 6.64126 17.2103 6.52422C17.3327 5.59373 17.2666 4.61534 17.0345 3.90312C16.9193 3.54726 16.7642 3.26864 16.6234 3.16387Z" fill="black"/>
<path d="M8.26493 2.00566C8.366 1.98987 8.64966 2.00969 8.7493 2.03984C9.47372 2.26529 10.0194 3.15954 10.2571 4.51055C10.2984 4.74175 10.3362 5.03561 10.3362 5.11602C10.3363 5.14551 10.342 5.16904 10.3489 5.16973C10.3561 5.16973 10.4122 5.14116 10.472 5.10527C11.1067 4.72631 11.8129 4.52422 12.5003 4.52422C13.1877 4.52428 13.8939 4.72624 14.5286 5.10527C14.5881 5.14098 14.6432 5.16951 14.6507 5.16973C14.6578 5.16973 14.6633 5.14595 14.6634 5.11602C14.6634 5.03849 14.7008 4.75323 14.7435 4.51055C15.0054 3.00593 15.6689 2.05155 16.4915 2.00273C16.8501 1.97985 17.1486 2.1003 17.4417 2.38164C17.809 2.73487 18.0938 3.34639 18.2503 4.11602C18.4311 4.99899 18.4371 6.12894 18.265 7.03496C18.248 7.12344 18.2395 7.20217 18.2464 7.20879C18.252 7.21453 18.3215 7.27258 18.3997 7.33574C18.6672 7.55105 18.9732 7.88246 19.1839 8.18536C19.5881 8.76547 19.8493 9.42092 19.9603 10.1346C20.0029 10.4161 20.0139 10.9839 19.9798 11.2654C19.9043 11.9143 19.7107 12.4631 19.3792 12.9656L19.2708 13.1287L19.3021 13.1815C19.3662 13.2864 19.5177 13.6109 19.5746 13.7645C19.7111 14.1334 19.7934 14.4981 19.8617 15.035C19.8873 15.2432 19.8873 16.1755 19.8617 16.3924C19.7649 17.1792 19.5743 17.775 19.264 18.2488C19.2215 18.3131 19.1815 18.3701 19.1742 18.3748C19.1685 18.3777 19.1861 18.4312 19.2132 18.493C19.4622 19.0401 19.6144 19.6191 19.7054 20.3485C19.7296 20.5497 19.7296 21.2151 19.7054 21.3963C19.6798 21.5758 19.6479 21.7628 19.6322 21.826C19.6251 21.8547 19.6114 21.9053 19.6029 21.9383L19.5873 21.9998H18.9837C18.6506 21.9998 18.3783 21.9963 18.3783 21.992C18.3791 21.9862 18.396 21.95 18.4154 21.911C18.6546 21.4357 18.6735 20.5996 18.4642 19.7596C18.3675 19.3661 18.2581 19.0773 18.0531 18.6795L17.93 18.4383V18.2908C17.93 18.1532 17.9329 18.1369 17.9769 18.0467C18.0111 17.9779 18.057 17.919 18.138 17.8387C18.2006 17.7784 18.2838 17.6803 18.3236 17.6229C18.5484 17.2969 18.7118 16.721 18.763 16.0779C18.8399 15.1031 18.5851 13.9973 18.1781 13.5477C17.9305 13.272 17.9299 12.9383 18.179 12.6697C18.2942 12.5464 18.3747 12.446 18.4544 12.3211C18.9268 11.583 19.0159 10.6164 18.6986 9.69317C18.3341 8.64081 17.5118 7.85533 16.5667 7.66289C16.2894 7.60548 16.0715 7.60145 15.7884 7.6502C15.6092 7.68035 15.4876 7.66903 15.3724 7.61309C15.2244 7.54275 15.1507 7.45465 15.0638 7.25371C15.0325 7.17906 14.9819 7.07843 14.9534 7.03106C14.8793 6.91029 14.6479 6.62055 14.5511 6.53008C14.1014 6.11091 13.5378 5.81542 12.97 5.69902C12.8292 5.67032 12.7633 5.66583 12.5003 5.66582C12.2371 5.66582 12.1713 5.67034 12.0306 5.69902C11.6434 5.77801 11.254 5.94136 10.9124 6.1668C10.6137 6.3663 10.4272 6.53164 10.2337 6.77422C10.073 6.97651 10.0136 7.07437 9.93681 7.25371C9.84999 7.45474 9.77527 7.54274 9.62724 7.61309C9.5078 7.67035 9.39066 7.68026 9.20438 7.64727C9.03367 7.61576 8.72841 7.6113 8.56473 7.63848C7.83451 7.75478 7.18056 8.19017 6.71511 8.86797C6.2398 9.55862 6.03048 10.4305 6.14577 11.2303C6.22693 11.7914 6.45353 12.2736 6.82058 12.6697C6.94869 12.809 7.00515 12.9431 7.00515 13.1053C7.00514 13.2619 6.94254 13.4127 6.82156 13.5477C6.64374 13.7444 6.47478 14.1049 6.37234 14.5096C6.12612 15.4801 6.19419 16.6188 6.54421 17.3856C6.62392 17.5608 6.72353 17.7037 6.8616 17.8387C6.94267 17.919 6.98858 17.9778 7.02273 18.0467C7.06676 18.137 7.06961 18.1531 7.06961 18.2908V18.4383L6.94754 18.6795C6.74256 19.0773 6.63221 19.3661 6.53542 19.7596C6.32338 20.611 6.3468 21.4642 6.59304 21.9237L6.63308 21.9998H5.41237L5.3987 21.9451C5.3019 21.5733 5.27663 21.3463 5.27663 20.8797C5.27663 20.5135 5.28301 20.401 5.33425 20.0535C5.40688 19.5467 5.58245 18.9452 5.78737 18.493C5.81439 18.4312 5.83116 18.3777 5.82546 18.3748C5.80708 18.361 5.66582 18.1426 5.60768 18.0369C5.42981 17.711 5.27095 17.2209 5.19264 16.7586C5.12717 16.3724 5.1194 16.2615 5.1194 15.7029C5.1194 15.1488 5.12783 15.038 5.19753 14.6248C5.28577 14.1022 5.4755 13.5578 5.69753 13.1815L5.72878 13.1287L5.62038 12.9656C5.28889 12.4631 5.09521 11.9143 5.01979 11.2654C4.9857 10.9839 4.99765 10.416 5.0403 10.1346C5.1499 9.42237 5.41145 8.76404 5.81569 8.18536C6.02631 7.88247 6.33238 7.55108 6.59988 7.33574C6.678 7.2727 6.74724 7.21474 6.7532 7.20879C6.76032 7.20306 6.7527 7.124 6.73562 7.03496C6.66024 6.63447 6.60675 6.05492 6.60671 5.60137C6.60671 5.21652 6.647 4.71174 6.70535 4.34844C6.86051 3.38803 7.22758 2.61702 7.70145 2.25371C7.85789 2.13319 8.07997 2.03591 8.26493 2.00566ZM12.2796 10.3914C12.3883 10.3801 12.8193 10.3968 12.9847 10.4168C14.2515 10.5776 15.2851 11.4238 15.5228 12.4979C15.5555 12.6444 15.5599 12.6932 15.5599 12.9402C15.5599 13.1842 15.556 13.2375 15.5247 13.3768C15.482 13.5677 15.436 13.6897 15.3421 13.8777C14.9877 14.5813 14.1991 15.0825 13.2825 15.1873C13.0347 15.2146 11.9652 15.2146 11.7171 15.1873C10.5756 15.0566 9.69272 14.3431 9.47489 13.3768C9.44358 13.2375 9.43974 13.1842 9.43974 12.9402C9.43974 12.6932 9.44411 12.6444 9.47685 12.4979C9.64055 11.7584 10.1754 11.1195 10.9524 10.7361C11.1759 10.6255 11.498 10.5129 11.7386 10.4627C11.8863 10.4326 11.971 10.4216 12.2796 10.3914ZM12.8118 11.1727C12.6566 11.1569 12.3274 11.1563 12.1722 11.1736C11.7695 11.2167 11.3314 11.3765 10.9983 11.6004C10.7108 11.7943 10.4204 12.1317 10.3079 12.4031C10.2154 12.6257 10.1694 12.8902 10.1936 13.0496C10.2477 13.3926 10.3476 13.6051 10.5667 13.8377C10.8371 14.1263 11.21 14.316 11.681 14.4051C11.8191 14.4309 11.9049 14.435 12.386 14.4393C13.1232 14.4451 13.3298 14.4259 13.6458 14.324C13.8124 14.2694 14.0842 14.1301 14.2152 14.034C14.4954 13.8243 14.703 13.5242 14.7698 13.2371C14.8125 13.0451 14.8215 12.9547 14.806 12.8358C14.7704 12.5758 14.6915 12.3617 14.555 12.1522C14.444 11.9827 14.1849 11.7239 14.0013 11.6004C13.6598 11.3708 13.2345 11.2187 12.8118 11.1727ZM12.846 12.1922C12.9129 12.1922 12.9585 12.2009 12.9954 12.2195C13.1462 12.2986 13.2092 12.4692 13.1409 12.6199C13.1054 12.6989 12.9857 12.8156 12.8733 12.8816C12.7666 12.9434 12.7575 12.9746 12.8001 13.1766C12.8514 13.4191 12.8163 13.5461 12.6771 13.615C12.623 13.6408 12.5942 13.6437 12.4593 13.6395C12.3114 13.6352 12.3009 13.6337 12.2483 13.5906C12.1886 13.5419 12.1318 13.4415 12.1302 13.3797C12.1302 13.3567 12.1424 13.273 12.1595 13.1941C12.1751 13.1139 12.1867 13.0237 12.1839 12.992C12.1797 12.9389 12.1741 12.9318 12.0872 12.8787C11.9251 12.7797 11.821 12.6589 11.7952 12.5399C11.7725 12.4293 11.8482 12.2794 11.9564 12.2205C11.9947 12.2005 12.0374 12.1932 12.1155 12.1932C12.2251 12.1918 12.2582 12.2047 12.4388 12.3123L12.4827 12.3397L12.553 12.2957C12.6754 12.2167 12.7421 12.1922 12.846 12.1922ZM8.50028 10.5535C8.5985 10.5205 8.77942 10.519 8.89188 10.5477C9.0911 10.6008 9.26329 10.746 9.35868 10.9412L9.41825 11.0652L9.41728 11.2371C9.41728 11.3978 9.41388 11.4179 9.36845 11.5311C9.30582 11.692 9.2435 11.7916 9.12821 11.9051C8.93037 12.1031 8.70639 12.1549 8.4075 12.076C8.17002 12.0112 7.96145 11.7772 7.91434 11.5203C7.89442 11.4128 7.91722 11.2131 7.96414 11.0867C8.06091 10.821 8.24837 10.6339 8.50028 10.5535ZM16.1029 10.5496C16.2068 10.521 16.3914 10.5209 16.4866 10.5496C16.8126 10.6458 17.0316 10.92 17.0843 11.2977C17.107 11.4627 17.0901 11.5677 17.0189 11.7127C16.9362 11.8834 16.7642 12.03 16.5921 12.076C16.2932 12.1549 16.0693 12.1032 15.8714 11.9051C15.7562 11.7916 15.6938 11.6919 15.6312 11.5311C15.5857 11.418 15.5833 11.3977 15.5833 11.2371L15.5814 11.0652L15.6409 10.9412C15.7335 10.7487 15.9079 10.6028 16.1029 10.5496ZM8.50711 3.17461C8.4431 3.12296 8.43359 3.12137 8.37821 3.16289C8.14478 3.33808 7.90548 3.93245 7.80301 4.58867C7.71049 5.17741 7.70633 5.88524 7.79031 6.52422C7.80596 6.64194 7.81014 6.65105 7.83719 6.64531C7.85468 6.64089 7.94269 6.61743 8.03348 6.59453C8.28812 6.52567 8.55415 6.49104 8.82157 6.49102H9.05106L9.1497 6.34356L9.24735 6.19707L9.24638 5.80156C9.24351 5.40125 9.21785 5.07259 9.16239 4.76836C9.14957 4.70087 9.1339 4.61281 9.12821 4.57402C9.12106 4.53375 9.09476 4.42458 9.07059 4.32988C8.93965 3.80596 8.71201 3.33836 8.50711 3.17461ZM16.6234 3.16387C16.5666 3.12098 16.5565 3.12298 16.4925 3.17461C16.2891 3.33851 16.0594 3.8064 15.93 4.32598C15.8077 4.80968 15.757 5.2447 15.7542 5.80156L15.7523 6.19707L15.8509 6.34356L15.9486 6.49102H16.1781C16.4454 6.49102 16.7115 6.52569 16.9661 6.59453C17.0572 6.61751 17.1464 6.641 17.1634 6.64531C17.1901 6.65084 17.1948 6.64126 17.2103 6.52422C17.3327 5.59373 17.2666 4.61534 17.0345 3.90312C16.9193 3.54726 16.7642 3.26864 16.6234 3.16387Z" stroke="white" stroke-width="2" mask="url(#path-1-outside-1_5976_6983)"/>
</svg>
