<svg width="24" height="24" viewBox="0 0 24 24" fill="none" xmlns="http://www.w3.org/2000/svg">
<path d="M7.26538 2.00562C7.08034 2.03578 6.85829 2.13342 6.70172 2.25404C6.22773 2.61734 5.86049 3.38846 5.70534 4.34911C5.64699 4.71241 5.60713 5.21644 5.60713 5.60129C5.60713 6.05505 5.6598 6.63516 5.73524 7.0358C5.75232 7.12484 5.76086 7.20383 5.75374 7.20956C5.74805 7.2153 5.6783 7.27274 5.60001 7.33592C5.33242 7.55131 5.02638 7.88303 4.81572 8.18603C4.41148 8.76471 4.14957 9.42239 4.03997 10.1346C3.99727 10.4161 3.98588 10.9847 4.02004 11.2662C4.09548 11.9152 4.28906 12.4638 4.62071 12.9664L4.72889 13.1286L4.69758 13.1817C4.47553 13.558 4.28622 14.1022 4.19797 14.6249C4.12822 15.0384 4.11968 15.149 4.11968 15.7033C4.11968 16.2619 4.1268 16.3725 4.19227 16.7587C4.27056 17.2211 4.42998 17.7108 4.6079 18.0368C4.66626 18.143 4.8086 18.3641 4.82568 18.3756C4.83138 18.3785 4.8143 18.4316 4.78725 18.4934C4.58228 18.9457 4.40721 19.5474 4.33461 20.0543C4.28337 20.4018 4.27625 20.5138 4.27625 20.88C4.27625 21.3466 4.30187 21.5735 4.39867 21.9454L4.4129 22H5.63275L5.5929 21.9239C5.34665 21.4644 5.32388 20.6114 5.53596 19.7599C5.63275 19.3664 5.74235 19.0778 5.94732 18.68L6.06973 18.4388V18.2909C6.06973 18.1531 6.06689 18.1373 6.02276 18.0468C5.9886 17.9779 5.94305 17.919 5.86192 17.8386C5.72385 17.7036 5.62421 17.5614 5.5445 17.3862C5.19435 16.6194 5.12602 15.4807 5.37227 14.51C5.47476 14.1051 5.64414 13.7446 5.82206 13.5479C5.94305 13.4129 6.00568 13.2622 6.00568 13.1056C6.00568 12.9434 5.94875 12.8098 5.82064 12.6705C5.4534 12.2742 5.22708 11.7917 5.14595 11.2303C5.03065 10.4304 5.23989 9.55879 5.71531 8.86811C6.18076 8.19031 6.83409 7.75522 7.56431 7.63892C7.72799 7.61163 8.03402 7.61594 8.20483 7.64754C8.39131 7.68057 8.50801 7.67049 8.62759 7.61306C8.77562 7.54271 8.84964 7.4551 8.93646 7.25407C9.01332 7.07459 9.07311 6.97693 9.23395 6.77447C9.42754 6.53179 9.61399 6.36665 9.9129 6.16704C10.2545 5.9416 10.6431 5.77791 11.0303 5.69892C11.1712 5.6702 11.2367 5.66589 11.5 5.66589C11.7633 5.66589 11.8288 5.6702 11.9697 5.69892C12.5376 5.81525 13.1013 6.11106 13.5511 6.53034C13.6479 6.6208 13.8799 6.91087 13.9539 7.03151C13.9824 7.07888 14.0322 7.17942 14.0635 7.25407C14.1504 7.4551 14.2244 7.54271 14.3724 7.61306C14.4877 7.66907 14.6087 7.68057 14.788 7.6504C15.0713 7.60158 15.2891 7.60589 15.5666 7.66333C16.5118 7.85574 17.3345 8.64122 17.6989 9.69379C18.0163 10.6171 17.9266 11.5835 17.4541 12.3216C17.3744 12.4465 17.2946 12.5471 17.1794 12.6705C16.9303 12.9391 16.9303 13.2722 17.1779 13.5479C17.585 13.9974 17.8398 15.1031 17.7629 16.0781C17.7117 16.7214 17.548 17.2972 17.3231 17.6232C17.2833 17.6806 17.2007 17.7783 17.1381 17.8386C17.0569 17.919 17.0114 17.9779 16.9772 18.0468C16.9331 18.1373 16.9303 18.1531 16.9303 18.2909V18.4388L17.0527 18.68C17.2577 19.0778 17.3673 19.3664 17.464 19.7599C17.6733 20.5999 17.6548 21.4357 17.4156 21.911C17.3957 21.9512 17.3786 21.9885 17.3786 21.9928C17.3786 21.9971 17.6505 22 17.9836 22H18.5871L18.6028 21.9383C18.6113 21.9052 18.6255 21.855 18.6326 21.8263C18.6483 21.7631 18.6796 21.5764 18.7052 21.3969C18.7294 21.216 18.7294 20.5497 18.7052 20.3486C18.6142 19.6192 18.4618 19.0405 18.2128 18.4934C18.1857 18.4316 18.1686 18.3785 18.1743 18.3756C18.1814 18.3713 18.2213 18.3139 18.264 18.2493C18.5743 17.7754 18.765 17.1795 18.8618 16.3926C18.8874 16.1757 18.8874 15.2438 18.8618 15.0356C18.7935 14.4985 18.7109 14.1338 18.5743 13.7647C18.5174 13.6111 18.3665 13.2866 18.3024 13.1817L18.2711 13.1286L18.3793 12.9664C18.7109 12.4638 18.9045 11.9152 18.98 11.2662C19.0141 10.9847 19.0027 10.4161 18.96 10.1346C18.849 9.42094 18.5885 8.76614 18.1843 8.18603C17.9736 7.88303 17.6676 7.55131 17.4 7.33592C17.3217 7.27274 17.2519 7.2153 17.2463 7.20956C17.2391 7.20383 17.2477 7.12484 17.2648 7.0358C17.437 6.1297 17.4313 4.99962 17.2505 4.11649C17.094 3.34681 16.8093 2.73509 16.442 2.38184C16.1488 2.10039 15.8499 1.97977 15.4912 2.00275C14.6685 2.05157 14.0052 3.00649 13.7433 4.51138C13.7006 4.75406 13.6636 5.03839 13.6636 5.11592C13.6636 5.14607 13.6579 5.17048 13.6508 5.17048C13.6436 5.17048 13.5881 5.14176 13.5283 5.10587C12.8935 4.72677 12.1875 4.52431 11.5 4.52431C10.8125 4.52431 10.1065 4.72677 9.47166 5.10587C9.41186 5.14176 9.35637 5.17048 9.34924 5.17048C9.34214 5.17048 9.33642 5.14607 9.33642 5.11592C9.33642 5.03551 9.29799 4.74258 9.25673 4.51138C9.01901 3.16014 8.47385 2.26553 7.74935 2.04008C7.64971 2.00993 7.36645 1.98983 7.26538 2.00562ZM7.50738 3.1745C7.71234 3.3382 7.94008 3.80632 8.07104 4.33045C8.09523 4.42522 8.12084 4.53436 8.12797 4.57455C8.13366 4.61334 8.14931 4.70093 8.16213 4.76842C8.21765 5.07285 8.24326 5.40168 8.24611 5.80232L8.24753 6.19721L8.14931 6.34367L8.05111 6.49157H7.82193C7.55435 6.49157 7.28816 6.52605 7.03337 6.59497C6.94227 6.61795 6.85402 6.64093 6.83695 6.64524C6.8099 6.65098 6.80563 6.64236 6.78998 6.5246C6.70599 5.88559 6.71026 5.17767 6.80279 4.58891C6.90526 3.93269 7.1444 3.3382 7.37783 3.16301C7.43335 3.12137 7.44331 3.1228 7.50738 3.1745ZM15.6236 3.16444C15.7645 3.26927 15.9197 3.54785 16.0349 3.90397C16.267 4.6162 16.3324 5.5941 16.21 6.5246C16.1944 6.64236 16.1901 6.65098 16.163 6.64524C16.146 6.64093 16.0577 6.61795 15.9666 6.59497C15.7118 6.52605 15.4456 6.49157 15.1781 6.49157H14.9489L14.8507 6.34367L14.7525 6.19721L14.7539 5.80232C14.7567 5.24516 14.808 4.81007 14.9304 4.32614C15.0599 3.80632 15.2891 3.3382 15.4926 3.1745C15.5567 3.1228 15.5666 3.12137 15.6236 3.16444Z" fill="black"/>
<path d="M11.2794 10.3916C10.9705 10.4218 10.8865 10.4333 10.7385 10.4635C10.4979 10.5137 10.1762 10.6257 9.95275 10.7363C9.17558 11.1197 8.64039 11.7587 8.47669 12.4982C8.44395 12.6447 8.43967 12.6935 8.43967 12.9405C8.43967 13.1846 8.44395 13.2377 8.47527 13.377C8.69305 14.3434 9.57554 15.0571 10.7171 15.1878C10.9648 15.2151 12.0352 15.2151 12.2829 15.1878C13.1995 15.083 13.9881 14.5818 14.3425 13.8782C14.4364 13.6901 14.482 13.568 14.5247 13.377C14.556 13.2377 14.5603 13.1846 14.5603 12.9405C14.5603 12.6935 14.556 12.6447 14.5233 12.4982C14.2856 11.4241 13.2522 10.5783 11.9854 10.4175C11.8202 10.3974 11.3875 10.3802 11.2794 10.3916ZM11.8117 11.1728C12.2345 11.2188 12.6601 11.371 13.0017 11.6007C13.1853 11.7242 13.4444 11.9827 13.5554 12.1522C13.692 12.3618 13.7703 12.5757 13.8059 12.8357C13.8215 12.9549 13.813 13.0453 13.7703 13.2377C13.7034 13.5249 13.4956 13.825 13.2152 14.0347C13.0842 14.1309 12.8124 14.2702 12.6458 14.3248C12.3298 14.4267 12.1234 14.4454 11.3861 14.4396C10.905 14.4353 10.8196 14.431 10.6815 14.4052C10.2104 14.3161 9.83746 14.1266 9.56702 13.838C9.3478 13.6053 9.24816 13.3928 9.19409 13.0496C9.16989 12.8902 9.21542 12.626 9.30796 12.4034C9.42041 12.132 9.71077 11.7946 9.9983 11.6007C10.3314 11.3767 10.7698 11.2173 11.1726 11.1743C11.3278 11.157 11.6565 11.157 11.8117 11.1728Z" fill="black"/>
<path d="M10.9563 12.2211C10.8481 12.28 10.7727 12.4293 10.7954 12.5399C10.8211 12.659 10.925 12.7797 11.0872 12.8788C11.1741 12.9319 11.1798 12.9391 11.184 12.9922C11.1869 13.0238 11.1755 13.1143 11.1598 13.1947C11.1427 13.2736 11.1299 13.3569 11.1299 13.3799C11.1314 13.4417 11.1883 13.5422 11.2481 13.591C11.3007 13.6341 11.3107 13.6355 11.4587 13.6398C11.594 13.6441 11.6224 13.6412 11.6765 13.6154C11.816 13.5465 11.8516 13.4201 11.8003 13.1774C11.7576 12.975 11.7662 12.9434 11.873 12.8816C11.9854 12.8156 12.105 12.6993 12.1405 12.6203C12.2089 12.4695 12.1462 12.2986 11.9953 12.2196C11.9584 12.201 11.9128 12.1924 11.8459 12.1924C11.742 12.1924 11.6751 12.2168 11.5527 12.2958L11.4829 12.3403L11.4388 12.313C11.258 12.2053 11.2253 12.1924 11.1157 12.1938C11.0374 12.1938 10.9947 12.201 10.9563 12.2211Z" fill="black"/>
<path d="M7.50025 10.5539C7.24831 10.6343 7.06042 10.821 6.96364 11.0867C6.91666 11.2131 6.89388 11.4127 6.91381 11.5203C6.96078 11.7774 7.17001 12.0114 7.40774 12.0761C7.70665 12.155 7.93012 12.1033 8.12797 11.9052C8.24326 11.7917 8.3059 11.6927 8.36853 11.5318C8.41406 11.4184 8.41692 11.3983 8.41692 11.2375L8.41834 11.0652L8.35857 10.9417C8.26318 10.7464 8.09096 10.6013 7.89169 10.5482C7.77923 10.5195 7.59847 10.5209 7.50025 10.5539Z" fill="black"/>
<path d="M15.1026 10.5496C14.9076 10.6028 14.734 10.7492 14.6414 10.9417L14.5817 11.0652L14.5831 11.2375C14.5831 11.3983 14.5859 11.4184 14.6315 11.5318C14.6941 11.6927 14.7567 11.7917 14.872 11.9052C15.0699 12.1033 15.2933 12.155 15.5923 12.0761C15.7645 12.0301 15.9367 11.8836 16.0193 11.7128C16.0905 11.5677 16.1075 11.4629 16.0848 11.2978C16.0321 10.9201 15.8129 10.6458 15.4869 10.5496C15.3916 10.5209 15.2065 10.5209 15.1026 10.5496Z" fill="black"/>
</svg>
