<svg width="24" height="24" viewBox="0 0 24 24" fill="none" xmlns="http://www.w3.org/2000/svg">
<path d="M20.6863 10.1842C20.913 9.51077 20.9914 8.79737 20.9163 8.09166C20.8411 7.38595 20.6142 6.70417 20.2506 6.09188C19.7116 5.16641 18.8886 4.43369 17.9002 3.99936C16.9118 3.56502 15.8091 3.45153 14.7511 3.67522C14.15 3.0157 13.3835 2.52379 12.5287 2.24891C11.6739 1.97402 10.7609 1.92585 9.8812 2.10921C9.00155 2.29258 8.18629 2.70103 7.51732 3.29355C6.84834 3.88606 6.3492 4.64178 6.07002 5.4848C5.36516 5.62738 4.69927 5.91671 4.11686 6.33346C3.53444 6.75021 3.04891 7.28479 2.69271 7.90146C2.14784 8.8254 1.91496 9.89632 2.02775 10.9594C2.14054 12.0225 2.59315 13.0226 3.32015 13.8153C3.09261 14.4884 3.01342 15.2017 3.08787 15.9074C3.16232 16.6131 3.38869 17.295 3.75185 17.9075C4.29155 18.8333 5.11531 19.5662 6.10441 20.0005C7.09351 20.4349 8.19686 20.5482 9.25547 20.3243C9.73301 20.8547 10.3198 21.2786 10.9766 21.5675C11.6334 21.8565 12.3452 22.0039 13.0644 21.9999C14.1488 22.0009 15.2055 21.662 16.0819 21.032C16.9584 20.402 17.6092 19.5137 17.9405 18.4951C18.6452 18.3523 19.311 18.0628 19.8934 17.6461C20.4758 17.2293 20.9614 16.6949 21.3178 16.0784C21.8562 15.1558 22.0851 14.0889 21.9717 13.0302C21.8582 11.9716 21.4083 10.9754 20.6863 10.1842ZM13.0644 20.6909C12.1763 20.6923 11.316 20.3853 10.6344 19.8236L10.7542 19.7566L14.791 17.4581C14.8915 17.4 14.9749 17.3171 15.0331 17.2175C15.0912 17.118 15.1221 17.0052 15.1228 16.8904V11.2763L16.8293 12.2501C16.8377 12.2543 16.845 12.2605 16.8506 12.268C16.8562 12.2755 16.8599 12.2842 16.8614 12.2934V16.9456C16.8593 17.9383 16.4585 18.8897 15.7469 19.5916C15.0353 20.2936 14.0708 20.6888 13.0644 20.6909ZM4.90291 17.2531C4.4575 16.4945 4.29758 15.6052 4.45127 14.7417L4.57123 14.8127L8.61197 17.1112C8.71195 17.1691 8.82578 17.1996 8.9417 17.1996C9.05763 17.1996 9.17145 17.1691 9.27143 17.1112L14.2075 14.3041V16.2478C14.207 16.2578 14.2043 16.2677 14.1994 16.2766C14.1946 16.2854 14.1877 16.2931 14.1795 16.299L10.0907 18.6251C9.21815 19.1209 8.18175 19.255 7.20908 18.9977C6.23642 18.7405 5.40699 18.113 4.90291 17.2531ZM3.8398 8.57963C4.28829 7.8161 4.9962 7.23374 5.8382 6.93563V11.6666C5.83668 11.7809 5.86629 11.8935 5.92393 11.9927C5.98157 12.0918 6.06513 12.1739 6.1659 12.2304L11.078 15.0256L9.37137 15.9994C9.36214 16.0042 9.35184 16.0067 9.34138 16.0067C9.33093 16.0067 9.32063 16.0042 9.31139 15.9994L5.2307 13.6773C4.35975 13.1793 3.72435 12.3611 3.46366 11.402C3.20296 10.4429 3.33822 9.42093 3.8398 8.55996V8.57963ZM17.8606 11.7928L12.9325 8.96996L14.6351 7.99996C14.6444 7.99512 14.6547 7.9926 14.6651 7.9926C14.6756 7.9926 14.6859 7.99512 14.6951 7.99996L18.7758 10.326C19.3998 10.6812 19.9084 11.204 20.2424 11.8336C20.5764 12.4632 20.7219 13.1735 20.662 13.8816C20.602 14.5897 20.3391 15.2664 19.904 15.8326C19.4688 16.3989 18.8793 16.8313 18.2043 17.0795V12.3485C18.2008 12.2344 18.1672 12.1232 18.1069 12.0257C18.0467 11.9283 17.9618 11.8481 17.8606 11.7928ZM19.5592 9.27354L19.4393 9.20254L15.4065 6.88438C15.306 6.82615 15.1914 6.79545 15.0748 6.79545C14.9581 6.79545 14.8436 6.82615 14.743 6.88438L9.8111 9.69137V7.7478C9.81005 7.73791 9.81172 7.72794 9.81595 7.71891C9.82017 7.70989 9.82678 7.70217 9.83509 7.69655L13.9158 5.37439C14.5412 5.01899 15.2563 4.84659 15.9774 4.87735C16.6985 4.90812 17.3958 5.14078 17.9878 5.54812C18.5798 5.95546 19.042 6.52065 19.3202 7.17757C19.5985 7.8345 19.6815 8.55601 19.5593 9.25771L19.5592 9.27354ZM8.87969 12.7191L7.17317 11.7493C7.16464 11.7442 7.15733 11.7374 7.15179 11.7292C7.14624 11.721 7.14258 11.7118 7.14107 11.702V7.0618C7.14201 6.34994 7.34837 5.65306 7.73603 5.05264C8.12369 4.45221 8.67662 3.97305 9.33018 3.67117C9.98374 3.3693 10.7109 3.25719 11.4267 3.34796C12.1425 3.43872 12.8172 3.72861 13.3722 4.18372L13.2522 4.25081L9.21551 6.54913C9.11504 6.60726 9.03162 6.69016 8.97346 6.7897C8.91529 6.88924 8.88438 7.00199 8.88375 7.11688L8.87969 12.7191ZM9.80696 10.748L12.0052 9.49812L14.2075 10.748V13.2474L12.0132 14.4972L9.81102 13.2474L9.80696 10.748Z" fill="black" fill-opacity="0.85"/>
</svg>
