<svg width="24" height="24" viewBox="0 0 24 24" fill="none" xmlns="http://www.w3.org/2000/svg">
<path d="M20 0H4C1.79086 0 0 1.79086 0 4V20C0 22.2091 1.79086 24 4 24H20C22.2091 24 24 22.2091 24 20V4C24 1.79086 22.2091 0 20 0Z" fill="#048A24"/>
<path fill-rule="evenodd" clip-rule="evenodd" d="M11.056 5C12.856 5 13.624 5.104 14.72 5.688C15.912 6.328 16.648 7.6 16.648 9.184C16.648 10.656 16.048 11.928 14.896 12.688C13.84 13.392 12.64 13.488 11.04 13.488H9.32H9.056H7V5H11.056ZM9.056 11.712H11.512C13.232 11.712 14.544 11.024 14.544 9.208C14.544 7.52 13.488 6.784 11.376 6.8L9.056 6.816V11.712ZM7 15.272H9.056V19H7V15.272Z" fill="white"/>
</svg>
