<svg width="24" height="24" viewBox="0 0 24 24" fill="none" xmlns="http://www.w3.org/2000/svg">
<path d="M18.5113 10.9667C18.5452 11.0853 18.5452 11.2038 18.5452 11.3224C18.5452 12.8804 16.6485 13.1513 15.3276 13.1513C10.2132 13.1513 6.40291 9.96757 6.40291 9.00229C6.40291 8.93455 6.40291 8.86681 6.41985 8.79907L6.03034 9.74742C5.92874 9.98451 5.87793 10.2555 5.87793 10.5095C5.87793 12.4062 10.1794 15.2851 15.0905 15.2851C17.2581 15.2851 18.9177 14.4722 18.9177 12.9989C18.9177 12.8804 18.9177 12.7957 18.7314 11.932L18.5113 10.9667Z" fill="black"/>
<path d="M15.3277 13.1514C16.6486 13.1514 18.5453 12.8805 18.5453 11.3225C18.5453 11.2039 18.5453 11.0854 18.5114 10.9668L17.7324 7.56293C17.5461 6.8178 17.3937 6.4791 16.0728 5.81865C15.0567 5.29367 12.8383 4.42999 12.1778 4.42999C11.5682 4.42999 11.3819 5.22593 10.6537 5.22593C9.95936 5.22593 9.43438 4.63321 8.77392 4.63321C8.14733 4.63321 7.7409 5.05658 7.41914 5.95412C7.41914 5.95412 6.53853 8.44354 6.41998 8.81611C6.40305 8.88385 6.38611 8.95159 6.40305 9.01932C6.40305 9.96767 10.2134 13.1514 15.3277 13.1514ZM18.7485 11.949C18.9348 12.8127 18.9348 12.8974 18.9348 13.0159C18.9348 14.4893 17.2752 15.3021 15.1075 15.3021C10.1964 15.3021 5.895 12.4232 5.895 10.5265C5.895 10.2556 5.94581 10.0015 6.04742 9.76446C4.2862 9.84913 2 10.1709 2 12.1861C2 15.4884 9.84081 19.5697 16.0389 19.5697C20.7976 19.5697 22 17.419 22 15.7255C22 14.3707 20.8315 12.8635 18.7485 11.949Z" fill="#EE0000"/>
</svg>
