<svg width="24" height="24" viewBox="0 0 24 24" fill="none" xmlns="http://www.w3.org/2000/svg">
<path d="M17.5872 6.35028H6.44824C6.44824 5.65408 7.45508 3.54963 9.46875 0.0369263C9.46875 0.0369263 9.74756 1.88952 10.3052 5.5947L13.7082 5.59479L14.5434 0.0369263C16.5726 3.59621 17.5872 5.70066 17.5872 6.35028Z" fill="white"/>
<path d="M12.0007 23.963L4.42676 18.6634V6.29438C4.42676 6.29438 7.22709 5.26239 12.0104 5.26239C16.7938 5.26239 19.5736 6.29438 19.5736 6.29438V18.6634L12.0007 23.963Z" fill="white"/>
<path d="M12.0007 23.2181L4.91064 18.2778V6.79085C4.91064 6.79085 7.56203 5.83246 12.0007 5.83246V23.2181Z" fill="#DBDBDB"/>
<path d="M12.0101 5.83246C12.0069 5.83246 12.0038 5.83256 12.0005 5.83246V23.2035H12.0006L19.0283 18.2775V6.79085C19.0283 6.79085 16.4488 5.83246 12.0101 5.83246Z" fill="#C6C6C6"/>
<path d="M15.8368 20.5153L15.239 15.327H11.9531C11.9531 19.445 11.9531 22.0794 11.9531 23.2302L12.0005 23.2749C13.2788 22.4016 14.5576 21.4817 15.8368 20.5153Z" fill="#3B3B63"/>
<path d="M8.16602 20.5563L12.0003 23.2749L12.0022 15.169H8.68153L8.16602 20.5563Z" fill="#53537A"/>
<path d="M13.6415 19.0206C13.6415 19.9119 12.7945 20.3538 12.0176 20.3538C11.2406 20.3538 10.3765 19.9119 10.3765 19.0206" fill="#BC9375"/>
<path d="M12.0086 19.4815C11.3849 19.4815 11.0815 19.0317 11.0815 18.1069H11.379C11.379 19.1896 11.8041 19.1896 12.0086 19.1896C12.2131 19.1896 12.6383 19.1896 12.6383 18.1069H12.9357C12.9357 19.0317 12.6323 19.4815 12.0086 19.4815Z" fill="white"/>
<path d="M12.0005 18.3326C12.1924 18.8286 12.5634 19.0766 13.1134 19.0766C13.6519 19.0766 14.2138 18.798 14.4697 18.1096C14.8271 17.1466 14.8236 15.8062 14.8236 15.8062C14.8236 15.8062 16.4119 13.8522 16.4119 13.1915C16.4119 13.1915 14.9414 13.1915 12.0005 13.1915V18.3326Z" fill="#C49A7E"/>
<path d="M7.5249 13.1915C7.5249 13.9567 9.09951 15.8062 9.09951 15.8062C9.09951 15.8062 9.09564 17.1462 9.45345 18.1096C9.70877 18.7976 10.2713 19.0766 10.8099 19.0766C11.3599 19.0766 11.7567 18.8286 12.0003 18.3326V13.1915H7.5249Z" fill="#D8B7A0"/>
<path d="M16.2225 8.79188C14.998 7.5582 14.6918 4.98566 14.6918 4.98566C14.4632 5.79627 13.9663 8.1863 13.9663 8.1863C13.9663 8.1863 13.0012 7.87958 11.9616 7.87797C11.9275 7.87797 11.9275 11.0982 11.9616 17.5385L12.9513 16.8356L13.1353 13.4242L14.1891 14.6057L15.5466 14.9955C15.5466 14.9955 16.0546 14.6396 16.0546 14.641C16.2702 14.3442 16.3417 14.0913 16.3939 13.9601C16.5824 13.4828 16.1591 9.83251 16.1591 9.83251C16.0088 9.52335 16.2225 8.79188 16.2225 8.79188Z" fill="#3B3B63"/>
<path d="M10.0609 8.18611C10.0609 8.18611 9.56382 5.79618 9.3354 4.98547C9.3354 4.98547 9.02937 7.55801 7.80475 8.7917C7.80475 8.7917 8.01845 9.52326 7.86814 9.83232C7.86814 9.83232 7.4448 13.4828 7.63334 13.9594C7.68541 14.0907 7.75751 14.3434 7.97286 14.6402C7.97286 14.6389 8.48108 14.9949 8.48108 14.9949L9.8383 14.605L10.8919 13.4236L11.0764 16.835L12.0017 17.5194V7.85986C10.9583 7.86158 10.0609 8.18611 10.0609 8.18611Z" fill="#53537A"/>
<path d="M15.3654 2.60159C15.5686 2.97364 17.315 6.41319 17.315 7.60431L16.5404 9.67752C16.6714 10.8474 16.9321 13.3892 16.7353 13.8858C16.6139 14.193 16.1508 14.8249 15.7548 15.3366L16.2962 20.1929L15.5643 20.7108L15.1573 17.1625C15.1014 17.5226 15.0173 17.907 14.8891 18.2523C14.7195 18.7093 14.4198 19.0556 14.0366 19.2607C14.0141 20.3563 12.986 20.9473 12.0172 20.9473C11.0405 20.9473 10.0037 20.3567 9.98088 19.2616C9.59684 19.0561 9.2968 18.7098 9.12704 18.2523C9.00393 17.9203 8.92099 17.5529 8.86476 17.2048L8.47545 20.7761L7.73953 20.2497L8.27098 15.3514C7.87184 14.8374 7.39991 14.1961 7.27729 13.8855C7.08052 13.3888 7.331 10.8474 7.46224 9.67733L6.6416 7.53148V7.46155C6.6416 6.27043 8.43377 2.97364 8.63721 2.60159L9.21763 1.55707C9.57103 3.97712 9.7476 5.18822 9.74734 5.19038L10.0331 7.15144L10.4092 7.75883C10.7705 7.63903 11.3838 7.47267 12.0049 7.47267C12.6266 7.47267 13.2441 7.6396 13.6069 7.75921L13.9828 7.15154L14.797 1.55707L15.3654 2.60159ZM12.0172 20.1686C12.446 20.1686 13.0566 19.9781 13.2091 19.4732C13.1927 19.4736 13.1769 19.475 13.1606 19.475C13.0771 19.475 12.9991 19.4673 12.9234 19.4571C12.7023 19.7593 12.3577 19.851 12.0087 19.851C11.6603 19.851 11.3164 19.7585 11.0957 19.4567C11.0195 19.4674 10.9406 19.475 10.8565 19.475C10.8404 19.475 10.8249 19.4736 10.8092 19.4732C10.9632 19.9781 11.582 20.1686 12.0172 20.1686ZM11.5151 19.3386C11.6481 19.4365 11.8124 19.4909 12.009 19.4909C12.2045 19.4909 12.3681 19.4361 12.5009 19.3386C12.395 19.2924 12.2992 19.2373 12.2147 19.1771C12.1382 19.1994 12.0651 19.1989 12.0086 19.1989C11.9519 19.1989 11.878 19.1989 11.8009 19.1766C11.7166 19.2373 11.621 19.2924 11.5151 19.3386ZM14.5617 15.5713C15.0885 14.9286 15.8816 13.8936 15.9965 13.6039C16.0831 13.3057 15.9353 11.3286 15.7472 9.67144L15.7369 9.57957L15.8923 9.1679C15.3798 8.63129 15.0223 7.89593 14.778 7.20151L14.7463 7.41965L13.9372 8.72583L13.6212 8.59357C13.6134 8.59025 12.7884 8.25097 12.0053 8.25097C11.2172 8.25097 10.4056 8.58996 10.3976 8.59329L10.0812 8.72668L9.27106 7.41994L9.24706 7.25253C9.00016 7.9402 8.64225 8.66265 8.13219 9.18757L8.28066 9.57985L8.2703 9.67182C8.08215 11.3286 7.93436 13.3057 8.02389 13.6114C8.13587 13.8941 8.92902 14.9291 9.45553 15.5713L9.54341 15.6785L9.54293 15.816C9.54293 15.8289 9.54448 17.1002 9.87297 17.985C10.1114 18.6266 10.6405 18.6952 10.8572 18.6952C11.4019 18.6952 11.6323 18.2043 11.6418 18.1834C11.7695 17.9368 11.8333 17.5315 11.8333 16.9677H12.1626C12.1626 17.4207 12.2313 17.8268 12.3686 18.1861C12.3769 18.2039 12.6131 18.6965 13.1606 18.6965C13.3768 18.6965 13.906 18.6271 14.1443 17.9854C14.4738 17.0976 14.4742 15.8289 14.4742 15.8165L14.4738 15.679L14.5617 15.5713Z" fill="#333152"/>
<path d="M14.4722 12.1158H13.2827H12.8862V12.1323C12.8862 12.6761 13.3651 13.1167 13.9269 13.1167C14.4888 13.1167 14.9677 12.676 14.9677 12.1323V12.1158H14.4722Z" fill="#333152"/>
<path d="M13.2827 12.1158V12.1323C13.2827 12.4558 13.5479 12.7179 13.8776 12.7179C14.2072 12.7179 14.4723 12.4558 14.4723 12.1323V12.1158H13.2827Z" fill="white"/>
<path d="M13.7821 12.1158C13.7794 12.1158 13.7771 12.1172 13.7747 12.1177C13.8092 12.1248 13.8284 12.2017 13.821 12.2529C13.8098 12.3312 13.7419 12.3856 13.6641 12.3869C13.6867 12.4892 13.7717 12.5715 13.8845 12.5871C14.0287 12.6071 14.162 12.51 14.1824 12.3686C14.1972 12.2644 14.1461 12.1158 14.0609 12.1158H13.7821Z" fill="#333152"/>
<path d="M10.6434 12.1158H9.45415H9.05762V12.1323C9.05762 12.6761 9.53661 13.1167 10.0983 13.1167C10.6602 13.1167 11.1392 12.676 11.1392 12.1323V12.1158H10.6434Z" fill="#333152"/>
<path d="M9.45459 12.1158V12.1323C9.45459 12.4558 9.71997 12.7179 10.0491 12.7179C10.3789 12.7179 10.644 12.4558 10.644 12.1323V12.1158H9.45459Z" fill="white"/>
<path d="M10.2326 12.1158H9.95353C9.95111 12.1158 9.94849 12.1172 9.94627 12.1177C9.98072 12.1248 9.99979 12.2017 9.99253 12.2529C9.9813 12.3312 9.91375 12.3856 9.83545 12.3869C9.85839 12.4892 9.94336 12.5715 10.056 12.5871C10.2001 12.6071 10.3337 12.51 10.3538 12.3686C10.3687 12.2644 10.3178 12.1158 10.2326 12.1158Z" fill="#333152"/>
<path d="M14.3526 11.6516C14.4192 11.58 14.9845 10.9503 14.2284 10.9503C13.5452 10.9503 13.0536 11.4914 12.9233 11.6516H14.3526Z" fill="#C49A7E"/>
<path d="M11.091 11.6516C10.9608 11.4914 10.4692 10.9503 9.78584 10.9503C9.03015 10.9503 9.59547 11.58 9.66167 11.6516H11.091Z" fill="#D8B7A0"/>
<path d="M7.45654 7.39821C7.50145 6.78037 8.1562 5.30004 8.78076 4.05249L8.94723 5.19316C8.88374 5.61965 8.59357 7.29227 7.81523 8.34658L7.45654 7.39821Z" fill="#D8B7A0"/>
<path d="M15.0835 5.10429L15.2369 4.05255C15.8614 5.30001 16.5165 6.78043 16.5614 7.39827L16.2111 8.32412C15.3702 7.1635 15.1063 5.27673 15.0835 5.10429Z" fill="#C49A7E"/>
<path d="M11.4257 17.6605C11.1324 17.442 10.8315 17.1663 10.8315 16.9549C10.8315 16.816 11.0817 16.3879 11.0817 16.3879H12.9421C12.9421 16.3879 13.1861 16.7674 13.1861 16.9549C13.1861 17.1518 12.8824 17.4198 12.5794 17.6383C12.4763 17.464 12.345 17.4337 12.2844 17.5711C12.2531 17.6423 12.2469 17.7448 12.2622 17.8521C12.0972 17.9568 11.9766 18.0242 11.9766 18.0242C11.9766 18.0242 11.8835 17.9708 11.7503 17.8848C11.7718 17.7659 11.7677 17.6495 11.7331 17.5711C11.6719 17.4318 11.5381 17.4648 11.4341 17.6454C11.4313 17.6504 11.4285 17.6554 11.4257 17.6605Z" fill="#333152"/>
</svg>
