<svg width="24" height="24" viewBox="0 0 24 24" fill="none" xmlns="http://www.w3.org/2000/svg">
<path d="M18.827 10.3762C18.8347 8.61128 18.5031 6.86136 17.8504 5.22156C17.7153 5.27693 17.6181 5.32829 17.5478 5.3634C17.4041 5.43791 17.2866 5.55456 17.2111 5.69771C17.1355 5.8409 17.1055 6.00371 17.125 6.1644C17.208 6.88186 17.2505 7.60345 17.252 8.32568C17.252 11.627 16.1862 14.7933 14.2506 17.2409C12.4202 19.5549 9.96447 21.0434 7.29395 21.4689L7.31689 21.4824C8.08799 21.9204 8.95446 22.1633 9.84084 22.1898C10.7272 22.2165 11.6067 22.026 12.4027 21.6351C16.1714 19.7872 18.827 15.4363 18.827 10.3762Z" fill="#FD3456"/>
<path d="M19.5635 4.8853C19.3294 4.87888 19.0951 4.89381 18.8638 4.92984C19.5408 6.66554 19.8849 8.51322 19.8782 10.3763C19.8782 16.0496 16.7173 21.084 12.103 22.9197C12.3354 22.9346 12.5704 22.9441 12.8068 22.9441H12.8419C13.9414 22.9392 15.026 22.6894 16.0169 22.213C17.0078 21.7366 17.8802 21.0455 18.5706 20.1898C20.3375 18.0029 21.4222 15.0568 21.4222 11.827C21.4389 9.38798 20.7967 6.98964 19.5635 4.8853Z" fill="#FD3456"/>
<path d="M23.9181 11.827C23.9199 10.3644 23.6321 8.91596 23.0711 7.56522C22.8272 6.95879 22.4638 6.40757 22.0027 5.94426C21.7552 5.6947 21.4726 5.48265 21.1639 5.31479C21.0855 5.27428 21.0058 5.23778 20.9288 5.20404C21.9482 7.26109 22.4749 9.52715 22.4674 11.8229C22.4674 15.1053 21.3975 18.2676 19.4956 20.6936C20.8695 19.6595 21.9842 18.3202 22.7517 16.7814C23.5192 15.2427 23.9185 13.5465 23.9181 11.827Z" fill="#FD3456"/>
<path d="M20.7816 4.08286C19.7479 3.01381 18.5095 2.16385 17.1403 1.58367C15.7711 1.00348 14.299 0.704951 12.8119 0.705874C6.66851 0.705874 1.63409 5.79567 1.69622 11.9391C1.70948 13.3956 2.01016 14.8351 2.581 16.1752C2.39792 16.1509 2.21303 16.1427 2.02852 16.1509C1.53007 16.1738 0.824972 15.9942 0.506185 15.905C0.187396 15.8159 -0.0976239 16.0712 0.0320525 16.3683V16.3778C1.13565 18.9051 3.58193 20.5504 5.91745 20.545C6.07267 20.545 6.22779 20.5369 6.38213 20.5207C11.8515 20.1046 16.1916 14.7947 16.1916 8.32707C16.1916 7.91911 16.1741 7.5139 16.1389 7.11137C16.1347 7.0628 16.1158 7.01667 16.0848 6.97908C16.0537 6.94153 16.012 6.91425 15.9652 6.90094C15.9183 6.8876 15.8685 6.88884 15.8223 6.90447C15.7762 6.92007 15.7358 6.94937 15.7067 6.98844C14.1938 8.99032 11.9528 12.5105 9.14993 10.6761C8.06929 9.97234 7.49382 8.45808 7.81938 6.91682C8.40293 4.14905 11.6286 2.32413 13.0497 2.89686C13.1604 2.94144 13.5602 3.10083 13.6967 3.46555C13.9047 4.02208 13.2779 4.48001 12.9578 5.46606C12.6133 6.53321 12.8079 7.66383 13.0497 7.7138C13.3198 7.76784 13.7723 6.7777 14.8881 5.87671C15.6986 5.2243 16.3091 5.04059 16.6928 4.34762C17.0629 3.67222 16.4037 2.96035 16.6279 2.89686C16.8522 2.83338 17.0615 3.61144 17.7288 3.99776C18.2867 4.32197 18.7838 4.11933 19.5173 4.08961C19.7887 4.08767 20.0598 4.10846 20.3278 4.15175C20.3278 4.15175 20.4709 4.17202 20.6979 4.2193C20.7152 4.22376 20.7335 4.22254 20.7501 4.21583C20.7667 4.20912 20.7808 4.19726 20.7901 4.182C20.7995 4.16674 20.8037 4.14888 20.8022 4.13103C20.8007 4.11319 20.7935 4.09631 20.7816 4.08286ZM12.4958 12.6523C12.6184 12.4881 12.8001 12.3781 13.0024 12.3457C13.0901 12.3332 13.1794 12.3387 13.2649 12.362C13.3503 12.3852 13.4302 12.4256 13.4995 12.4808C13.7696 12.7306 13.69 13.2142 13.4576 13.4925C13.2415 13.7492 12.816 13.918 12.5202 13.7275C12.4378 13.6638 12.3712 13.5818 12.3258 13.4881C12.2803 13.3944 12.2572 13.2914 12.2581 13.1872C12.2666 12.9852 12.3516 12.794 12.4958 12.6523Z" fill="#290042"/>
</svg>
