<svg width="24" height="24" viewBox="0 0 24 24" fill="none" xmlns="http://www.w3.org/2000/svg">
<path d="M17.7891 5.62207C18.4085 7.15374 18.7237 8.78852 18.7168 10.4375C18.7168 15.1513 16.2029 19.2464 12.5732 20.998C11.7746 21.384 10.8924 21.5712 10.0039 21.5449C9.11537 21.5187 8.24648 21.2792 7.47266 20.8467L7.46582 20.8428L7.44434 20.8311L6.22363 20.123L7.61816 19.9043C9.92158 19.543 12.0541 18.2775 13.6523 16.2891C15.3429 14.1851 16.2801 11.4541 16.2803 8.59766L16.2725 8.12598C16.2579 7.65543 16.2229 7.18561 16.168 6.71777L16.1592 6.53223C16.165 6.34729 16.2136 6.16543 16.3018 6.00098C16.4193 5.78185 16.6013 5.60399 16.8223 5.49121L16.8291 5.48828L17.1387 5.3457L17.6025 5.15918L17.7891 5.62207Z" fill="#FD3456" stroke="white"/>
<path d="M19.3828 5.31152L19.6562 5.31836L19.7979 5.55273C20.9837 7.51659 21.6024 9.75579 21.5869 12.0342L21.5752 12.5957C21.4625 15.2001 20.5698 17.5874 19.1494 19.458L18.8369 19.8506C18.1515 20.6749 17.2868 21.34 16.3057 21.7979C15.3244 22.2557 14.2506 22.4953 13.1631 22.5H13.1289C12.8978 22.5 12.6694 22.4913 12.4473 22.4775L12.2988 21.5117C16.3453 19.9492 19.1611 15.6383 19.1611 10.7334V10.7314C19.1671 9.12608 18.8612 7.53347 18.2598 6.03711L18.0244 5.45117L18.6484 5.35645C18.8911 5.31976 19.1372 5.30501 19.3828 5.31152Z" fill="#FD3456" stroke="white"/>
<path d="M20.625 5.35645L20.8584 5.47363L20.8682 5.47949C21.1786 5.65948 21.4619 5.88581 21.709 6.15137H21.708C22.1513 6.62617 22.4998 7.18868 22.7334 7.80566L22.9121 8.29883C23.3023 9.45936 23.5014 10.6837 23.5 11.918L23.4961 12.2285C23.4542 13.7801 23.0953 15.3058 22.4434 16.6992C21.7479 18.1856 20.7362 19.4825 19.4863 20.4854L18.7715 19.7988C20.3488 17.6538 21.2451 14.8431 21.2451 11.9141V11.9121C21.2514 9.8673 20.8105 7.85024 19.96 6.02051L19.3818 4.77539L20.625 5.35645Z" fill="#FD3456" stroke="white"/>
<path d="M12.7822 1.5C14.2161 1.49917 15.6355 1.78491 16.9561 2.33984C18.1116 2.82549 19.171 3.50877 20.0859 4.35742L20.4697 4.73145L20.4775 4.73926L20.4854 4.74805C20.5671 4.84019 20.6171 4.95675 20.6279 5.08008C20.6388 5.20442 20.6093 5.3292 20.5439 5.43457L20.543 5.43359C20.4778 5.53862 20.3822 5.62047 20.2686 5.66602C20.1617 5.70884 20.0449 5.71647 19.9326 5.69238V5.69434C19.8349 5.67416 19.7559 5.65951 19.7021 5.65039C19.6753 5.64584 19.6549 5.64267 19.6416 5.64062C19.635 5.6396 19.6298 5.6391 19.627 5.63867C19.6256 5.63847 19.6245 5.63776 19.624 5.6377L19.6143 5.63672C19.3989 5.60223 19.181 5.58498 18.9629 5.58594C18.816 5.59207 18.6779 5.60687 18.5352 5.62305C18.3966 5.63876 18.2411 5.65776 18.0898 5.66504C17.769 5.68046 17.4215 5.64688 17.0547 5.43555C16.9959 5.40177 16.9403 5.36579 16.8877 5.32812C16.8725 5.37469 16.8575 5.42263 16.8359 5.46973L16.7881 5.56543C16.5598 5.97444 16.2627 6.22571 15.9561 6.44141C15.633 6.66862 15.364 6.81912 15.0029 7.10742C14.5337 7.48343 14.2005 7.88008 13.9414 8.19727C13.8197 8.34629 13.6919 8.50654 13.5801 8.61914C13.5234 8.67613 13.4464 8.74585 13.3535 8.7998C13.2602 8.85401 13.0995 8.92174 12.9033 8.88281L12.9004 8.88184C12.6989 8.84054 12.5769 8.70759 12.5186 8.62891C12.4541 8.54203 12.4108 8.44523 12.3799 8.36035C12.317 8.18785 12.2767 7.97732 12.2578 7.75684C12.2199 7.313 12.2591 6.7437 12.4404 6.18652H12.4414C12.6083 5.67658 12.8637 5.28498 13.002 5.03809C13.1217 4.8243 13.1368 4.74769 13.1338 4.71484L13.1279 4.69336C13.114 4.65657 13.0784 4.60964 13.0059 4.55957C12.935 4.51067 12.8622 4.48155 12.8154 4.46289C12.6261 4.38721 12.315 4.37172 11.8994 4.47949C11.4934 4.58485 11.0355 4.79608 10.5898 5.10156C9.69238 5.71682 8.91446 6.66471 8.67969 7.76855V7.76953C8.43255 8.93071 8.83843 10.0182 9.54102 10.5703L9.68555 10.6738L9.68652 10.6748C10.2353 11.031 10.7231 11.1097 11.168 11.0371C11.6282 10.962 12.0912 10.7157 12.5586 10.3359C13.5099 9.56291 14.3244 8.37592 15.0469 7.42773C15.1346 7.31215 15.2545 7.22565 15.3916 7.17969L15.4961 7.15332C15.6026 7.13456 15.7124 7.13938 15.8174 7.16895C15.9575 7.2084 16.0825 7.28959 16.1758 7.40137L16.1768 7.40234C16.27 7.51455 16.327 7.65293 16.3398 7.79883C16.3734 8.18056 16.3906 8.56467 16.3906 8.95117C16.3906 15.0467 12.26 20.1585 6.91992 20.5693L6.9209 20.5703C6.76195 20.5869 6.60222 20.5937 6.44238 20.5938L6.44336 20.5947C4.07492 20.6002 1.65798 18.9617 0.572266 16.4961L0.529297 16.3994V16.3662C0.448288 16.07 0.541697 15.7746 0.750977 15.5781C0.94681 15.3943 1.21793 15.3175 1.48535 15.3574L1.59961 15.3809L1.86914 15.4512C2.10495 15.508 2.39165 15.5642 2.63672 15.582C2.26725 14.5105 2.06999 13.3859 2.05957 12.25C2.00006 6.3652 6.85844 1.5 12.7822 1.5ZM13.0303 13.1113C12.9738 13.1217 12.9238 13.1531 12.8906 13.1973L12.8682 13.2275L12.8408 13.2549C12.8018 13.2929 12.7783 13.3422 12.7734 13.3945C12.7741 13.4097 12.7775 13.4246 12.7842 13.4385V13.4395C12.7859 13.4429 12.7899 13.445 12.792 13.4482C12.8012 13.4473 12.8143 13.4483 12.8311 13.4434C12.8944 13.4247 12.9573 13.3814 12.9932 13.3398C13.0322 13.2933 13.0647 13.2185 13.0703 13.1504C13.0716 13.1345 13.0692 13.1228 13.0684 13.1143C13.056 13.1109 13.043 13.1099 13.0303 13.1113ZM19.6904 5.16113V5.16211H19.6914V5.16113L19.6943 5.14258L19.6904 5.16113Z" fill="#290042" stroke="white"/>
</svg>
