<svg width="24" height="24" viewBox="0 0 24 24" fill="none" xmlns="http://www.w3.org/2000/svg">
<path d="M12 21.5232C6.74885 21.5232 2.47656 17.2513 2.47656 11.9999C2.47656 6.74858 6.74885 2.47668 12 2.47668C17.2512 2.47668 21.5235 6.74898 21.5235 12.0001C21.5235 17.2513 17.2512 21.5232 12 21.5232Z" fill="#85EA2D"/>
<path fill-rule="evenodd" clip-rule="evenodd" d="M21.0467 12C21.0467 7.0035 16.9965 2.95329 12 2.95329C7.0037 2.95329 2.95329 7.0037 2.95329 12C2.95329 16.9963 7.0037 21.0467 12 21.0467C16.9965 21.0467 21.0467 16.9963 21.0467 12ZM2 12C2 6.48598 6.48598 2 12 2C17.514 2 22.0002 6.48598 22.0002 12C22.0002 17.514 17.514 22 12 22C6.48598 22 2 17.514 2 12ZM8.28877 9.31681C8.28464 9.13224 8.28051 8.94805 8.29679 8.76709C8.34676 8.21339 8.38154 7.98652 9.04679 8.0097C9.11032 8.0097 9.17233 8.00356 9.23773 7.99709C9.2752 7.99338 9.31379 7.98955 9.35442 7.98672V6.8945C9.26344 6.8945 9.17607 6.89314 9.09122 6.89182C8.92866 6.88928 8.77537 6.88689 8.62381 6.8945C7.80466 6.94068 7.31232 7.32527 7.17779 8.12124C7.11323 8.49382 7.09908 8.87338 7.08498 9.25167C7.07812 9.43557 7.07128 9.61917 7.05866 9.80154C7.04726 10.0938 7.01648 10.3822 6.96251 10.6667C6.85097 11.1742 6.63189 11.3319 6.11657 11.3589C6.0474 11.3665 5.98204 11.3781 5.91288 11.3935V12.6124C6.85097 12.6586 6.9779 12.9892 7.05486 13.9699C7.06863 14.1538 7.06518 14.3376 7.06172 14.5215C7.05846 14.6953 7.05519 14.869 7.06645 15.0427C7.08165 15.3811 7.12782 15.7157 7.19718 16.0426C7.41267 16.9385 8.2856 17.2383 9.34302 17.0576V15.9886C9.28483 15.9886 9.22896 15.989 9.17477 15.9895C9.07113 15.9903 8.97363 15.9911 8.87768 15.9886C8.51987 15.9772 8.38534 15.8886 8.35076 15.5426C8.32306 15.2751 8.31615 15.0049 8.30923 14.7343C8.30461 14.5537 8.29999 14.373 8.28919 14.193C8.23542 13.3584 8.14327 12.5357 7.32791 12.0049C7.74689 11.6973 8.05072 11.3281 8.14687 10.8398C8.21603 10.4976 8.25841 10.1553 8.2854 9.80913C8.29613 9.64608 8.29245 9.48129 8.28877 9.31681ZM9.56191 11.2973H9.5773C9.96569 11.3051 10.2771 11.6242 10.2693 12.0125V12.0509C10.2461 12.4315 9.91951 12.724 9.53872 12.7008H9.49254C9.10795 12.6818 8.80811 12.351 8.8273 11.9626C8.84669 11.578 9.17731 11.2781 9.56191 11.2973ZM11.2924 11.9472C11.3038 11.578 11.6154 11.2857 11.9884 11.2973C12.4152 11.2935 12.696 11.5704 12.7 11.9896C12.7 12.4241 12.4346 12.701 12.0116 12.701C11.5808 12.701 11.2964 12.4317 11.2964 12.0125C11.2924 11.9896 11.2924 11.9704 11.2924 11.9472ZM13.7267 11.9934C13.7381 11.6012 14.0651 11.2895 14.4573 11.2973C14.8495 11.2973 15.1955 11.6279 15.1765 12.0087C15.1533 12.4201 14.7957 12.7623 14.4419 12.7008H14.4341C14.0419 12.7008 13.7267 12.3855 13.7267 11.9934ZM17.0645 10.7626C17.1758 11.1858 17.3989 11.3357 17.845 11.3549C17.8945 11.3576 17.9423 11.3637 17.9991 11.371C18.0262 11.3744 18.0552 11.3781 18.0875 11.3819V12.601C18.0335 12.6202 17.9798 12.6316 17.922 12.6394C17.3259 12.6778 17.0529 12.9238 16.9953 13.5199C16.973 13.7409 16.9649 13.9645 16.9567 14.1885C16.9508 14.3503 16.945 14.5122 16.9337 14.6735C16.9221 15.0927 16.8838 15.5117 16.8184 15.927C16.6645 16.6808 16.1953 17.0576 15.4185 17.1038C15.2536 17.114 15.0887 17.1107 14.917 17.1073C14.8287 17.1056 14.7386 17.1038 14.6458 17.1038V16.0156C14.7023 16.0126 14.7559 16.009 14.8081 16.0055C14.8907 16 14.9694 15.9947 15.0495 15.9924C15.5149 15.9808 15.6762 15.8309 15.6994 15.3695C15.7172 15.0329 15.7282 14.6964 15.7393 14.3611C15.7449 14.1906 15.7505 14.0203 15.757 13.8505C15.7915 13.1159 15.9916 12.4623 16.6721 12.0047C16.2839 11.7279 15.9724 11.3895 15.8877 10.9357C15.817 10.5311 15.7817 10.1184 15.7465 9.70633C15.7339 9.55832 15.7213 9.41042 15.707 9.26303C15.6935 9.1231 15.6868 8.98323 15.6801 8.84385C15.6733 8.70347 15.6666 8.5636 15.653 8.42468C15.6262 8.12084 15.4185 8.0169 15.1455 8.0131C14.9878 8.0093 14.8301 8.0093 14.6264 8.0093V6.94788C15.9109 6.73659 16.7952 7.16336 16.876 8.3861C16.8941 8.65713 16.9017 8.92922 16.9093 9.20124C16.9161 9.44643 16.9229 9.69157 16.9375 9.93586C16.9529 10.2127 16.9951 10.4936 17.0645 10.7626Z" fill="#173647"/>
</svg>
