<svg width="24" height="24" viewBox="0 0 24 24" fill="none" xmlns="http://www.w3.org/2000/svg">
<rect x="2" y="2" width="20" height="20" rx="4" fill="#0A0E19"/>
<path d="M9.51593 13.9529L9.83914 13.6385L9.94286 13.5354C9.94286 13.5354 12.7358 11.7238 14.4112 11.7238H14.5558C12.9902 11.6446 11.5077 11.0107 10.3852 9.94042L6.24 5.8913H5.96614L5.51025 6.33877V6.60664L9.5313 10.541C9.98946 10.9966 10.245 11.6109 10.2421 12.25C10.2393 12.8891 9.97821 13.5012 9.51593 13.9529Z" fill="url(#paint0_linear_3966_6416)"/>
<path d="M12.3911 8.4779L9.34636 5.50018H9.07251L8.6167 5.94596V6.21383L11.8025 9.33135C12.5835 10.0949 13.6426 10.5239 14.7468 10.5241H17.0533L17.2472 10.3361V9.70229L17.0533 9.51436H14.9492C13.9897 9.51427 13.0695 9.14147 12.3911 8.4779Z" fill="url(#paint1_linear_3966_6416)"/>
<path d="M12.3911 16.0334L9.34636 19.0112H9.07251L8.6167 18.5638V18.2959L11.8025 15.1801C12.5835 14.4165 13.6426 13.9875 14.7468 13.9873H17.0533L17.2472 14.1752V14.8074L17.0533 14.9971H14.9492C13.9897 14.9971 13.0695 15.3699 12.3911 16.0334Z" fill="url(#paint2_linear_3966_6416)"/>
<path d="M7.58931 10.6399L5.73024 8.8233H5.45808L5.00049 9.27078V9.53695L6.77121 11.2704C6.90179 11.3979 7.00543 11.5493 7.07614 11.716C7.14685 11.8827 7.18325 12.0614 7.18325 12.2419C7.18325 12.4224 7.14685 12.6011 7.07614 12.7678C7.00543 12.9345 6.90179 13.0859 6.77121 13.2134L5.13147 14.8187V15.0849L5.58906 15.5324H5.86122L7.58761 13.8455C7.80305 13.6353 7.97408 13.3854 8.09075 13.1105C8.20741 12.8355 8.2676 12.5408 8.26776 12.2431C8.26792 11.9454 8.20805 11.6505 8.09164 11.3755C7.9753 11.1003 7.80459 10.8504 7.58931 10.6399Z" fill="url(#paint3_linear_3966_6416)"/>
<path d="M18.8057 11.7225H14.4106C12.7345 11.7236 11.1274 12.3752 9.94219 13.5341L5.46533 17.9126V18.1805L5.92284 18.6279H6.1967L10.3708 14.5506C10.9572 13.9753 11.6539 13.5189 12.4209 13.2074C13.1879 12.896 14.0103 12.7357 14.8409 12.7356H18.8091L18.9996 12.5543V11.9221L18.8057 11.7225Z" fill="url(#paint4_linear_3966_6416)"/>
<defs>
<linearGradient id="paint0_linear_3966_6416" x1="6.96797" y1="6.62056" x2="10.5782" y2="15.1228" gradientUnits="userSpaceOnUse">
<stop stop-color="#75A7FF"/>
<stop offset="0.479167" stop-color="#497EDC"/>
<stop offset="1" stop-color="#456BE0" stop-opacity="0"/>
</linearGradient>
<linearGradient id="paint1_linear_3966_6416" x1="16.9203" y1="5.45747" x2="8.90035" y2="5.55374" gradientUnits="userSpaceOnUse">
<stop stop-color="#DBDBDB" stop-opacity="0.08"/>
<stop offset="0.510417" stop-color="#DCDCDC"/>
</linearGradient>
<linearGradient id="paint2_linear_3966_6416" x1="16.9203" y1="13.9446" x2="8.90035" y2="14.0409" gradientUnits="userSpaceOnUse">
<stop stop-color="#DBDBDB" stop-opacity="0.08"/>
<stop offset="0.510417" stop-color="#DCDCDC"/>
</linearGradient>
<linearGradient id="paint3_linear_3966_6416" x1="13.5233" y1="15.594" x2="11.3438" y2="7.32829" gradientUnits="userSpaceOnUse">
<stop stop-color="#DBDBDB" stop-opacity="0.08"/>
<stop offset="0.510417" stop-color="#DCDCDC"/>
</linearGradient>
<linearGradient id="paint4_linear_3966_6416" x1="18.4869" y1="11.6639" x2="5.91062" y2="11.8361" gradientUnits="userSpaceOnUse">
<stop stop-color="#DBDBDB" stop-opacity="0.08"/>
<stop offset="0.510417" stop-color="#DCDCDC"/>
</linearGradient>
</defs>
</svg>
