<svg width="24" height="24" viewBox="0 0 24 24" fill="none" xmlns="http://www.w3.org/2000/svg">
<path d="M12.0002 22.8C17.9649 22.8 22.8002 17.9647 22.8002 12C22.8002 6.03534 17.9649 1.20001 12.0002 1.20001C6.03552 1.20001 1.2002 6.03534 1.2002 12C1.2002 17.9647 6.03552 22.8 12.0002 22.8Z" fill="#E95420"/>
<path d="M18.251 12.3887C18.1534 13.9828 17.4583 15.4143 16.3887 16.4658C15.8402 16.2587 15.2064 16.2905 14.6592 16.6064C14.1117 16.9227 13.7674 17.4561 13.6729 18.0352C13.1402 18.1825 12.5796 18.2637 12 18.2637C10.9973 18.2637 10.0503 18.0272 9.20996 17.6084L10.2393 15.8262C10.7751 16.0732 11.3712 16.2119 12 16.2119C14.1951 16.2119 15.9972 14.5326 16.1934 12.3887H18.251Z" fill="white"/>
<path d="M9.56641 8.5625C8.4905 9.32556 7.78811 10.5806 7.78809 12C7.7881 13.4192 8.49079 14.6734 9.56641 15.4365L8.53711 17.2197C7.26884 16.3767 6.32542 15.0841 5.93457 13.5693C6.38976 13.198 6.68066 12.6332 6.68066 12C6.68066 11.3665 6.39003 10.801 5.93457 10.4297C6.32548 8.91491 7.26886 7.62222 8.53711 6.7793L9.56641 8.5625Z" fill="white"/>
<path d="M12 5.73633C12.5795 5.73633 13.1402 5.81657 13.6729 5.96387C13.7671 6.54338 14.1121 7.07715 14.6602 7.39355C15.2074 7.70936 15.8404 7.74042 16.3887 7.5332C17.4586 8.58482 18.1533 10.0169 18.251 11.6113H16.1934C15.9971 9.46739 14.1951 7.78811 12 7.78809C11.3714 7.78809 10.775 7.92597 10.2393 8.17285L9.20996 6.39062C10.0502 5.97189 10.9975 5.73633 12 5.73633Z" fill="white"/>
<path d="M4.65614 13.4418C5.45242 13.4418 6.09793 12.7963 6.09793 12C6.09793 11.2037 5.45242 10.5582 4.65614 10.5582C3.85987 10.5582 3.21436 11.2037 3.21436 12C3.21436 12.7963 3.85987 13.4418 4.65614 13.4418Z" fill="white"/>
<path d="M14.4235 4.91902C14.0253 5.60862 14.2616 6.4904 14.9512 6.88854C15.6408 7.28668 16.5226 7.0504 16.9207 6.36081C17.3188 5.67121 17.0826 4.78943 16.393 4.39129C15.7034 3.99315 14.8216 4.22942 14.4235 4.91902Z" fill="white"/>
<path d="M16.9204 17.6392C16.5223 16.9496 15.6405 16.7133 14.9509 17.1114C14.2613 17.5096 14.025 18.3914 14.4231 19.081C14.8213 19.7706 15.7031 20.0068 16.3927 19.6087C17.0823 19.2106 17.3185 18.3288 16.9204 17.6392Z" fill="white"/>
</svg>
